<svg width="1600" height="960" viewBox="0 0 1600 960" fill="none" xmlns="http://www.w3.org/2000/svg">
<g clip-path="url(#clip0_1_22796)">
<rect width="1600" height="960" fill="white"/>
<rect width="1600" height="960" fill="url(#paint0_linear_1_22796)"/>
<g opacity="0.1">
<path fill-rule="evenodd" clip-rule="evenodd" d="M752.464 958.446C751.625 958.446 750.946 957.766 750.946 956.927L750.946 952.703C750.946 951.864 751.625 951.184 752.464 951.184C753.303 951.184 753.982 951.864 753.982 952.703L753.982 956.927C753.982 957.766 753.303 958.446 752.464 958.446ZM555.881 958.446C555.042 958.446 554.362 957.766 554.362 956.927L554.362 952.703C554.362 951.864 555.042 951.184 555.881 951.184C556.72 951.184 557.399 951.864 557.399 952.703L557.399 956.927C557.399 957.766 556.72 958.446 555.881 958.446ZM555.881 945.773C555.042 945.773 554.362 945.093 554.362 944.254L554.362 935.805C554.362 934.967 555.042 934.287 555.881 934.287C556.72 934.287 557.399 934.967 557.399 935.805L557.399 944.254C557.399 945.093 556.72 945.773 555.881 945.773ZM752.464 945.772C751.625 945.772 750.946 945.093 750.946 944.254L750.946 935.805C750.946 934.967 751.625 934.287 752.464 934.287C753.303 934.287 753.982 934.967 753.982 935.805L753.982 944.254C753.982 945.093 753.303 945.772 752.464 945.772ZM555.881 928.875C555.042 928.875 554.362 928.195 554.362 927.357L554.362 918.908C554.362 918.069 555.042 917.389 555.881 917.389C556.72 917.389 557.399 918.069 557.399 918.908L557.399 927.357C557.399 928.195 556.72 928.875 555.881 928.875ZM752.464 928.875C751.625 928.875 750.946 928.195 750.946 927.357L750.946 918.908C750.946 918.069 751.625 917.389 752.464 917.389C753.303 917.389 753.982 918.069 753.982 918.908L753.982 927.357C753.982 928.195 753.303 928.875 752.464 928.875ZM555.881 911.978C555.042 911.978 554.362 911.298 554.362 910.459L554.362 902.01C554.362 901.172 555.042 900.492 555.881 900.492C556.72 900.492 557.399 901.172 557.399 902.01L557.399 910.459C557.399 911.298 556.72 911.978 555.881 911.978ZM752.464 911.978C751.625 911.978 750.946 911.298 750.946 910.459L750.946 902.01C750.946 901.172 751.625 900.492 752.464 900.492C753.303 900.492 753.982 901.172 753.982 902.01L753.982 910.459C753.982 911.298 753.303 911.978 752.464 911.978ZM555.881 895.08C555.042 895.08 554.362 894.4 554.362 893.562L554.362 885.113C554.362 884.274 555.042 883.595 555.881 883.595C556.72 883.595 557.399 884.274 557.399 885.113L557.399 893.562C557.399 894.4 556.72 895.08 555.881 895.08ZM752.464 895.08C751.625 895.08 750.946 894.4 750.946 893.562L750.946 885.113C750.946 884.274 751.625 883.595 752.464 883.595C753.303 883.595 753.982 884.274 753.982 885.113L753.982 893.562C753.982 894.4 753.303 895.08 752.464 895.08ZM555.881 878.183C555.042 878.183 554.362 877.503 554.362 876.664L554.362 868.216C554.362 867.377 555.042 866.697 555.881 866.697C556.72 866.697 557.399 867.377 557.399 868.216L557.399 876.664C557.399 877.503 556.72 878.183 555.881 878.183ZM752.464 878.183C751.625 878.183 750.946 877.503 750.946 876.664L750.946 868.216C750.946 867.377 751.625 866.697 752.464 866.697C753.303 866.697 753.982 867.377 753.982 868.216L753.982 876.664C753.982 877.503 753.303 878.183 752.464 878.183ZM555.881 861.285C555.042 861.285 554.362 860.606 554.362 859.767L554.362 851.318C554.362 850.48 555.042 849.8 555.881 849.8C556.72 849.8 557.399 850.48 557.399 851.318L557.399 859.767C557.399 860.606 556.72 861.285 555.881 861.285ZM752.464 861.285C751.625 861.285 750.946 860.605 750.946 859.767L750.946 851.318C750.946 850.48 751.625 849.8 752.464 849.8C753.303 849.8 753.982 850.48 753.982 851.318L753.982 859.767C753.982 860.605 753.303 861.285 752.464 861.285ZM555.881 844.388C555.042 844.388 554.362 843.708 554.362 842.869L554.362 834.421C554.362 833.582 555.042 832.902 555.881 832.902C556.72 832.902 557.399 833.582 557.399 834.421L557.399 842.869C557.399 843.708 556.72 844.388 555.881 844.388ZM752.464 844.388C751.625 844.388 750.946 843.708 750.946 842.869L750.946 834.421C750.946 833.582 751.625 832.902 752.464 832.902C753.303 832.902 753.982 833.582 753.982 834.421L753.982 842.869C753.982 843.708 753.303 844.388 752.464 844.388ZM555.881 827.49C555.042 827.49 554.362 826.811 554.362 825.972L554.362 817.523C554.362 816.685 555.042 816.005 555.881 816.005C556.72 816.005 557.399 816.685 557.399 817.523L557.399 825.972C557.399 826.811 556.72 827.49 555.881 827.49ZM752.464 827.49C751.625 827.49 750.946 826.811 750.946 825.972L750.946 817.523C750.946 816.685 751.625 816.005 752.464 816.005C753.303 816.005 753.982 816.685 753.982 817.523L753.982 825.972C753.982 826.811 753.303 827.49 752.464 827.49ZM555.881 810.593C555.042 810.593 554.362 809.913 554.362 809.075L554.362 800.626C554.362 799.787 555.042 799.107 555.881 799.107C556.72 799.107 557.399 799.787 557.399 800.626L557.399 809.075C557.399 809.913 556.72 810.593 555.881 810.593ZM752.464 810.593C751.625 810.593 750.946 809.913 750.946 809.075L750.946 800.626C750.946 799.787 751.625 799.107 752.464 799.107C753.303 799.107 753.982 799.787 753.982 800.626L753.982 809.075C753.982 809.913 753.303 810.593 752.464 810.593ZM555.881 793.696C555.042 793.696 554.362 793.016 554.362 792.177L554.362 783.728C554.362 782.89 555.042 782.21 555.881 782.21C556.72 782.21 557.399 782.89 557.399 783.728L557.399 792.177C557.399 793.016 556.72 793.696 555.881 793.696ZM752.464 793.696C751.625 793.696 750.946 793.016 750.946 792.177L750.946 783.728C750.946 782.89 751.625 782.21 752.464 782.21C753.303 782.21 753.982 782.89 753.982 783.728L753.982 792.177C753.982 793.016 753.303 793.696 752.464 793.696ZM555.881 776.798C555.042 776.798 554.362 776.118 554.362 775.28L554.362 771.055C554.362 769.556 554.46 768.078 554.649 766.628C554.757 765.797 555.52 765.21 556.351 765.319C557.183 765.427 557.769 766.189 557.66 767.021C557.488 768.341 557.399 769.687 557.399 771.055L557.399 775.28C557.399 776.118 556.72 776.798 555.881 776.798ZM752.464 776.798C751.625 776.798 750.945 776.118 750.945 775.28L750.945 771.055C750.945 769.687 750.857 768.341 750.684 767.021C750.576 766.189 751.162 765.427 751.994 765.319C752.825 765.21 753.587 765.796 753.696 766.628C753.885 768.078 753.982 769.556 753.982 771.055L753.982 775.28C753.982 776.118 753.303 776.798 752.464 776.798ZM557.757 760.058C556.983 759.737 556.615 758.849 556.936 758.074C558.08 755.316 559.577 752.742 561.369 750.409C561.88 749.744 562.834 749.62 563.499 750.131C564.164 750.642 564.288 751.595 563.777 752.26C562.144 754.385 560.782 756.728 559.742 759.237C559.42 760.012 558.532 760.379 557.757 760.058ZM750.588 760.058C749.813 760.379 748.925 760.012 748.603 759.237C747.563 756.728 746.2 754.385 744.567 752.26C744.056 751.595 744.181 750.642 744.846 750.131C745.511 749.62 746.464 749.744 746.975 750.409C748.768 752.742 750.265 755.316 751.409 758.074C751.73 758.848 751.362 759.737 750.588 760.058ZM567.35 746.28C566.839 745.615 566.964 744.661 567.629 744.15C569.962 742.357 572.535 740.861 575.293 739.717C576.068 739.396 576.956 739.763 577.277 740.538C577.598 741.313 577.231 742.201 576.456 742.522C573.947 743.563 571.604 744.925 569.479 746.558C568.814 747.069 567.861 746.944 567.35 746.28ZM740.995 746.279C740.484 746.944 739.531 747.069 738.866 746.558C736.741 744.925 734.398 743.563 731.889 742.522C731.114 742.201 730.746 741.313 731.068 740.538C731.389 739.763 732.277 739.396 733.052 739.717C735.81 740.861 738.383 742.357 740.716 744.15C741.381 744.661 741.506 745.615 740.995 746.279ZM725.807 739.132C725.698 739.963 724.936 740.55 724.105 740.441C722.785 740.269 721.438 740.18 720.07 740.18L715.952 740.18C715.113 740.18 714.433 739.5 714.433 738.662C714.433 737.823 715.113 737.143 715.952 737.143L720.07 737.143C721.57 737.143 723.048 737.241 724.498 737.43C725.329 737.538 725.915 738.3 725.807 739.132ZM582.538 739.132C582.429 738.3 583.016 737.538 583.847 737.43C585.297 737.241 586.775 737.143 588.275 737.143L592.393 737.143C593.232 737.143 593.912 737.823 593.912 738.662C593.912 739.5 593.232 740.18 592.393 740.18L588.275 740.18C586.906 740.18 585.56 740.269 584.24 740.441C583.408 740.55 582.646 739.963 582.538 739.132ZM709.233 738.662C709.233 739.5 708.553 740.18 707.714 740.18L699.477 740.18C698.639 740.18 697.959 739.5 697.959 738.662C697.959 737.823 698.639 737.143 699.477 737.143L707.714 737.143C708.553 737.143 709.233 737.823 709.233 738.662ZM692.758 738.662C692.758 739.5 692.079 740.18 691.24 740.18L683.003 740.18C682.164 740.18 681.484 739.5 681.484 738.662C681.484 737.823 682.164 737.143 683.003 737.143L691.24 737.143C692.079 737.143 692.758 737.823 692.758 738.662ZM676.284 738.662C676.284 739.5 675.604 740.18 674.765 740.18L666.528 740.18C665.69 740.18 665.01 739.5 665.01 738.662C665.01 737.823 665.69 737.143 666.528 737.143L674.765 737.143C675.604 737.143 676.284 737.823 676.284 738.662ZM659.809 738.662C659.809 739.5 659.13 740.18 658.291 740.18L650.054 740.18C649.215 740.18 648.535 739.5 648.535 738.662C648.535 737.823 649.215 737.143 650.054 737.143L658.291 737.143C659.13 737.143 659.809 737.823 659.809 738.662ZM643.335 738.662C643.335 739.5 642.655 740.18 641.817 740.18L633.579 740.18C632.741 740.18 632.061 739.5 632.061 738.662C632.061 737.823 632.741 737.143 633.579 737.143L641.817 737.143C642.655 737.143 643.335 737.823 643.335 738.662ZM626.861 738.662C626.861 739.5 626.181 740.18 625.342 740.18L617.105 740.18C616.266 740.18 615.586 739.5 615.586 738.662C615.586 737.823 616.266 737.143 617.105 737.143L625.342 737.143C626.181 737.143 626.861 737.823 626.861 738.662ZM610.386 738.662C610.386 739.5 609.706 740.18 608.868 740.18L600.63 740.18C599.792 740.18 599.112 739.5 599.112 738.662C599.112 737.823 599.792 737.143 600.63 737.143L608.868 737.143C609.706 737.143 610.386 737.823 610.386 738.662Z" fill="white"/>
<path d="M557.338 959.084L563.671 948.897C564.429 947.676 563.708 946.103 562.399 945.86C562.169 945.817 561.934 945.868 561.714 945.948L555.881 948.051L550.048 945.948C549.828 945.868 549.593 945.817 549.363 945.86C548.072 946.1 547.348 947.635 548.067 948.856L554.066 959.043C554.807 960.301 556.568 960.323 557.338 959.084Z" fill="white"/>
<path d="M752.464 965.062C749.669 965.062 747.403 962.795 747.403 960C747.403 957.205 749.669 954.939 752.464 954.939C755.259 954.939 757.526 957.205 757.526 960C757.526 962.795 755.259 965.062 752.464 965.062Z" fill="white" stroke="white" stroke-width="6.07381"/>
</g>
<g opacity="0.1">
<path fill-rule="evenodd" clip-rule="evenodd" d="M-30.6827 40.8892C-29.8441 40.8892 -29.1643 41.569 -29.1643 42.4076V46.632C-29.1643 47.4706 -29.8441 48.1504 -30.6827 48.1504C-31.5213 48.1504 -32.2012 47.4706 -32.2012 46.632V42.4076C-32.2012 41.569 -31.5213 40.8892 -30.6827 40.8892ZM305.213 40.8892C306.052 40.8892 306.732 41.569 306.732 42.4076V46.632C306.732 47.4706 306.052 48.1504 305.213 48.1504C304.375 48.1504 303.695 47.4706 303.695 46.632V42.4076C303.695 41.569 304.375 40.8892 305.213 40.8892ZM305.213 53.5622C306.052 53.5622 306.732 54.2421 306.732 55.0807V63.5294C306.732 64.368 306.052 65.0478 305.213 65.0478C304.375 65.0478 303.695 64.368 303.695 63.5294V55.0807C303.695 54.2421 304.375 53.5622 305.213 53.5622ZM-30.6827 53.5622C-29.8441 53.5622 -29.1643 54.2421 -29.1643 55.0807V63.5294C-29.1643 64.368 -29.8441 65.0479 -30.6827 65.0479C-31.5213 65.0479 -32.2012 64.368 -32.2012 63.5294V55.0807C-32.2012 54.2421 -31.5213 53.5622 -30.6827 53.5622ZM305.213 70.4596C306.052 70.4596 306.732 71.1395 306.732 71.9781V80.4268C306.732 81.2654 306.052 81.9453 305.213 81.9453C304.375 81.9453 303.695 81.2654 303.695 80.4268V71.9781C303.695 71.1395 304.375 70.4596 305.213 70.4596ZM-30.6827 70.4597C-29.8441 70.4597 -29.1643 71.1395 -29.1643 71.9781V80.4268C-29.1643 81.2655 -29.8441 81.9453 -30.6827 81.9453C-31.5213 81.9453 -32.2012 81.2655 -32.2012 80.4268V71.9781C-32.2012 71.1395 -31.5213 70.4597 -30.6827 70.4597ZM305.213 87.3571C306.052 87.3571 306.732 88.0369 306.732 88.8755V97.3243C306.732 98.1629 306.052 98.8427 305.213 98.8427C304.375 98.8427 303.695 98.1629 303.695 97.3243V88.8755C303.695 88.0369 304.375 87.3571 305.213 87.3571ZM-30.6827 87.3571C-29.8441 87.3571 -29.1643 88.0369 -29.1643 88.8756V97.3243C-29.1643 98.1629 -29.8441 98.8427 -30.6827 98.8427C-31.5213 98.8427 -32.2012 98.1629 -32.2012 97.3243V88.8756C-32.2012 88.0369 -31.5213 87.3571 -30.6827 87.3571ZM305.213 104.255C306.052 104.255 306.732 104.934 306.732 105.773V114.222C306.732 115.06 306.052 115.74 305.213 115.74C304.375 115.74 303.695 115.06 303.695 114.222V105.773C303.695 104.934 304.375 104.255 305.213 104.255ZM-30.6827 104.255C-29.8441 104.255 -29.1643 104.934 -29.1643 105.773V114.222C-29.1643 115.06 -29.8441 115.74 -30.6827 115.74C-31.5213 115.74 -32.2012 115.06 -32.2012 114.222V105.773C-32.2012 104.934 -31.5213 104.255 -30.6827 104.255ZM305.213 121.152C306.052 121.152 306.732 121.832 306.732 122.67V131.119C306.732 131.958 306.052 132.638 305.213 132.638C304.375 132.638 303.695 131.958 303.695 131.119V122.67C303.695 121.832 304.375 121.152 305.213 121.152ZM-30.6827 121.152C-29.8441 121.152 -29.1643 121.832 -29.1643 122.67V131.119C-29.1643 131.958 -29.8441 132.638 -30.6827 132.638C-31.5213 132.638 -32.2012 131.958 -32.2012 131.119V122.67C-32.2012 121.832 -31.5213 121.152 -30.6827 121.152ZM305.213 138.049C306.052 138.049 306.732 138.729 306.732 139.568V148.017C306.732 148.855 306.052 149.535 305.213 149.535C304.375 149.535 303.695 148.855 303.695 148.017V139.568C303.695 138.729 304.375 138.049 305.213 138.049ZM-30.6827 138.049C-29.8441 138.049 -29.1643 138.729 -29.1643 139.568V148.017C-29.1643 148.855 -29.8441 149.535 -30.6827 149.535C-31.5213 149.535 -32.2012 148.855 -32.2012 148.017V139.568C-32.2012 138.729 -31.5213 138.049 -30.6827 138.049ZM305.213 154.947C306.052 154.947 306.732 155.627 306.732 156.465V164.914C306.732 165.753 306.052 166.432 305.213 166.432C304.375 166.432 303.695 165.753 303.695 164.914V156.465C303.695 155.627 304.375 154.947 305.213 154.947ZM-30.6827 154.947C-29.8441 154.947 -29.1643 155.627 -29.1643 156.465V164.914C-29.1643 165.753 -29.8441 166.432 -30.6827 166.432C-31.5213 166.432 -32.2012 165.753 -32.2012 164.914V156.465C-32.2012 155.627 -31.5213 154.947 -30.6827 154.947ZM305.213 171.844C306.052 171.844 306.732 172.524 306.732 173.363V181.811C306.732 182.65 306.052 183.33 305.213 183.33C304.375 183.33 303.695 182.65 303.695 181.811V173.363C303.695 172.524 304.375 171.844 305.213 171.844ZM-30.6827 171.844C-29.8441 171.844 -29.1643 172.524 -29.1643 173.363V181.811C-29.1643 182.65 -29.8441 183.33 -30.6827 183.33C-31.5213 183.33 -32.2012 182.65 -32.2012 181.811V173.363C-32.2012 172.524 -31.5213 171.844 -30.6827 171.844ZM305.213 188.742C306.052 188.742 306.732 189.422 306.732 190.26V198.709C306.732 199.547 306.052 200.227 305.213 200.227C304.375 200.227 303.695 199.547 303.695 198.709V190.26C303.695 189.422 304.375 188.742 305.213 188.742ZM-30.6827 188.742C-29.8441 188.742 -29.1643 189.422 -29.1643 190.26V198.709C-29.1643 199.547 -29.8441 200.227 -30.6827 200.227C-31.5213 200.227 -32.2012 199.547 -32.2012 198.709V190.26C-32.2012 189.422 -31.5213 188.742 -30.6827 188.742ZM305.213 205.639C306.052 205.639 306.732 206.319 306.732 207.158V215.606C306.732 216.445 306.052 217.125 305.213 217.125C304.375 217.125 303.695 216.445 303.695 215.606V207.158C303.695 206.319 304.375 205.639 305.213 205.639ZM-30.6827 205.639C-29.8441 205.639 -29.1643 206.319 -29.1643 207.158V215.606C-29.1643 216.445 -29.8441 217.125 -30.6827 217.125C-31.5213 217.125 -32.2012 216.445 -32.2012 215.606V207.158C-32.2012 206.319 -31.5213 205.639 -30.6827 205.639ZM305.213 222.537C306.052 222.537 306.732 223.216 306.732 224.055V228.279C306.732 229.779 306.634 231.257 306.445 232.707C306.337 233.538 305.575 234.124 304.743 234.016C303.911 233.907 303.325 233.145 303.434 232.314C303.606 230.994 303.695 229.647 303.695 228.279V224.055C303.695 223.216 304.375 222.537 305.213 222.537ZM-30.6827 222.537C-29.8441 222.537 -29.1643 223.216 -29.1643 224.055V228.279C-29.1643 229.648 -29.0754 230.994 -28.9032 232.314C-28.7947 233.145 -29.3809 233.908 -30.2125 234.016C-31.0441 234.124 -31.8061 233.538 -31.9146 232.707C-32.1037 231.257 -32.2012 229.779 -32.2012 228.279V224.055C-32.2012 223.216 -31.5213 222.537 -30.6827 222.537ZM303.337 239.277C304.111 239.598 304.479 240.486 304.158 241.261C303.014 244.019 301.518 246.592 299.725 248.925C299.214 249.59 298.26 249.715 297.595 249.204C296.93 248.693 296.806 247.74 297.317 247.075C298.95 244.95 300.312 242.607 301.352 240.098C301.674 239.323 302.562 238.955 303.337 239.277ZM-28.8063 239.277C-28.0317 238.955 -27.1433 239.323 -26.822 240.098C-25.7815 242.607 -24.4192 244.95 -22.7862 247.075C-22.2752 247.74 -22.4 248.693 -23.0649 249.204C-23.7299 249.715 -24.6832 249.59 -25.1942 248.925C-26.9871 246.592 -28.4837 244.019 -29.6273 241.261C-29.9485 240.486 -29.581 239.598 -28.8063 239.277ZM293.744 253.055C294.255 253.72 294.13 254.673 293.466 255.184C291.132 256.977 288.559 258.474 285.801 259.618C285.026 259.939 284.138 259.571 283.817 258.797C283.496 258.022 283.863 257.134 284.638 256.812C287.147 255.772 289.49 254.409 291.615 252.776C292.28 252.265 293.233 252.39 293.744 253.055ZM-19.2138 253.055C-18.7028 252.39 -17.7495 252.265 -17.0846 252.776C-14.9595 254.409 -12.6166 255.772 -10.1073 256.812C-9.33264 257.134 -8.96508 258.022 -9.28631 258.797C-9.60754 259.571 -10.4959 259.939 -11.2706 259.618C-14.0284 258.474 -16.602 256.977 -18.935 255.184C-19.6 254.673 -19.7248 253.72 -19.2138 253.055ZM-4.02565 260.203C-3.91718 259.371 -3.15513 258.785 -2.32355 258.894C-1.00378 259.066 0.342823 259.155 1.71095 259.155H5.69784C6.53646 259.155 7.21629 259.834 7.21629 260.673C7.21629 261.512 6.53646 262.191 5.69784 262.191H1.71095C0.211131 262.191 -1.26668 262.094 -2.71636 261.905C-3.54794 261.796 -4.13413 261.034 -4.02565 260.203ZM278.556 260.203C278.665 261.034 278.078 261.796 277.247 261.905C275.797 262.094 274.319 262.191 272.82 262.191H268.833C267.994 262.191 267.314 261.512 267.314 260.673C267.314 259.834 267.994 259.155 268.833 259.155H272.82C274.188 259.155 275.534 259.066 276.854 258.893C277.686 258.785 278.448 259.371 278.556 260.203ZM12.1532 260.673C12.1532 259.834 12.833 259.155 13.6716 259.155H21.6454C22.484 259.155 23.1639 259.834 23.1639 260.673C23.1639 261.512 22.484 262.191 21.6454 262.191H13.6716C12.833 262.191 12.1532 261.512 12.1532 260.673ZM28.1007 260.673C28.1007 259.834 28.7806 259.155 29.6192 259.155H37.593C38.4316 259.155 39.1114 259.834 39.1114 260.673C39.1114 261.512 38.4316 262.191 37.593 262.191H29.6192C28.7806 262.191 28.1007 261.512 28.1007 260.673ZM44.0483 260.673C44.0483 259.834 44.7281 259.155 45.5668 259.155H53.5405C54.3792 259.155 55.059 259.834 55.059 260.673C55.059 261.512 54.3792 262.191 53.5405 262.191H45.5668C44.7281 262.191 44.0483 261.512 44.0483 260.673ZM59.9959 260.673C59.9959 259.834 60.6757 259.155 61.5143 259.155H69.4881C70.3267 259.155 71.0066 259.834 71.0066 260.673C71.0066 261.512 70.3267 262.191 69.4881 262.191H61.5143C60.6757 262.191 59.9959 261.512 59.9959 260.673ZM75.9434 260.673C75.9434 259.834 76.6233 259.155 77.4619 259.155H85.4357C86.2743 259.155 86.9541 259.834 86.9541 260.673C86.9541 261.512 86.2743 262.191 85.4357 262.191H77.4619C76.6233 262.191 75.9434 261.512 75.9434 260.673ZM91.891 260.673C91.891 259.834 92.5708 259.155 93.4094 259.155H101.383C102.222 259.155 102.902 259.834 102.902 260.673C102.902 261.512 102.222 262.191 101.383 262.191H93.4094C92.5708 262.191 91.891 261.512 91.891 260.673ZM107.839 260.673C107.839 259.834 108.518 259.155 109.357 259.155H117.331C118.169 259.155 118.849 259.834 118.849 260.673C118.849 261.512 118.169 262.191 117.331 262.191H109.357C108.518 262.191 107.839 261.512 107.839 260.673ZM123.786 260.673C123.786 259.834 124.466 259.155 125.305 259.155H133.278C134.117 259.155 134.797 259.834 134.797 260.673C134.797 261.512 134.117 262.191 133.278 262.191H125.305C124.466 262.191 123.786 261.512 123.786 260.673ZM139.734 260.673C139.734 259.834 140.414 259.155 141.252 259.155H149.226C150.065 259.155 150.744 259.834 150.744 260.673C150.744 261.512 150.065 262.191 149.226 262.191H141.252C140.414 262.191 139.734 261.512 139.734 260.673ZM155.681 260.673C155.681 259.834 156.361 259.155 157.2 259.155H165.173C166.012 259.155 166.692 259.834 166.692 260.673C166.692 261.512 166.012 262.191 165.173 262.191H157.2C156.361 262.191 155.681 261.512 155.681 260.673ZM171.629 260.673C171.629 259.834 172.309 259.155 173.147 259.155H181.121C181.96 259.155 182.64 259.834 182.64 260.673C182.64 261.512 181.96 262.191 181.121 262.191H173.147C172.309 262.191 171.629 261.512 171.629 260.673ZM187.576 260.673C187.576 259.834 188.256 259.155 189.095 259.155H197.069C197.907 259.155 198.587 259.834 198.587 260.673C198.587 261.512 197.907 262.191 197.069 262.191H189.095C188.256 262.191 187.576 261.512 187.576 260.673ZM203.524 260.673C203.524 259.834 204.204 259.155 205.042 259.155H213.016C213.855 259.155 214.535 259.834 214.535 260.673C214.535 261.512 213.855 262.191 213.016 262.191H205.042C204.204 262.191 203.524 261.512 203.524 260.673ZM219.472 260.673C219.472 259.834 220.151 259.155 220.99 259.155H228.964C229.802 259.155 230.482 259.834 230.482 260.673C230.482 261.512 229.802 262.191 228.964 262.191H220.99C220.151 262.191 219.472 261.512 219.472 260.673ZM235.419 260.673C235.419 259.834 236.099 259.155 236.938 259.155H244.911C245.75 259.155 246.43 259.834 246.43 260.673C246.43 261.512 245.75 262.191 244.911 262.191H236.938C236.099 262.191 235.419 261.512 235.419 260.673ZM251.367 260.673C251.367 259.834 252.047 259.155 252.885 259.155H260.859C261.698 259.155 262.377 259.834 262.377 260.673C262.377 261.512 261.698 262.191 260.859 262.191H252.885C252.047 262.191 251.367 261.512 251.367 260.673Z" fill="white"/>
<path d="M303.757 40.2503L297.424 50.4377C296.665 51.6582 297.386 53.2317 298.696 53.4743C298.926 53.517 299.16 53.4657 299.381 53.3864L305.214 51.2835L311.047 53.3864C311.267 53.4657 311.502 53.517 311.732 53.4743C313.023 53.2346 313.747 51.6994 313.028 50.4787L307.029 40.2913C306.288 39.0331 304.527 39.011 303.757 40.2503Z" fill="white"/>
</g>
<g clip-path="url(#clip1_1_22796)">
<g filter="url(#filter0_b_1_22796)">
<rect width="158.005" height="31.6011" transform="translate(-139 644.047)" fill="#1F2024" fill-opacity="0.1"/>
</g>
<path fill-rule="evenodd" clip-rule="evenodd" d="M-139 677.129C-139 676.311 -138.349 675.648 -137.546 675.648H17.5514C18.3545 675.648 19.0055 676.311 19.0055 677.129C19.0055 677.947 18.3545 678.611 17.5514 678.611H-137.546C-138.349 678.611 -139 677.947 -139 677.129Z" fill="white"/>
<rect width="158.005" height="76.0454" transform="translate(-139 678.611)" fill="white"/>
</g>
<rect x="-139" y="644.047" width="158.005" height="108.629" rx="15.8005" stroke="white" stroke-width="2.9626"/>
<path fill-rule="evenodd" clip-rule="evenodd" d="M146.972 470.781C130.337 470.781 116.852 484.266 116.852 500.901V674.661C116.852 692.932 102.04 707.743 83.7693 707.743H22.8934C22.0753 707.743 21.4121 707.08 21.4121 706.262C21.4121 705.444 22.0753 704.781 22.8934 704.781H83.7693C100.404 704.781 113.889 691.296 113.889 674.661V500.901C113.889 482.63 128.701 467.819 146.972 467.819H207.847C208.666 467.819 209.329 468.482 209.329 469.3C209.329 470.118 208.666 470.781 207.847 470.781H146.972Z" fill="white"/>
<path d="M208.9 467.879L198.962 461.701C197.772 460.961 196.237 461.664 196 462.941C195.958 463.166 196.008 463.395 196.086 463.61L198.137 469.3L196.086 474.99C196.008 475.205 195.958 475.434 196 475.659C196.234 476.918 197.732 477.625 198.922 476.923L208.86 471.071C210.088 470.348 210.109 468.63 208.9 467.879Z" fill="white"/>
<path d="M14.0683 706.262C14.0683 703.535 16.279 701.324 19.006 701.324C21.733 701.324 23.9436 703.535 23.9436 706.262C23.9436 708.989 21.733 711.2 19.006 711.2C16.279 711.2 14.0683 708.989 14.0683 706.262Z" fill="white" stroke="white" stroke-width="5.92521"/>
<g filter="url(#filter1_b_1_22796)">
<rect x="737.931" y="263.893" width="146.155" height="71.1025" rx="35.5512" fill="#1F2024" fill-opacity="0.05"/>
<path d="M781.809 299.434C781.809 300.967 781.528 302.286 780.967 303.389C780.406 304.488 779.637 305.335 778.659 305.928C777.687 306.518 776.581 306.812 775.342 306.812C774.098 306.812 772.988 306.518 772.01 305.928C771.038 305.335 770.271 304.486 769.71 303.382C769.149 302.279 768.868 300.963 768.868 299.434C768.868 297.9 769.149 296.584 769.71 295.485C770.271 294.381 771.038 293.535 772.01 292.946C772.988 292.352 774.098 292.055 775.342 292.055C776.581 292.055 777.687 292.352 778.659 292.946C779.637 293.535 780.406 294.381 780.967 295.485C781.528 296.584 781.809 297.9 781.809 299.434ZM779.662 299.434C779.662 298.265 779.473 297.28 779.094 296.481C778.72 295.677 778.206 295.069 777.551 294.657C776.901 294.241 776.165 294.033 775.342 294.033C774.514 294.033 773.775 294.241 773.126 294.657C772.476 295.069 771.961 295.677 771.582 296.481C771.208 297.28 771.021 298.265 771.021 299.434C771.021 300.603 771.208 301.589 771.582 302.393C771.961 303.193 772.476 303.801 773.126 304.217C773.775 304.628 774.514 304.834 775.342 304.834C776.165 304.834 776.901 304.628 777.551 304.217C778.206 303.801 778.72 303.193 779.094 302.393C779.473 301.589 779.662 300.603 779.662 299.434Z" fill="white"/>
<path d="M791.167 302.148V295.843H793.271V306.616H791.209V304.75H791.096C790.849 305.325 790.451 305.804 789.904 306.188C789.362 306.567 788.686 306.756 787.877 306.756C787.185 306.756 786.573 306.604 786.04 306.3C785.511 305.991 785.095 305.536 784.791 304.932C784.492 304.329 784.342 303.583 784.342 302.695V295.843H786.439V302.443C786.439 303.177 786.643 303.761 787.05 304.196C787.456 304.631 787.985 304.848 788.635 304.848C789.027 304.848 789.418 304.75 789.806 304.554C790.199 304.357 790.524 304.06 790.781 303.663C791.043 303.265 791.171 302.76 791.167 302.148Z" fill="white"/>
<path d="M801.117 295.843V297.526H795.233V295.843H801.117ZM796.811 293.262H798.908V303.453C798.908 303.859 798.969 304.166 799.09 304.371C799.212 304.572 799.369 304.71 799.56 304.785C799.757 304.855 799.969 304.89 800.199 304.89C800.367 304.89 800.514 304.879 800.64 304.855C800.767 304.832 800.865 304.813 800.935 304.799L801.314 306.532C801.192 306.578 801.019 306.625 800.795 306.672C800.57 306.723 800.29 306.751 799.953 306.756C799.401 306.765 798.887 306.667 798.41 306.461C797.933 306.256 797.547 305.938 797.253 305.508C796.958 305.077 796.811 304.537 796.811 303.887V293.262Z" fill="white"/>
<path d="M807.859 306.833C806.817 306.833 805.919 306.597 805.166 306.125C804.418 305.648 803.843 304.991 803.441 304.154C803.039 303.317 802.837 302.358 802.837 301.278C802.837 300.184 803.043 299.219 803.455 298.382C803.866 297.54 804.446 296.883 805.194 296.411C805.942 295.938 806.824 295.702 807.838 295.702C808.657 295.702 809.386 295.854 810.027 296.158C810.667 296.457 811.184 296.878 811.577 297.421C811.974 297.963 812.21 298.597 812.285 299.321H810.244C810.132 298.816 809.875 298.382 809.472 298.017C809.075 297.652 808.542 297.47 807.873 297.47C807.289 297.47 806.777 297.624 806.337 297.933C805.902 298.237 805.563 298.671 805.32 299.237C805.077 299.798 804.956 300.462 804.956 301.229C804.956 302.015 805.075 302.693 805.313 303.263C805.552 303.834 805.888 304.275 806.323 304.589C806.763 304.902 807.279 305.059 807.873 305.059C808.271 305.059 808.631 304.986 808.953 304.841C809.281 304.692 809.554 304.479 809.774 304.203C809.998 303.927 810.155 303.595 810.244 303.207H812.285C812.21 303.904 811.983 304.526 811.605 305.073C811.226 305.62 810.719 306.05 810.083 306.363C809.451 306.676 808.71 306.833 807.859 306.833Z" fill="white"/>
<path d="M819.065 306.833C818.056 306.833 817.174 306.602 816.421 306.139C815.668 305.676 815.084 305.028 814.668 304.196C814.252 303.364 814.044 302.391 814.044 301.278C814.044 300.161 814.252 299.183 814.668 298.346C815.084 297.51 815.668 296.86 816.421 296.397C817.174 295.934 818.056 295.702 819.065 295.702C820.075 295.702 820.957 295.934 821.71 296.397C822.462 296.86 823.047 297.51 823.463 298.346C823.879 299.183 824.087 300.161 824.087 301.278C824.087 302.391 823.879 303.364 823.463 304.196C823.047 305.028 822.462 305.676 821.71 306.139C820.957 306.602 820.075 306.833 819.065 306.833ZM819.073 305.073C819.727 305.073 820.27 304.9 820.7 304.554C821.13 304.208 821.448 303.747 821.654 303.172C821.864 302.597 821.969 301.963 821.969 301.271C821.969 300.584 821.864 299.953 821.654 299.378C821.448 298.798 821.13 298.332 820.7 297.982C820.27 297.631 819.727 297.456 819.073 297.456C818.413 297.456 817.866 297.631 817.431 297.982C817.001 298.332 816.681 298.798 816.47 299.378C816.265 299.953 816.162 300.584 816.162 301.271C816.162 301.963 816.265 302.597 816.47 303.172C816.681 303.747 817.001 304.208 817.431 304.554C817.866 304.9 818.413 305.073 819.073 305.073Z" fill="white"/>
<path d="M826.428 306.616V295.843H828.441V297.596H828.574C828.799 297.002 829.166 296.539 829.676 296.207C830.185 295.871 830.795 295.702 831.506 295.702C832.226 295.702 832.829 295.871 833.316 296.207C833.807 296.544 834.169 297.007 834.403 297.596H834.515C834.772 297.021 835.181 296.563 835.742 296.221C836.303 295.875 836.972 295.702 837.748 295.702C838.726 295.702 839.523 296.009 840.14 296.621C840.762 297.234 841.073 298.157 841.073 299.392V306.616H838.976V299.588C838.976 298.859 838.777 298.33 838.38 298.003C837.982 297.676 837.508 297.512 836.956 297.512C836.273 297.512 835.742 297.722 835.364 298.143C834.985 298.559 834.796 299.095 834.796 299.749V306.616H832.705V299.455C832.705 298.87 832.523 298.4 832.158 298.045C831.794 297.69 831.319 297.512 830.735 297.512C830.337 297.512 829.97 297.617 829.633 297.827C829.301 298.033 829.033 298.321 828.827 298.69C828.626 299.06 828.525 299.487 828.525 299.974V306.616H826.428Z" fill="white"/>
<path d="M848.527 306.833C847.465 306.833 846.551 306.606 845.784 306.153C845.022 305.695 844.433 305.052 844.017 304.224C843.605 303.392 843.4 302.417 843.4 301.299C843.4 300.196 843.605 299.223 844.017 298.382C844.433 297.54 845.013 296.883 845.756 296.411C846.504 295.938 847.379 295.702 848.379 295.702C848.987 295.702 849.576 295.803 850.147 296.004C850.717 296.205 851.229 296.521 851.683 296.951C852.136 297.381 852.494 297.94 852.756 298.627C853.018 299.31 853.149 300.14 853.149 301.117V301.86H844.585V300.289H851.094C851.094 299.738 850.981 299.249 850.757 298.823C850.533 298.393 850.217 298.054 849.81 297.806C849.408 297.559 848.936 297.435 848.393 297.435C847.804 297.435 847.29 297.58 846.85 297.87C846.416 298.155 846.079 298.529 845.84 298.992C845.607 299.45 845.49 299.948 845.49 300.486V301.713C845.49 302.433 845.616 303.046 845.868 303.551C846.126 304.056 846.483 304.441 846.942 304.708C847.4 304.97 847.935 305.101 848.548 305.101C848.945 305.101 849.308 305.045 849.635 304.932C849.962 304.816 850.245 304.642 850.484 304.413C850.722 304.184 850.904 303.901 851.031 303.565L853.015 303.922C852.857 304.507 852.571 305.019 852.16 305.458C851.753 305.893 851.241 306.232 850.624 306.475C850.011 306.714 849.312 306.833 848.527 306.833Z" fill="white"/>
<rect x="737.931" y="263.893" width="146.155" height="71.1025" rx="35.5512" stroke="white" stroke-width="2.9626" stroke-linecap="round" stroke-linejoin="round"/>
</g>
<g filter="url(#filter2_b_1_22796)">
<rect x="737.931" y="599.654" width="146.155" height="71.1025" rx="35.5512" fill="#1F2024" fill-opacity="0.05"/>
<path d="M781.809 635.195C781.809 636.729 781.528 638.047 780.967 639.151C780.406 640.25 779.637 641.096 778.659 641.69C777.687 642.279 776.581 642.574 775.342 642.574C774.098 642.574 772.988 642.279 772.01 641.69C771.038 641.096 770.271 640.247 769.71 639.144C769.149 638.04 768.868 636.724 768.868 635.195C768.868 633.661 769.149 632.345 769.71 631.246C770.271 630.143 771.038 629.297 772.01 628.707C772.988 628.114 774.098 627.817 775.342 627.817C776.581 627.817 777.687 628.114 778.659 628.707C779.637 629.297 780.406 630.143 780.967 631.246C781.528 632.345 781.809 633.661 781.809 635.195ZM779.662 635.195C779.662 634.026 779.473 633.042 779.094 632.242C778.72 631.438 778.206 630.83 777.551 630.419C776.901 630.003 776.165 629.795 775.342 629.795C774.514 629.795 773.775 630.003 773.126 630.419C772.476 630.83 771.961 631.438 771.582 632.242C771.208 633.042 771.021 634.026 771.021 635.195C771.021 636.364 771.208 637.351 771.582 638.155C771.961 638.954 772.476 639.562 773.126 639.978C773.775 640.39 774.514 640.596 775.342 640.596C776.165 640.596 776.901 640.39 777.551 639.978C778.206 639.562 778.72 638.954 779.094 638.155C779.473 637.351 779.662 636.364 779.662 635.195Z" fill="white"/>
<path d="M791.167 637.909V631.604H793.271V642.377H791.209V640.512H791.096C790.849 641.087 790.451 641.566 789.904 641.949C789.362 642.328 788.686 642.517 787.877 642.517C787.185 642.517 786.573 642.365 786.04 642.062C785.511 641.753 785.095 641.297 784.791 640.694C784.492 640.091 784.342 639.345 784.342 638.456V631.604H786.439V638.204C786.439 638.938 786.643 639.523 787.05 639.957C787.456 640.392 787.985 640.61 788.635 640.61C789.027 640.61 789.418 640.512 789.806 640.315C790.199 640.119 790.524 639.822 790.781 639.424C791.043 639.027 791.171 638.522 791.167 637.909Z" fill="white"/>
<path d="M801.117 631.604V633.287H795.233V631.604H801.117ZM796.811 629.023H798.908V639.214C798.908 639.621 798.969 639.927 799.09 640.133C799.212 640.334 799.369 640.472 799.56 640.547C799.757 640.617 799.969 640.652 800.199 640.652C800.367 640.652 800.514 640.64 800.64 640.617C800.767 640.593 800.865 640.575 800.935 640.561L801.314 642.293C801.192 642.34 801.019 642.387 800.795 642.433C800.57 642.485 800.29 642.513 799.953 642.517C799.401 642.527 798.887 642.429 798.41 642.223C797.933 642.017 797.547 641.699 797.253 641.269C796.958 640.839 796.811 640.299 796.811 639.649V629.023Z" fill="white"/>
<path d="M807.859 642.595C806.817 642.595 805.919 642.358 805.166 641.886C804.418 641.409 803.843 640.752 803.441 639.915C803.039 639.078 802.837 638.12 802.837 637.04C802.837 635.946 803.043 634.98 803.455 634.143C803.866 633.301 804.446 632.644 805.194 632.172C805.942 631.7 806.824 631.464 807.838 631.464C808.657 631.464 809.386 631.616 810.027 631.92C810.667 632.219 811.184 632.64 811.577 633.182C811.974 633.725 812.21 634.358 812.285 635.083H810.244C810.132 634.578 809.875 634.143 809.472 633.778C809.075 633.414 808.542 633.231 807.873 633.231C807.289 633.231 806.777 633.386 806.337 633.694C805.902 633.998 805.563 634.433 805.32 634.999C805.077 635.56 804.956 636.224 804.956 636.991C804.956 637.776 805.075 638.454 805.313 639.025C805.552 639.595 805.888 640.037 806.323 640.35C806.763 640.663 807.279 640.82 807.873 640.82C808.271 640.82 808.631 640.748 808.953 640.603C809.281 640.453 809.554 640.24 809.774 639.964C809.998 639.689 810.155 639.357 810.244 638.968H812.285C812.21 639.665 811.983 640.287 811.605 640.834C811.226 641.381 810.719 641.811 810.083 642.125C809.451 642.438 808.71 642.595 807.859 642.595Z" fill="white"/>
<path d="M819.065 642.595C818.056 642.595 817.174 642.363 816.421 641.9C815.668 641.437 815.084 640.79 814.668 639.957C814.252 639.125 814.044 638.153 814.044 637.04C814.044 635.922 814.252 634.945 814.668 634.108C815.084 633.271 815.668 632.621 816.421 632.158C817.174 631.695 818.056 631.464 819.065 631.464C820.075 631.464 820.957 631.695 821.71 632.158C822.462 632.621 823.047 633.271 823.463 634.108C823.879 634.945 824.087 635.922 824.087 637.04C824.087 638.153 823.879 639.125 823.463 639.957C823.047 640.79 822.462 641.437 821.71 641.9C820.957 642.363 820.075 642.595 819.065 642.595ZM819.073 640.834C819.727 640.834 820.27 640.661 820.7 640.315C821.13 639.969 821.448 639.509 821.654 638.933C821.864 638.358 821.969 637.725 821.969 637.033C821.969 636.345 821.864 635.714 821.654 635.139C821.448 634.559 821.13 634.094 820.7 633.743C820.27 633.393 819.727 633.217 819.073 633.217C818.413 633.217 817.866 633.393 817.431 633.743C817.001 634.094 816.681 634.559 816.47 635.139C816.265 635.714 816.162 636.345 816.162 637.033C816.162 637.725 816.265 638.358 816.47 638.933C816.681 639.509 817.001 639.969 817.431 640.315C817.866 640.661 818.413 640.834 819.073 640.834Z" fill="white"/>
<path d="M826.428 642.377V631.604H828.441V633.358H828.574C828.799 632.764 829.166 632.301 829.676 631.969C830.185 631.632 830.795 631.464 831.506 631.464C832.226 631.464 832.829 631.632 833.316 631.969C833.807 632.305 834.169 632.768 834.403 633.358H834.515C834.772 632.782 835.181 632.324 835.742 631.983C836.303 631.637 836.972 631.464 837.748 631.464C838.726 631.464 839.523 631.77 840.14 632.383C840.762 632.995 841.073 633.919 841.073 635.153V642.377H838.976V635.349C838.976 634.62 838.777 634.092 838.38 633.764C837.982 633.437 837.508 633.273 836.956 633.273C836.273 633.273 835.742 633.484 835.364 633.905C834.985 634.321 834.796 634.856 834.796 635.511V642.377H832.705V635.216C832.705 634.632 832.523 634.162 832.158 633.806C831.794 633.451 831.319 633.273 830.735 633.273C830.337 633.273 829.97 633.379 829.633 633.589C829.301 633.795 829.033 634.082 828.827 634.452C828.626 634.821 828.525 635.249 828.525 635.735V642.377H826.428Z" fill="white"/>
<path d="M848.527 642.595C847.465 642.595 846.551 642.368 845.784 641.914C845.022 641.456 844.433 640.813 844.017 639.985C843.605 639.153 843.4 638.178 843.4 637.061C843.4 635.957 843.605 634.985 844.017 634.143C844.433 633.301 845.013 632.644 845.756 632.172C846.504 631.7 847.379 631.464 848.379 631.464C848.987 631.464 849.576 631.564 850.147 631.765C850.717 631.966 851.229 632.282 851.683 632.712C852.136 633.142 852.494 633.701 852.756 634.389C853.018 635.071 853.149 635.901 853.149 636.878V637.622H844.585V636.051H851.094C851.094 635.499 850.981 635.01 850.757 634.585C850.533 634.155 850.217 633.816 849.81 633.568C849.408 633.32 848.936 633.196 848.393 633.196C847.804 633.196 847.29 633.341 846.85 633.631C846.416 633.916 846.079 634.29 845.84 634.753C845.607 635.211 845.49 635.709 845.49 636.247V637.475C845.49 638.195 845.616 638.807 845.868 639.312C846.126 639.817 846.483 640.203 846.942 640.469C847.4 640.731 847.935 640.862 848.548 640.862C848.945 640.862 849.308 640.806 849.635 640.694C849.962 640.577 850.245 640.404 850.484 640.175C850.722 639.946 850.904 639.663 851.031 639.326L853.015 639.684C852.857 640.268 852.571 640.78 852.16 641.22C851.753 641.655 851.241 641.994 850.624 642.237C850.011 642.475 849.312 642.595 848.527 642.595Z" fill="white"/>
<rect x="737.931" y="599.654" width="146.155" height="71.1025" rx="35.5512" stroke="white" stroke-width="2.9626" stroke-linecap="round" stroke-linejoin="round"/>
</g>
<g clip-path="url(#clip2_1_22796)">
<rect x="212.562" y="422.886" width="158.005" height="92.8282" rx="15.8005" fill="white"/>
<path fill-rule="evenodd" clip-rule="evenodd" d="M346.355 437.988C346.74 437.602 347.366 437.602 347.751 437.988L351.003 441.24L354.255 437.988C354.641 437.602 355.266 437.602 355.652 437.988C356.037 438.374 356.037 438.999 355.652 439.385L352.4 442.636L355.652 445.888C356.037 446.274 356.037 446.899 355.652 447.285C355.266 447.67 354.641 447.67 354.255 447.285L351.003 444.033L347.751 447.285C347.366 447.67 346.74 447.67 346.355 447.285C345.969 446.899 345.969 446.274 346.355 445.888L349.607 442.636L346.355 439.385C345.969 438.999 345.969 438.374 346.355 437.988Z" fill="white"/>
</g>
<rect x="212.562" y="422.886" width="158.005" height="92.8282" rx="15.8005" stroke="white" stroke-width="2.9626"/>
<g filter="url(#filter3_b_1_22796)">
<rect x="41.7188" y="555.215" width="146.155" height="47.4016" rx="23.7008" fill="#1F2024" fill-opacity="0.05"/>
<rect x="49.6191" y="563.116" width="31.6011" height="31.6011" rx="15.8005" fill="#48A4FF"/>
<path d="M66.4071 572.004V572.596C68.6599 573.054 70.3572 575.046 70.3572 577.435V578.015C70.3572 579.469 70.8911 580.867 71.854 581.953L72.0823 582.209C72.3416 582.502 72.4064 582.916 72.2459 583.271C72.0854 583.626 71.7336 583.854 71.3448 583.854H59.4944C59.1055 583.854 58.7528 583.626 58.5935 583.271C58.4342 582.916 58.4979 582.502 58.7563 582.209L58.9852 581.953C59.9492 580.867 60.4819 579.469 60.4819 578.015V577.435C60.4819 575.046 62.1514 573.054 64.432 572.596V572.004C64.432 571.458 64.8733 571.016 65.4196 571.016C65.9658 571.016 66.4071 571.458 66.4071 572.004ZM65.4196 586.817C64.8949 586.817 64.3919 586.61 64.0216 586.24C63.6513 585.869 63.4445 585.338 63.4445 584.842H67.3946C67.3946 585.338 67.1879 585.869 66.8175 586.24C66.4472 586.61 65.9164 586.817 65.4196 586.817Z" fill="#48A4FF"/>
<rect x="41.7188" y="555.215" width="146.155" height="47.4016" rx="23.7008" stroke="white" stroke-width="2.9626"/>
</g>
<path fill-rule="evenodd" clip-rule="evenodd" d="M671.506 333.846C671.506 315.575 686.317 300.763 704.588 300.763H733.8C734.618 300.763 735.282 301.427 735.282 302.245C735.282 303.063 734.618 303.726 733.8 303.726H704.588C687.954 303.726 674.468 317.211 674.468 333.846V606.557C674.468 623.192 687.954 636.677 704.588 636.677H733.8C734.618 636.677 735.282 637.34 735.282 638.158C735.282 638.976 734.618 639.639 733.8 639.639H704.588C686.317 639.639 671.506 624.828 671.506 606.557V333.846Z" fill="white"/>
<path fill-rule="evenodd" clip-rule="evenodd" d="M372.765 470.201C372.765 469.383 373.428 468.72 374.246 468.72L672.987 468.72C673.805 468.72 674.468 469.383 674.468 470.201C674.468 471.019 673.805 471.682 672.987 471.682L374.246 471.682C373.428 471.682 372.765 471.019 372.765 470.201Z" fill="white"/>
<path d="M735.296 300.823L725.358 294.646C724.167 293.905 722.632 294.609 722.395 295.886C722.354 296.11 722.404 296.339 722.481 296.554L724.533 302.245L722.481 307.935C722.404 308.15 722.354 308.379 722.396 308.603C722.629 309.862 724.127 310.569 725.318 309.868L735.256 304.015C736.483 303.293 736.505 301.575 735.296 300.823Z" fill="white"/>
<path d="M735.296 636.736L725.358 630.559C724.167 629.819 722.632 630.522 722.395 631.799C722.354 632.024 722.404 632.253 722.481 632.467L724.533 638.158L722.481 643.848C722.404 644.063 722.354 644.292 722.396 644.516C722.629 645.776 724.127 646.482 725.318 645.781L735.256 639.928C736.483 639.206 736.505 637.488 735.296 636.736Z" fill="white"/>
<path d="M365.393 470.201C365.393 467.474 367.603 465.263 370.33 465.263C373.057 465.263 375.268 467.474 375.268 470.201C375.268 472.928 373.057 475.139 370.33 475.139C367.603 475.139 365.393 472.928 365.393 470.201Z" fill="white" stroke="white" stroke-width="5.92521"/>
<g filter="url(#filter4_b_1_22796)">
<path d="M522.262 400.031C526.89 395.404 534.393 395.404 539.021 400.031L600.991 462.001C605.619 466.629 605.619 474.132 600.991 478.76L539.021 540.73C534.393 545.358 526.89 545.358 522.262 540.73L460.292 478.76C455.664 474.132 455.664 466.629 460.292 462.001L522.262 400.031Z" fill="#1F2024" fill-opacity="0.05"/>
<path fill-rule="evenodd" clip-rule="evenodd" d="M521.214 398.984C526.421 393.778 534.862 393.778 540.068 398.984L602.038 460.954C607.245 466.16 607.245 474.601 602.038 479.808L540.068 541.777C534.862 546.984 526.421 546.984 521.214 541.777L459.245 479.808C454.038 474.601 454.038 466.16 459.245 460.954L521.214 398.984ZM537.973 401.079C533.924 397.029 527.359 397.029 523.309 401.079L461.339 463.049C457.29 467.098 457.29 473.663 461.339 477.713L523.309 539.683C527.359 543.732 533.924 543.732 537.973 539.683L599.943 477.713C603.993 473.663 603.993 467.098 599.943 463.049L537.973 401.079Z" fill="white"/>
</g>
<rect x="633.252" y="349.889" width="114.554" height="47.4016" rx="23.7008" fill="white"/>
<rect x="633.252" y="349.889" width="114.554" height="47.4016" rx="23.7008" stroke="white" stroke-width="2.9626" stroke-linecap="round" stroke-linejoin="round"/>
<rect x="633.252" y="543.113" width="114.554" height="47.4016" rx="23.7008" fill="white"/>
<rect x="633.252" y="543.113" width="114.554" height="47.4016" rx="23.7008" stroke="white" stroke-width="2.9626" stroke-linecap="round" stroke-linejoin="round"/>
<path fill-rule="evenodd" clip-rule="evenodd" d="M294.162 517.365C293.243 517.365 292.498 518.11 292.498 519.029L292.498 682.083C292.498 702.606 309.135 719.243 329.658 719.243L416.938 719.243C417.857 719.243 418.602 718.498 418.602 717.579C418.602 716.66 417.857 715.915 416.938 715.915L329.658 715.915C310.973 715.915 295.826 700.768 295.826 682.083L295.826 519.029C295.826 518.11 295.081 517.365 294.162 517.365Z" fill="white"/>
<path d="M419.453 719.176L408.29 726.115C406.953 726.946 405.229 726.156 404.963 724.721C404.916 724.469 404.972 724.212 405.059 723.971L407.364 717.579L405.059 711.187C404.972 710.946 404.916 710.689 404.963 710.437C405.226 709.022 406.908 708.228 408.245 709.016L419.408 715.59C420.787 716.402 420.811 718.332 419.453 719.176Z" fill="white"/>
<path d="M294.164 510.224C291.101 510.224 288.618 512.708 288.618 515.771C288.618 518.834 291.101 521.317 294.164 521.317C297.227 521.317 299.71 518.834 299.71 515.771C299.71 512.708 297.227 510.224 294.164 510.224Z" fill="white" stroke="white" stroke-width="6.65556"/>
<path fill-rule="evenodd" clip-rule="evenodd" d="M538.785 -14.5161C537.866 -14.5161 537.121 -13.7712 537.121 -12.8522L537.121 -8.31989C537.121 -7.40095 537.866 -6.656 538.785 -6.656C539.704 -6.656 540.449 -7.40095 540.449 -8.31989L540.449 -12.8522C540.449 -13.7712 539.704 -14.5161 538.785 -14.5161ZM538.785 -0.919104C537.866 -0.919104 537.121 -0.174155 537.121 0.744785L537.121 9.80946C537.121 10.7284 537.866 11.4733 538.785 11.4733C539.704 11.4733 540.449 10.7284 540.449 9.80946L540.449 0.744785C540.449 -0.174155 539.704 -0.919104 538.785 -0.919104ZM538.785 17.2102C537.866 17.2102 537.121 17.9552 537.121 18.8741L537.121 27.9388C537.121 28.8577 537.866 29.6027 538.785 29.6027C539.704 29.6027 540.449 28.8577 540.449 27.9388L540.449 18.8741C540.449 17.9552 539.704 17.2102 538.785 17.2102ZM538.785 35.3396C537.866 35.3396 537.121 36.0845 537.121 37.0035L537.121 46.0682C537.121 46.9871 537.866 47.732 538.785 47.732C539.704 47.732 540.449 46.9871 540.449 46.0682L540.449 37.0035C540.449 36.0845 539.704 35.3396 538.785 35.3396ZM538.785 53.4689C537.866 53.4689 537.121 54.2139 537.121 55.1328L537.121 64.1975C537.121 65.1164 537.866 65.8614 538.785 65.8614C539.704 65.8614 540.449 65.1164 540.449 64.1975L540.449 55.1328C540.449 54.2139 539.704 53.4689 538.785 53.4689ZM538.785 71.5983C537.866 71.5983 537.121 72.3432 537.121 73.2622L537.121 82.3269C537.121 83.2458 537.866 83.9907 538.785 83.9907C539.704 83.9907 540.449 83.2458 540.449 82.3269L540.449 73.2622C540.449 72.3432 539.704 71.5983 538.785 71.5983ZM538.785 89.7276C537.866 89.7276 537.121 90.4726 537.121 91.3915L537.121 100.456C537.121 101.375 537.866 102.12 538.785 102.12C539.704 102.12 540.449 101.375 540.449 100.456L540.449 91.3915C540.449 90.4726 539.704 89.7276 538.785 89.7276ZM538.785 107.857C537.866 107.857 537.121 108.602 537.121 109.521L537.121 118.586C537.121 119.505 537.866 120.249 538.785 120.249C539.704 120.249 540.449 119.505 540.449 118.586L540.449 109.521C540.449 108.602 539.704 107.857 538.785 107.857ZM538.785 125.986C537.866 125.986 537.121 126.731 537.121 127.65L537.121 136.715C537.121 137.634 537.866 138.379 538.785 138.379C539.704 138.379 540.449 137.634 540.449 136.715L540.449 127.65C540.449 126.731 539.704 125.986 538.785 125.986ZM538.785 144.116C537.866 144.116 537.121 144.861 537.121 145.78L537.121 150.312C537.121 151.955 537.228 153.575 537.435 155.163C537.554 156.074 538.389 156.717 539.3 156.598C540.211 156.479 540.854 155.644 540.735 154.733C540.546 153.287 540.449 151.811 540.449 150.312L540.449 145.78C540.449 144.861 539.704 144.116 538.785 144.116ZM540.841 162.362C539.992 162.714 539.589 163.688 539.941 164.537C541.195 167.559 542.835 170.379 544.799 172.935C545.359 173.664 546.404 173.801 547.132 173.241C547.861 172.681 547.998 171.636 547.438 170.908C545.648 168.579 544.156 166.012 543.015 163.262C542.663 162.413 541.69 162.01 540.841 162.362ZM551.352 177.461C550.792 178.189 550.929 179.234 551.658 179.794C554.214 181.759 557.034 183.399 560.056 184.652C560.905 185.004 561.879 184.601 562.231 183.752C562.583 182.903 562.18 181.93 561.331 181.578C558.581 180.438 556.014 178.945 553.686 177.155C552.957 176.595 551.912 176.732 551.352 177.461ZM567.995 185.293C567.876 186.204 568.519 187.039 569.43 187.158C571.018 187.365 572.638 187.472 574.281 187.472L578.514 187.472C579.433 187.472 580.178 186.727 580.178 185.808C580.178 184.889 579.433 184.144 578.514 184.144L574.281 184.144C572.782 184.144 571.307 184.047 569.86 183.858C568.949 183.739 568.114 184.382 567.995 185.293ZM585.315 185.808C585.315 186.727 586.06 187.472 586.979 187.472L595.444 187.472C596.363 187.472 597.108 186.727 597.108 185.808C597.108 184.889 596.363 184.144 595.444 184.144L586.979 184.144C586.06 184.144 585.315 184.889 585.315 185.808ZM602.246 185.808C602.246 186.727 602.991 187.472 603.91 187.472L612.375 187.472C613.294 187.472 614.039 186.727 614.039 185.808C614.039 184.889 613.294 184.144 612.375 184.144L603.91 184.144C602.991 184.144 602.246 184.889 602.246 185.808ZM619.176 185.808C619.176 186.727 619.921 187.472 620.84 187.472L629.305 187.472C630.224 187.472 630.969 186.727 630.969 185.808C630.969 184.889 630.224 184.144 629.305 184.144L620.84 184.144C619.921 184.144 619.176 184.889 619.176 185.808ZM636.107 185.808C636.107 186.727 636.852 187.472 637.771 187.472L646.236 187.472C647.155 187.472 647.9 186.727 647.9 185.808C647.9 184.889 647.155 184.144 646.236 184.144L637.771 184.144C636.852 184.144 636.107 184.889 636.107 185.808ZM653.037 185.808C653.037 186.727 653.782 187.472 654.701 187.472L663.167 187.472C664.086 187.472 664.83 186.727 664.83 185.808C664.83 184.889 664.086 184.144 663.167 184.144L654.701 184.144C653.782 184.144 653.037 184.889 653.037 185.808ZM669.968 185.808C669.968 186.727 670.713 187.472 671.632 187.472L680.097 187.472C681.016 187.472 681.761 186.727 681.761 185.808C681.761 184.889 681.016 184.144 680.097 184.144L671.632 184.144C670.713 184.144 669.968 184.889 669.968 185.808ZM686.898 185.808C686.898 186.727 687.643 187.472 688.562 187.472L697.028 187.472C697.947 187.472 698.692 186.727 698.692 185.808C698.692 184.889 697.947 184.144 697.028 184.144L688.562 184.144C687.643 184.144 686.898 184.889 686.898 185.808ZM703.829 185.808C703.829 186.727 704.574 187.472 705.493 187.472L713.958 187.472C714.877 187.472 715.622 186.727 715.622 185.808C715.622 184.889 714.877 184.144 713.958 184.144L705.493 184.144C704.574 184.144 703.829 184.889 703.829 185.808ZM720.76 185.808C720.76 186.727 721.504 187.472 722.423 187.472L730.889 187.472C731.808 187.472 732.553 186.727 732.553 185.808C732.553 184.889 731.808 184.144 730.889 184.144L722.423 184.144C721.504 184.144 720.76 184.889 720.76 185.808ZM737.69 185.808C737.69 186.727 738.435 187.472 739.354 187.472L743.587 187.472C744.506 187.472 745.25 186.727 745.25 185.808C745.25 184.889 744.506 184.144 743.587 184.144L739.354 184.144C738.435 184.144 737.69 184.889 737.69 185.808Z" fill="white"/>
<path d="M746.252 187.405L735.089 194.344C733.752 195.175 732.028 194.385 731.762 192.951C731.715 192.698 731.771 192.441 731.858 192.2L734.162 185.808L731.858 179.416C731.771 179.175 731.715 178.918 731.762 178.666C732.024 177.251 733.707 176.458 735.044 177.245L746.207 183.819C747.586 184.631 747.61 186.561 746.252 187.405Z" fill="white"/>
<g filter="url(#filter5_b_1_22796)">
<rect x="422.409" y="677.96" width="219.385" height="79.3124" rx="16.4555" fill="#1F2024" fill-opacity="0.05"/>
<rect x="422.409" y="677.96" width="219.385" height="79.3124" rx="16.4555" stroke="white" stroke-width="3.08542" stroke-linecap="round" stroke-linejoin="round"/>
</g>
<path fill-rule="evenodd" clip-rule="evenodd" d="M530.749 674.353C529.898 674.353 529.208 673.663 529.208 672.811L529.208 668.919C529.208 668.068 529.898 667.378 530.749 667.378C531.6 667.378 532.29 668.068 532.29 668.919L532.29 672.811C532.29 673.663 531.6 674.353 530.749 674.353ZM530.749 662.675C529.898 662.675 529.208 661.985 529.208 661.134L529.208 653.349C529.208 652.497 529.898 651.807 530.749 651.807C531.6 651.807 532.29 652.497 532.29 653.349L532.29 661.134C532.29 661.985 531.6 662.675 530.749 662.675ZM530.749 647.105C529.898 647.105 529.208 646.415 529.208 645.563L529.208 637.778C529.208 636.927 529.898 636.237 530.749 636.237C531.6 636.237 532.29 636.927 532.29 637.778L532.29 645.563C532.29 646.415 531.6 647.105 530.749 647.105ZM530.749 631.534C529.898 631.534 529.208 630.844 529.208 629.993L529.208 622.208C529.208 621.357 529.898 620.667 530.749 620.667C531.6 620.667 532.29 621.357 532.29 622.208L532.29 629.993C532.29 630.844 531.6 631.534 530.749 631.534ZM530.749 615.964C529.898 615.964 529.208 615.274 529.208 614.423L529.208 606.638C529.208 605.787 529.898 605.097 530.749 605.097C531.6 605.097 532.29 605.787 532.29 606.638L532.29 614.423C532.29 615.274 531.6 615.964 530.749 615.964ZM530.749 600.394C529.898 600.394 529.208 599.704 529.208 598.853L529.208 591.067C529.208 590.216 529.898 589.526 530.749 589.526C531.6 589.526 532.29 590.216 532.29 591.067L532.29 598.853C532.29 599.704 531.6 600.394 530.749 600.394ZM530.749 584.823C529.898 584.823 529.208 584.133 529.208 583.282L529.208 575.497C529.208 574.646 529.898 573.956 530.749 573.956C531.6 573.956 532.29 574.646 532.29 575.497L532.29 583.282C532.29 584.133 531.6 584.823 530.749 584.823ZM530.749 569.253C529.898 569.253 529.208 568.563 529.208 567.712L529.208 559.927C529.208 559.076 529.898 558.386 530.749 558.386C531.6 558.386 532.29 559.076 532.29 559.927L532.29 567.712C532.29 568.563 531.6 569.253 530.749 569.253ZM530.749 553.683C529.898 553.683 529.208 552.993 529.208 552.142L529.208 548.249C529.208 547.398 529.898 546.708 530.749 546.708C531.6 546.708 532.29 547.398 532.29 548.249L532.29 552.142C532.29 552.993 531.6 553.683 530.749 553.683Z" fill="white"/>
<path d="M529.271 544.042L522.844 554.382C522.074 555.621 522.805 557.218 524.134 557.464C524.368 557.507 524.606 557.455 524.83 557.375L530.75 555.24L536.67 557.375C536.893 557.455 537.131 557.507 537.365 557.464C538.675 557.221 539.41 555.662 538.681 554.423L532.592 544.084C531.84 542.807 530.053 542.785 529.271 544.042Z" fill="white"/>
<path d="M530.749 683.005C527.912 683.005 525.612 680.705 525.612 677.868C525.612 675.031 527.912 672.731 530.749 672.731C533.587 672.731 535.887 675.031 535.887 677.868C535.887 680.705 533.587 683.005 530.749 683.005Z" fill="white" stroke="white" stroke-width="6.16448"/>
<g filter="url(#filter6_b_1_22796)">
<rect x="79.9463" y="183.68" width="281.063" height="166.764" rx="14.99" fill="white" fill-opacity="0.7"/>
<path d="M177.682 217.408C177.682 211.198 182.715 206.165 188.924 206.165H252.031C258.24 206.165 263.274 211.198 263.274 217.408C263.274 223.617 258.24 228.65 252.031 228.65H188.924C182.715 228.65 177.682 223.617 177.682 217.408Z" fill="white"/>
<path d="M132.896 245.514C132.896 242.409 135.412 239.892 138.517 239.892H302.439C305.544 239.892 308.061 242.409 308.061 245.514C308.061 248.618 305.544 251.135 302.439 251.135H138.517C135.412 251.135 132.896 248.618 132.896 245.514Z" fill="#E9E9E9"/>
<path d="M165.739 266.125C165.739 263.02 168.256 260.504 171.361 260.504H269.596C272.701 260.504 275.217 263.02 275.217 266.125C275.217 269.229 272.701 271.746 269.596 271.746H171.361C168.256 271.746 165.739 269.229 165.739 266.125Z" fill="#E9E9E9"/>
<rect x="94.9365" y="297.979" width="121.794" height="37.475" rx="11.2425" fill="#E9E9E9"/>
<rect x="224.226" y="297.979" width="121.794" height="37.475" rx="11.2425" fill="#48A4FF"/>
</g>
<path fill-rule="evenodd" clip-rule="evenodd" d="M290.361 214.156C290.361 213.512 290.883 212.99 291.527 212.99L428.743 212.99C429.387 212.99 429.909 213.512 429.909 214.156C429.909 214.799 429.387 215.321 428.743 215.321L291.527 215.321C290.883 215.321 290.361 214.799 290.361 214.156Z" fill="white"/>
<path d="M287.641 214.156C287.641 212.009 289.381 210.27 291.527 210.27C293.674 210.27 295.413 212.009 295.413 214.156C295.413 216.302 293.674 218.042 291.527 218.042C289.381 218.042 287.641 216.302 287.641 214.156Z" fill="white" stroke="white" stroke-width="4.66327"/>
<rect x="398.742" y="195.502" width="37.3062" height="37.3062" rx="18.6531" fill="white"/>
<g filter="url(#filter7_b_1_22796)">
<rect x="434.579" y="287.401" width="222.221" height="85.2652" rx="11.1111" fill="white" fill-opacity="0.7"/>
<rect x="416.483" y="309.623" width="33.3332" height="33.3332" rx="16.6666" fill="#00BB8E"/>
<path fill-rule="evenodd" clip-rule="evenodd" d="M441.37 320.705C441.92 321.277 441.902 322.186 441.33 322.736L431.366 332.315L424.97 326.167C424.398 325.617 424.38 324.708 424.93 324.136C425.48 323.564 426.39 323.546 426.962 324.095L431.366 328.329L439.339 320.665C439.911 320.115 440.821 320.133 441.37 320.705Z" fill="#00BB8E"/>
<path fill-rule="evenodd" clip-rule="evenodd" d="M440.765 321.14C441.274 321.668 441.258 322.506 440.728 323.014L431.497 331.845L425.573 326.177C425.043 325.67 425.026 324.831 425.535 324.304C426.045 323.776 426.887 323.76 427.417 324.267L431.497 328.17L438.883 321.103C439.413 320.596 440.255 320.613 440.765 321.14Z" fill="white"/>
<path d="M467.912 318.857C467.912 313.757 472.046 309.623 477.146 309.623H528.977C534.077 309.623 538.211 313.757 538.211 318.857V318.857C538.211 323.956 534.077 328.09 528.977 328.09H477.146C472.046 328.09 467.912 323.956 467.912 318.857V318.857Z" fill="white"/>
<path d="M467.912 344.822C467.912 341.718 470.429 339.201 473.533 339.201H607.626C610.73 339.201 613.247 341.718 613.247 344.822V344.822C613.247 347.927 610.73 350.444 607.626 350.444H473.533C470.429 350.444 467.912 347.927 467.912 344.822V344.822Z" fill="#E9E9E9"/>
</g>
<g filter="url(#filter8_b_1_22796)">
<rect x="212.264" y="751.693" width="179.024" height="85.2652" rx="11.1111" fill="white" fill-opacity="0.7"/>
<rect x="194.168" y="773.915" width="33.3332" height="33.3332" rx="11.1111" fill="#48A4FF"/>
<path d="M218.629 788.228L213.633 787.502L211.399 782.974C211.338 782.85 211.238 782.75 211.114 782.689C210.803 782.535 210.425 782.663 210.27 782.974L208.036 787.502L203.04 788.228C202.902 788.248 202.776 788.313 202.68 788.411C202.563 788.531 202.499 788.692 202.501 788.86C202.503 789.027 202.572 789.186 202.691 789.303L206.306 792.827L205.452 797.804C205.432 797.92 205.445 798.039 205.489 798.148C205.533 798.256 205.607 798.351 205.702 798.42C205.797 798.489 205.91 798.53 206.027 798.538C206.144 798.547 206.261 798.522 206.365 798.467L210.834 796.117L215.303 798.467C215.425 798.532 215.567 798.554 215.703 798.53C216.045 798.471 216.275 798.146 216.216 797.804L215.362 792.827L218.977 789.303C219.076 789.206 219.141 789.08 219.16 788.943C219.213 788.598 218.973 788.28 218.629 788.228V788.228Z" fill="white"/>
<path d="M245.597 783.149C245.597 778.05 249.731 773.916 254.83 773.916H306.662C311.761 773.916 315.895 778.05 315.895 783.149V783.149C315.895 788.249 311.761 792.383 306.662 792.383H254.83C249.731 792.383 245.597 788.249 245.597 783.149V783.149Z" fill="white"/>
<path d="M245.597 809.115C245.597 806.011 248.113 803.494 251.218 803.494H346.928C350.032 803.494 352.549 806.011 352.549 809.115V809.115C352.549 812.22 350.032 814.736 346.928 814.736H251.218C248.113 814.736 245.597 812.22 245.597 809.115V809.115Z" fill="#E9E9E9"/>
</g>
<g filter="url(#filter9_d_1_22796)">
<rect x="593.596" y="717.911" width="68.0318" height="68.0318" rx="22.6773" transform="rotate(7.6446 593.596 717.911)" fill="#48A4FF"/>
<path d="M617.296 739.913C612.163 739.225 607.417 742.786 606.729 747.912C606.471 749.834 606.439 753.009 608.076 756.997C609.708 760.973 612.956 765.652 619.095 770.663L619.101 770.668C619.573 771.05 620.14 771.294 620.74 771.374C621.341 771.455 621.953 771.369 622.508 771.126L622.516 771.122C629.758 767.907 634.125 764.25 636.748 760.845C639.379 757.43 640.185 754.359 640.443 752.437C641.131 747.311 637.491 742.624 632.359 741.935C629.655 741.572 627.174 742.712 625.531 743.739C625.09 744.014 624.691 744.294 624.34 744.557C624.071 744.211 623.759 743.836 623.407 743.454C622.093 742.03 620 740.276 617.296 739.913Z" fill="white"/>
</g>
<g filter="url(#filter10_d_1_22796)">
<rect x="37.4941" y="138.095" width="75.5154" height="75.5154" rx="22.6773" fill="white" shape-rendering="crispEdges"/>
<path fill-rule="evenodd" clip-rule="evenodd" d="M65.0875 165.229C65.0875 161.216 68.3414 157.962 72.3552 157.962C76.369 157.962 79.6229 161.216 79.6229 165.229C79.6229 167.096 78.9194 168.798 77.7632 170.085V173.443C80.429 171.684 82.1879 168.662 82.1879 165.229C82.1879 159.799 77.7857 155.397 72.3552 155.397C66.9247 155.397 62.5225 159.799 62.5225 165.229C62.5225 168.662 64.2814 171.684 66.9472 173.443V170.085C65.791 168.798 65.0875 167.096 65.0875 165.229Z" fill="white" fill-opacity="0.7"/>
<path d="M88.0124 177.19L75.9497 175.848V165.818C75.9497 164.932 75.5977 164.081 74.9711 163.454C74.3446 162.827 73.4948 162.475 72.6087 162.475C71.7226 162.475 70.8728 162.827 70.2462 163.454C69.6197 164.081 69.2677 164.932 69.2677 165.818V185.877L64.2043 183.851C63.7816 183.682 63.3288 183.601 62.8736 183.613C62.4185 183.626 61.9707 183.731 61.5577 183.923C61.1447 184.114 60.7753 184.389 60.472 184.728C60.1687 185.068 59.9381 185.467 59.7942 185.899L59.6054 186.467C59.499 186.786 59.4913 187.13 59.5834 187.453C59.6755 187.776 59.8631 188.064 60.1216 188.279L68.8033 195.52C69.1023 195.769 69.4815 195.906 69.8724 195.906H87.6433C88.5294 195.906 89.3791 195.554 90.0057 194.927C90.6323 194.3 90.9843 193.45 90.9843 192.563V180.511C90.984 179.689 90.6807 178.895 90.1324 178.283C89.5841 177.67 88.8294 177.281 88.0124 177.19Z" fill="white"/>
</g>
<path d="M1250.31 392.626C1250.31 397.804 1246.21 401.72 1240.84 401.72H1233.52V383.532H1240.91C1246.27 383.532 1250.31 387.448 1250.31 392.626ZM1248.23 392.689C1248.23 388.584 1245.01 385.49 1240.91 385.49H1235.66V399.888H1240.97C1245.01 399.825 1248.23 396.794 1248.23 392.689Z" fill="white"/>
<path d="M1260.48 395.467V401.783H1258.4V395.531L1251.33 383.595H1253.47L1259.41 393.194L1265.22 383.595H1267.37L1260.48 395.467Z" fill="white"/>
<path d="M1272.42 383.532L1283.34 398.373V383.532H1285.43V401.783H1283.34L1272.35 386.942V401.72H1270.27V383.532H1272.42Z" fill="white"/>
<path d="M1302.54 397.11H1292.63L1290.6 401.783H1288.39L1296.6 383.532H1298.75L1306.9 401.783H1304.62L1302.54 397.11ZM1301.72 395.152L1297.55 385.742L1293.45 395.152H1301.72Z" fill="white"/>
<path d="M1312.33 383.532L1319.02 396.794L1325.65 383.532H1328.18V401.783H1326.28V386.627L1319.65 399.888H1318.39L1311.76 386.627V401.783H1309.8V383.532H1312.33Z" fill="white"/>
<path d="M1335.82 383.532V401.783H1333.74V383.532H1335.82Z" fill="white"/>
<path d="M1349.15 385.364C1345.04 385.364 1341.69 388.584 1341.69 392.626C1341.69 396.667 1344.98 399.888 1349.15 399.888C1351.17 399.888 1353.12 399.067 1354.51 397.678L1355.78 399.067C1354.01 400.772 1351.54 401.846 1349.02 401.846C1343.78 401.846 1339.61 397.804 1339.61 392.626C1339.61 387.511 1343.84 383.469 1349.15 383.469C1351.67 383.469 1354.07 384.479 1355.84 386.121L1354.58 387.637C1353.19 386.248 1351.17 385.364 1349.15 385.364Z" fill="white"/>
<path d="M1364.87 385.49C1362.53 385.49 1360.95 386.437 1360.95 388.016C1360.95 392.752 1371.25 390.289 1371.18 396.92C1371.18 399.951 1368.47 401.909 1364.62 401.909C1361.96 401.909 1359.38 400.772 1357.61 399.13L1358.55 397.362C1360.26 399.004 1362.6 399.888 1364.62 399.888C1367.27 399.888 1368.91 398.815 1368.91 397.046C1368.91 392.184 1358.68 394.773 1358.68 388.205C1358.68 385.364 1361.21 383.532 1365 383.532C1367.08 383.532 1369.29 384.227 1370.81 385.237L1369.92 387.069C1368.28 385.932 1366.32 385.49 1364.87 385.49Z" fill="white"/>
<path d="M1239.07 350.252V367.618H1248.55V372.607H1233.26V350.252H1239.07Z" fill="white"/>
<path d="M1266.17 368.629H1256.5L1254.93 372.607H1248.93L1258.52 350.252H1264.52L1273.87 372.607H1267.68L1266.17 368.629ZM1264.46 364.208L1261.43 356.251L1258.27 364.208H1264.46Z" fill="white"/>
<path d="M1284.04 354.736C1282.65 354.736 1281.7 355.241 1281.7 356.251C1281.7 359.977 1293.45 357.83 1293.45 365.85C1293.45 370.397 1289.4 372.733 1284.48 372.733C1280.75 372.733 1276.84 371.344 1274.19 369.134L1276.46 364.587C1278.73 366.545 1282.21 367.934 1284.54 367.934C1286.25 367.934 1287.32 367.303 1287.32 366.103C1287.32 362.314 1275.57 364.587 1275.57 356.693C1275.57 352.525 1279.11 349.873 1284.48 349.873C1287.76 349.873 1291.05 350.883 1293.38 352.399L1291.17 357.009C1288.84 355.809 1285.87 354.736 1284.04 354.736Z" fill="white"/>
<path d="M1313.59 350.252V355.051H1306.9V372.544H1301.09V355.051H1294.46V350.252H1313.59Z" fill="white"/>
<path d="M1321.8 350.252V372.607H1315.99V350.252H1321.8Z" fill="white"/>
<path d="M1331.27 350.252L1341.38 363.703V350.252H1346.81V372.607H1341.69L1331.59 359.219V372.607H1326.16V350.252H1331.27Z" fill="white"/>
<path d="M1365.94 361.177H1371V369.955C1368.6 371.597 1364.81 372.797 1361.71 372.797C1354.89 372.797 1349.78 367.871 1349.78 361.366C1349.78 354.862 1355.02 349.999 1362.09 349.999C1365.44 349.999 1368.98 351.262 1371.25 353.283L1367.96 357.388C1366.39 355.872 1364.11 354.925 1362.09 354.925C1358.49 354.925 1355.78 357.704 1355.78 361.303C1355.78 364.966 1358.49 367.745 1362.15 367.745C1363.29 367.745 1364.68 367.366 1366.01 366.671V361.177H1365.94Z" fill="white"/>
<path d="M1215.71 371.155C1215.58 370.081 1215.2 369.008 1214.82 367.997C1214.76 367.871 1214.76 367.808 1214.7 367.681C1214.51 367.113 1214.26 366.545 1214.07 366.039C1213.81 365.408 1213.5 364.776 1213.25 364.082C1212.93 363.387 1212.61 362.756 1212.3 362.124C1211.98 361.493 1211.67 360.924 1211.29 360.356C1211.1 360.04 1210.91 359.724 1210.66 359.472C1210.4 359.156 1210.15 358.903 1209.9 358.651C1209.84 358.588 1209.77 358.461 1209.71 358.398C1209.58 358.209 1209.46 357.956 1209.27 357.767C1208.95 357.388 1208.64 356.946 1208.32 356.567C1207.75 355.872 1207.06 355.304 1206.36 354.736C1205.35 353.915 1204.28 353.22 1203.14 352.525C1202.01 351.767 1200.81 351.136 1199.73 350.378C1198.78 349.747 1197.84 349.178 1196.83 348.673C1195.82 348.168 1194.87 347.536 1193.86 347.031C1192.72 346.463 1191.59 346.021 1190.45 345.516C1188.93 344.884 1187.35 344.505 1185.78 344.316C1184.39 344.126 1182.93 344 1181.48 344C1180.6 344 1179.65 344 1178.77 344C1177.82 344 1176.81 344.063 1175.86 344.126C1174.72 344.253 1173.59 344.379 1172.45 344.568C1171.25 344.758 1170.11 344.884 1168.91 345.137C1167.97 345.326 1167.08 345.516 1166.14 345.705C1165.76 345.768 1165.38 345.705 1165 345.768C1164.37 345.895 1163.8 346.021 1163.23 346.273C1160.07 347.6 1157.17 349.305 1154.39 351.325C1152.87 352.399 1151.93 353.915 1151.61 355.746C1151.42 357.009 1150.79 358.083 1149.91 358.967C1149.21 359.598 1148.52 360.23 1147.89 360.924C1146.5 362.44 1145.11 364.019 1143.72 365.597C1143.4 365.976 1143.21 365.976 1142.9 365.661C1140.75 363.829 1138.6 361.935 1136.45 360.103C1136.39 360.04 1136.33 359.977 1136.2 359.914C1136.14 359.977 1136.14 360.04 1136.08 360.103C1135.7 359.724 1135.38 359.282 1135 358.967C1133.11 357.262 1131.21 355.62 1129.32 353.915C1128.25 352.967 1127.11 352.02 1125.97 351.262C1124.84 350.378 1123.57 349.684 1122.37 348.989C1120.92 348.105 1119.34 347.536 1117.83 346.905C1115.8 346.084 1113.66 345.326 1111.51 345.01C1109.81 344.695 1108.04 344.568 1106.33 344.379C1105.2 344.253 1104.06 344.316 1102.92 344.379C1102.42 344.442 1101.91 344.568 1101.41 344.568C1100.14 344.632 1098.94 344.821 1097.74 345.2C1097.11 345.326 1096.42 345.389 1095.72 345.263C1094.27 345.01 1092.88 344.758 1091.37 344.947C1090.42 345.074 1089.47 345.2 1088.65 345.579C1088.46 345.642 1088.27 345.705 1088.08 345.768C1086.63 346.084 1085.3 346.652 1084.04 347.473C1083.6 347.726 1083.22 348.042 1083.03 348.484C1083.03 348.547 1082.97 348.673 1083.03 348.673C1083.09 348.736 1083.16 348.736 1083.28 348.736C1083.35 348.736 1083.41 348.673 1083.47 348.61C1083.6 348.547 1083.72 348.421 1083.91 348.547C1083.91 348.547 1083.98 348.547 1084.04 348.547C1084.55 348.421 1085.05 348.231 1085.62 348.105C1086.06 347.978 1086.5 347.852 1086.95 347.726V347.789C1086.88 347.852 1086.82 347.978 1086.76 348.042C1086.06 348.736 1085.37 349.494 1084.86 350.315C1084.55 350.82 1084.23 351.199 1083.72 351.452C1081.96 352.588 1080.25 353.725 1078.67 355.178C1078.23 355.557 1077.85 355.935 1077.41 356.314C1077.35 356.377 1077.28 356.441 1077.16 356.441C1076.71 356.504 1076.46 356.756 1076.15 357.072C1075.7 357.451 1075.33 357.893 1074.88 358.272C1073.75 359.346 1072.8 360.545 1072.1 361.872C1071.47 363.008 1070.9 364.145 1070.34 365.345C1069.83 366.355 1069.39 367.302 1068.88 368.313C1068.76 368.629 1068.69 369.008 1068.63 369.323C1068.57 369.892 1068.32 370.397 1068.19 370.902C1068.06 371.344 1068 371.723 1068 372.165C1068 373.365 1068.38 374.502 1068.76 375.638C1069.01 376.333 1069.33 376.964 1069.89 377.533C1070.34 378.038 1070.72 378.543 1070.9 379.238C1071.16 380.311 1071.47 381.322 1071.79 382.395C1072.42 384.669 1073.3 386.816 1074.32 388.963C1075.33 391.047 1076.65 392.878 1078.23 394.52C1079.05 395.404 1080 396.162 1080.95 396.983C1081.32 397.299 1081.64 397.678 1082.02 397.93C1082.9 398.499 1083.72 399.13 1084.67 399.635C1085.75 400.204 1086.82 400.772 1087.89 401.277C1089.91 402.161 1092 403.046 1094.02 403.867C1094.65 404.119 1095.28 404.309 1095.91 404.624C1096.23 404.751 1096.48 405.003 1096.73 405.193C1097.36 405.508 1097.93 405.824 1098.56 406.077C1099.89 406.519 1101.22 407.214 1102.61 407.466C1103.24 407.592 1103.93 407.656 1104.63 407.592C1106.02 407.466 1107.41 407.024 1108.67 406.519C1109.24 406.266 1109.81 406.014 1110.44 405.887C1112.27 405.508 1114.04 404.94 1115.74 404.245C1117.7 403.488 1119.66 402.604 1121.49 401.593C1122.81 400.835 1124.14 400.204 1125.34 399.193C1129.07 396.099 1132.67 392.815 1136.14 389.405C1137.91 387.7 1139.68 385.932 1141.44 384.227C1141.44 384.227 1141.51 384.164 1141.57 384.164C1141.89 384.164 1142.2 384.1 1142.39 384.353C1142.52 384.479 1142.64 384.543 1142.83 384.669C1145.99 387.132 1149.15 389.595 1152.31 391.994C1154.14 393.384 1155.91 394.899 1157.48 396.667C1158.68 397.994 1160.01 399.193 1161.53 400.141C1162.16 400.52 1162.73 400.962 1163.42 401.341C1164.49 401.972 1165.57 402.54 1166.64 403.109C1167.15 403.361 1167.71 403.551 1168.22 403.803C1169.99 404.751 1171.82 405.572 1173.78 406.14C1174.28 406.266 1174.79 406.456 1175.29 406.582V406.519C1174.03 406.077 1172.7 405.572 1171.44 405.13C1171.44 405.13 1171.44 405.066 1171.44 405.003C1171.88 405.13 1172.26 405.256 1172.7 405.445C1172.64 405.382 1172.51 405.319 1172.39 405.256C1171.5 404.94 1170.62 404.624 1169.74 404.245C1168.54 403.74 1167.4 403.172 1166.26 402.54C1164.87 401.719 1163.48 400.898 1162.09 400.014C1161.34 399.509 1160.64 399.004 1160.01 398.436C1158.75 397.236 1157.61 395.91 1156.41 394.647C1156.28 394.52 1156.22 394.457 1156.09 394.331C1156.22 394.331 1156.28 394.394 1156.35 394.457C1157.36 395.152 1158.43 395.783 1159.44 396.478C1161.46 397.804 1163.48 399.13 1165.5 400.456C1166.58 401.151 1167.65 401.783 1168.6 402.604C1169.55 403.424 1170.62 404.056 1171.76 404.561C1172.32 404.814 1172.96 405.13 1173.52 405.382C1174.28 405.761 1174.98 406.203 1175.73 406.582C1175.99 406.708 1176.3 406.771 1176.62 406.898C1176.62 406.898 1176.62 406.835 1176.68 406.835C1176.43 406.645 1176.18 406.456 1175.86 406.266C1175.99 406.266 1175.99 406.266 1176.05 406.266C1176.93 406.582 1177.76 406.835 1178.64 407.15C1178.7 407.15 1178.77 407.214 1178.77 407.214C1178.7 407.403 1178.89 407.403 1178.96 407.403C1179.33 407.466 1179.78 407.529 1180.16 407.656C1180.66 407.782 1181.1 407.971 1181.61 407.971C1184.01 408.034 1186.34 408.034 1188.74 407.529C1188.87 407.529 1189 407.529 1189.12 407.529C1189.44 407.529 1189.69 407.592 1190.01 407.592C1191.08 407.466 1192.15 407.277 1193.16 406.645C1194.05 406.14 1194.87 405.572 1195.56 404.814C1196.26 403.993 1196.89 403.109 1197.52 402.288C1197.77 401.972 1198.03 401.719 1198.41 401.53C1198.78 401.341 1199.16 401.151 1199.54 400.962C1199.67 400.898 1199.79 400.898 1199.92 400.835C1200.11 400.772 1200.3 400.772 1200.43 400.646C1200.99 400.267 1201.56 399.888 1202.13 399.446C1202.95 398.751 1203.84 398.12 1204.59 397.362C1205.54 396.541 1206.36 395.657 1207.25 394.773C1207.37 394.71 1207.44 394.583 1207.5 394.457C1207.69 394.268 1207.81 394.015 1208.07 393.889C1208.76 393.447 1209.46 392.942 1210.03 392.373C1211.29 391.173 1212.3 389.784 1212.74 388.079C1212.87 387.574 1212.99 387.069 1213.06 386.563C1213.18 385.742 1213.18 384.858 1213.06 384.037C1212.93 383.28 1212.8 382.522 1212.68 381.764C1212.55 381.132 1212.68 380.564 1212.74 379.996C1212.74 379.933 1212.8 379.869 1212.8 379.869C1212.87 379.933 1212.87 380.059 1212.87 380.122C1212.93 380.627 1212.99 381.132 1213.12 381.638C1213.18 381.827 1213.37 382.08 1213.5 382.206C1213.56 382.269 1213.81 382.269 1213.88 382.206C1213.94 382.206 1213.94 381.953 1213.94 381.827C1213.75 381.132 1213.62 380.438 1213.81 379.743C1213.88 379.364 1213.94 379.048 1214 378.67C1214.13 377.533 1214.38 376.396 1214.95 375.386C1215.08 375.133 1215.2 374.881 1215.27 374.628C1215.33 374.438 1215.39 374.249 1215.39 374.06C1215.71 373.112 1215.77 372.165 1215.71 371.155ZM1075.39 360.482C1075.26 360.735 1075.07 360.987 1075.01 361.24C1074.44 362.44 1073.94 363.577 1073.43 364.776C1072.99 365.787 1072.55 366.797 1072.29 367.934C1071.79 370.207 1071.35 372.607 1070.84 374.944C1070.84 375.007 1070.84 375.07 1070.78 375.196H1070.72C1070.59 374.817 1070.46 374.438 1070.34 374.123C1070.27 373.996 1070.27 373.87 1070.21 373.744C1070.21 373.681 1070.15 373.554 1070.08 373.554C1069.45 373.365 1069.58 372.86 1069.45 372.418C1069.01 370.334 1069.45 368.439 1070.4 366.608C1071.41 364.587 1072.74 362.819 1074.32 361.24C1074.57 360.987 1074.88 360.735 1075.2 360.419C1075.26 360.356 1075.33 360.293 1075.33 360.23C1075.33 360.166 1075.33 360.166 1075.33 360.103C1075.58 359.851 1075.77 359.661 1076.02 359.409L1076.08 359.472C1075.83 359.724 1075.58 359.914 1075.33 360.166C1075.51 360.23 1075.45 360.356 1075.39 360.482ZM1087.96 391.742C1087.64 391.489 1087.26 391.236 1086.95 390.921C1085.24 389.405 1083.66 387.826 1082.59 385.806C1081.64 384.037 1080.82 382.206 1080.44 380.248C1080.38 380.059 1080.38 379.869 1080.44 379.68C1080.44 379.427 1080.63 379.364 1080.82 379.491C1080.88 379.491 1080.88 379.554 1080.95 379.554C1081.51 380.059 1082.15 380.564 1082.71 381.069C1082.97 381.259 1083.09 381.574 1083.28 381.827C1083.79 382.648 1084.17 383.532 1084.42 384.479C1084.8 385.932 1085.56 387.321 1086.25 388.647C1086.38 388.963 1086.5 389.279 1086.69 389.531C1087.07 390.1 1087.45 390.668 1087.83 391.3C1087.83 391.426 1087.89 391.552 1087.96 391.742C1087.96 391.679 1087.96 391.679 1087.96 391.742ZM1109.24 405.066C1107.97 405.824 1106.71 406.456 1105.26 406.771C1104.19 406.961 1103.17 406.898 1102.16 406.519C1100.78 406.014 1099.39 405.382 1098 404.814C1097.55 404.624 1097.11 404.372 1096.67 404.182V404.119C1097.74 404.245 1098.82 404.435 1099.89 404.561C1101.91 404.814 1104 404.94 1106.08 404.814C1107.03 404.751 1108.04 404.687 1108.98 404.624C1109.17 404.624 1109.36 404.687 1109.49 404.687C1109.49 404.814 1109.43 405.003 1109.24 405.066ZM1135.26 375.954C1135.19 376.08 1135.13 376.27 1135.07 376.333C1134.43 376.775 1134.06 377.343 1133.55 377.849C1130.65 381.448 1127.55 384.795 1124.14 387.953C1121.93 390.037 1119.53 391.868 1116.88 393.51C1114.48 394.962 1111.89 395.72 1109.11 396.099C1107.41 396.352 1105.7 396.415 1104.25 396.541C1102.99 396.478 1101.97 396.352 1100.9 396.289C1100.33 396.225 1099.76 396.225 1099.2 396.225C1097.68 396.162 1096.17 395.91 1094.78 395.341C1092.94 394.647 1091.24 393.699 1089.72 392.373C1089.34 392.057 1088.97 391.742 1088.71 391.363C1088.02 390.226 1087.32 389.089 1086.63 387.953C1086.06 386.942 1085.68 385.869 1085.43 384.669C1084.99 382.395 1083.98 380.438 1082.34 378.796C1081.89 378.291 1081.51 377.722 1081.14 377.091C1080.88 376.712 1080.69 376.27 1080.44 375.828C1080.12 375.259 1079.94 374.628 1079.94 373.933C1079.87 372.797 1080.06 371.66 1080.31 370.586C1080.82 368.376 1081.45 366.229 1082.27 364.145C1082.97 362.25 1084.04 360.609 1085.37 359.156C1085.81 358.651 1086.44 358.209 1087.01 357.767C1087.7 357.262 1088.4 356.756 1089.16 356.314C1089.91 355.872 1090.73 355.43 1091.62 355.241C1091.93 355.178 1092.31 355.051 1092.63 354.925C1094.52 354.23 1096.35 353.662 1098.31 353.283C1098.94 353.157 1099.64 352.967 1100.27 352.841C1101.66 352.652 1103.05 352.778 1104.44 353.031C1105.39 353.157 1106.27 353.283 1107.22 353.409C1108.16 353.599 1109.11 353.851 1110.12 354.041C1110.44 354.104 1110.75 354.23 1111.07 354.23C1112.27 354.357 1113.34 354.799 1114.35 355.367C1115.68 356.125 1116.94 357.009 1118.27 357.83C1119.03 358.335 1119.72 358.777 1120.41 359.282C1121.05 359.788 1121.61 360.356 1122.18 360.861C1123 361.619 1123.82 362.44 1124.71 363.261C1126.54 365.029 1128.31 366.797 1129.95 368.692C1130.65 369.513 1131.34 370.334 1132.03 371.155C1132.22 371.407 1132.48 371.534 1132.73 371.786C1132.92 371.912 1133.04 372.102 1133.17 372.228C1133.74 372.986 1134.24 373.681 1134.75 374.438C1135.13 374.944 1135.44 375.386 1135.26 375.954ZM1195.44 357.767C1195.56 357.83 1195.63 357.893 1195.75 357.956C1196.95 359.093 1198.22 360.23 1199.29 361.493C1199.86 362.124 1200.43 362.819 1200.93 363.513C1201.88 364.776 1202.45 366.229 1203.02 367.681C1203.2 368.123 1203.46 368.629 1203.65 369.071C1203.77 369.45 1203.9 369.765 1203.96 370.144C1203.96 370.271 1203.96 370.523 1203.84 370.586C1203.77 370.649 1203.52 370.586 1203.39 370.523C1203.02 370.271 1202.64 369.955 1202.32 369.639C1201.25 368.692 1200.55 367.555 1199.92 366.355C1199.67 365.85 1199.54 365.345 1199.35 364.84C1198.47 362.566 1197.27 360.482 1195.88 358.525C1195.63 358.272 1195.5 358.019 1195.44 357.767C1195.37 357.767 1195.37 357.83 1195.44 357.767ZM1153.32 353.788C1153.51 353.409 1153.7 353.094 1153.88 352.778C1153.88 352.778 1153.88 352.778 1153.88 352.715C1154.07 352.399 1154.26 352.146 1154.52 351.957C1154.77 351.767 1155.02 351.578 1155.27 351.389C1155.65 351.136 1155.97 350.947 1156.35 350.694C1156.66 350.504 1157.04 350.252 1157.36 350.062C1157.67 349.873 1158.05 349.684 1158.37 349.494C1158.75 349.305 1159.06 349.115 1159.44 348.989C1159.82 348.799 1160.14 348.673 1160.52 348.484C1160.7 348.421 1160.89 348.357 1161.08 348.294C1161.21 348.231 1161.27 348.231 1161.4 348.168C1161.46 348.168 1161.59 348.042 1161.65 348.042C1161.78 347.978 1161.9 347.915 1162.09 347.915H1162.22C1162.03 348.042 1161.84 348.168 1161.65 348.294C1160.39 349.178 1159.13 350.062 1157.86 350.947C1157.61 351.136 1157.36 351.325 1157.17 351.578C1157.04 351.704 1156.92 351.767 1156.79 351.831C1156.41 352.083 1156.09 352.336 1155.72 352.652C1155.34 352.967 1154.96 353.22 1154.58 353.536C1154.07 353.915 1153.63 354.294 1153.13 354.672C1153.06 354.672 1153.06 354.483 1153.06 354.42C1153.13 354.167 1153.25 353.978 1153.32 353.788ZM1193.61 404.182C1193.04 405.003 1192.28 405.635 1191.33 405.887C1190.64 406.077 1189.94 406.14 1189.31 406.329C1188.74 406.456 1188.18 406.645 1187.67 406.771C1185.59 407.403 1183.44 407.529 1181.29 407.466C1181.1 407.466 1180.91 407.403 1180.79 407.34V407.277C1180.91 407.277 1180.98 407.214 1181.1 407.214C1182.05 407.277 1183 407.087 1183.94 406.835C1184.13 406.771 1184.39 406.771 1184.58 406.708C1184.7 406.708 1184.77 406.582 1184.83 406.519C1184.77 406.456 1184.64 406.329 1184.58 406.329C1184.26 406.329 1183.94 406.329 1183.69 406.393C1183 406.582 1182.3 406.771 1181.54 406.582C1180.79 406.456 1180.03 406.266 1179.27 406.077C1179.21 406.077 1179.14 406.014 1179.14 405.951C1179.46 405.951 1179.78 406.014 1180.09 406.014C1182.11 406.077 1184.2 406.266 1186.22 405.951C1188.55 405.572 1190.83 405.003 1193.04 404.245C1193.29 404.182 1193.54 404.119 1193.86 403.993C1193.67 404.056 1193.67 404.119 1193.61 404.182ZM1204.22 378.227V378.291C1204.22 379.301 1203.84 380.248 1203.65 381.259C1203.2 383.658 1202.45 385.995 1201.56 388.332C1201.06 389.658 1200.36 390.921 1199.61 392.184C1199.23 392.815 1198.59 393.257 1198.09 393.699C1197.4 394.331 1196.64 394.773 1195.82 395.152C1194.3 395.846 1192.85 396.541 1191.21 396.794C1189.12 397.109 1187.04 397.173 1184.95 396.92C1183.88 396.794 1182.74 396.731 1181.61 396.541C1180.16 396.352 1178.83 395.783 1177.57 395.089C1173.27 392.752 1169.17 390.1 1165.25 387.195C1162.28 384.985 1159.32 382.711 1156.47 380.311C1156.16 380.059 1155.78 379.806 1155.46 379.491C1153.76 378.038 1152.05 376.586 1150.41 375.133C1150.1 374.881 1149.84 374.565 1149.53 374.249C1149.4 374.123 1149.34 374.06 1149.21 373.996C1149.34 373.807 1149.46 373.618 1149.65 373.491C1151.67 371.281 1153.7 369.134 1155.72 366.924C1156.92 365.661 1158.12 364.334 1159.32 363.008C1159.82 362.44 1160.26 361.745 1160.83 361.177C1162.03 359.851 1163.36 358.588 1164.56 357.325C1165 356.82 1165.63 356.567 1166.2 356.188C1169.17 354.357 1172.45 353.409 1175.92 352.967C1177.94 352.715 1180.03 352.588 1182.05 352.841C1182.74 352.904 1183.44 352.904 1184.07 352.904C1185.65 352.967 1187.16 353.283 1188.62 353.851C1190.39 354.546 1192.03 355.493 1193.48 356.756C1193.61 356.883 1193.8 356.946 1193.92 357.072C1194.36 357.451 1194.62 357.893 1194.93 358.335C1195.94 359.851 1196.95 361.303 1197.65 363.008C1197.84 363.513 1198.03 363.956 1198.15 364.461C1198.72 366.86 1199.86 368.881 1201.56 370.649C1202.13 371.218 1202.57 371.849 1202.95 372.481C1203.14 372.86 1203.39 373.239 1203.58 373.618C1204.03 374.375 1204.22 375.196 1204.34 376.08C1204.4 376.838 1204.47 377.533 1204.22 378.227ZM1211.1 387.637C1210.72 388.71 1210.15 389.721 1209.46 390.668C1209.39 390.731 1209.33 390.794 1209.27 390.858C1209.2 390.858 1209.2 390.858 1209.14 390.794C1209.14 390.668 1209.14 390.479 1209.2 390.352C1209.65 389.216 1210.09 388.142 1210.53 387.005C1210.72 386.437 1210.91 385.869 1211.1 385.363C1211.1 385.363 1211.16 385.3 1211.23 385.237C1211.29 385.49 1211.29 385.616 1211.35 385.806H1211.41C1211.48 385.869 1211.54 385.995 1211.54 386.058C1211.48 386.626 1211.29 387.132 1211.1 387.637ZM1214.82 369.639C1214.82 369.955 1214.7 370.271 1214.64 370.586C1214.57 370.902 1214.57 371.281 1214.51 371.597C1214.38 372.165 1214.26 372.67 1214.13 373.239C1214 373.744 1213.88 374.186 1213.69 374.691C1213.69 374.754 1213.62 374.817 1213.62 374.817H1213.56V373.87C1213.56 373.618 1213.56 373.428 1213.56 373.175C1213.56 372.923 1213.62 372.733 1213.62 372.481C1213.56 372.039 1213.5 371.534 1213.37 371.092C1213.31 370.713 1213.18 370.271 1213.18 369.828C1213.18 369.639 1213.25 369.45 1213.18 369.197C1213.18 369.008 1213.12 368.818 1213.06 368.629C1212.99 368.25 1212.87 367.871 1212.74 367.492C1211.92 365.029 1210.66 362.819 1209.39 360.545C1209.08 359.914 1208.64 359.346 1208.19 358.777C1207.69 358.146 1207.12 357.514 1206.55 356.883C1206.43 356.756 1206.3 356.567 1206.17 356.441L1206.24 356.377C1206.3 356.377 1206.3 356.441 1206.36 356.441C1207.31 357.325 1208.19 358.209 1209.14 359.093C1209.33 359.219 1209.46 359.409 1209.58 359.598C1209.71 359.788 1209.84 359.977 1209.96 360.166C1210.09 360.419 1210.21 360.609 1210.34 360.861C1210.59 361.303 1210.85 361.808 1211.1 362.25C1211.54 363.135 1212.05 364.019 1212.49 364.903C1212.87 365.661 1213.25 366.418 1213.62 367.176C1213.81 367.492 1214 367.871 1214.19 368.187C1214.32 368.439 1214.51 368.692 1214.64 369.008C1214.82 369.26 1214.82 369.45 1214.82 369.639Z" fill="white"/>
<path d="M1036.31 476.909H1049.23V516.582C1049.23 521.037 1048.16 524.935 1046.03 528.276C1043.93 531.616 1040.97 534.222 1037.17 536.091C1033.38 537.94 1028.95 538.865 1023.9 538.865C1018.83 538.865 1014.39 537.94 1010.6 536.091C1006.8 534.222 1003.85 531.616 1001.74 528.276C999.629 524.935 998.575 521.037 998.575 516.582V476.909H1011.49V515.479C1011.49 517.805 1012 519.874 1013.01 521.683C1014.05 523.493 1015.5 524.915 1017.37 525.949C1019.24 526.983 1021.41 527.5 1023.9 527.5C1026.41 527.5 1028.58 526.983 1030.43 525.949C1032.3 524.915 1033.74 523.493 1034.76 521.683C1035.79 519.874 1036.31 517.805 1036.31 515.479V476.909ZM1097.74 505.247L1086.1 505.963C1085.9 504.969 1085.48 504.074 1084.82 503.278C1084.16 502.463 1083.3 501.817 1082.22 501.339C1081.17 500.842 1079.91 500.594 1078.44 500.594C1076.47 500.594 1074.81 501.011 1073.45 501.847C1072.1 502.662 1071.43 503.756 1071.43 505.128C1071.43 506.222 1071.86 507.146 1072.74 507.902C1073.61 508.658 1075.12 509.264 1077.24 509.722L1085.54 511.392C1089.99 512.307 1093.31 513.778 1095.5 515.807C1097.69 517.835 1098.78 520.5 1098.78 523.801C1098.78 526.804 1097.9 529.439 1096.13 531.706C1094.38 533.973 1091.97 535.743 1088.91 537.016C1085.86 538.268 1082.35 538.895 1078.38 538.895C1072.31 538.895 1067.48 537.632 1063.88 535.107C1060.3 532.561 1058.2 529.101 1057.59 524.726L1070.08 524.07C1070.46 525.919 1071.38 527.331 1072.83 528.305C1074.28 529.26 1076.14 529.737 1078.41 529.737C1080.63 529.737 1082.42 529.31 1083.78 528.455C1085.15 527.58 1085.84 526.456 1085.86 525.084C1085.84 523.93 1085.36 522.986 1084.4 522.25C1083.45 521.494 1081.98 520.918 1079.99 520.52L1072.05 518.939C1067.58 518.044 1064.25 516.493 1062.06 514.286C1059.89 512.078 1058.81 509.264 1058.81 505.844C1058.81 502.901 1059.6 500.365 1061.19 498.237C1062.81 496.109 1065.06 494.469 1067.97 493.315C1070.89 492.162 1074.31 491.585 1078.23 491.585C1084.01 491.585 1088.57 492.808 1091.89 495.254C1095.23 497.7 1097.18 501.031 1097.74 505.247ZM1127.66 538.895C1122.95 538.895 1118.89 537.94 1115.49 536.031C1112.11 534.102 1109.51 531.378 1107.68 527.858C1105.85 524.318 1104.93 520.132 1104.93 515.3C1104.93 510.587 1105.85 506.45 1107.68 502.891C1109.51 499.331 1112.08 496.557 1115.4 494.568C1118.74 492.58 1122.66 491.585 1127.16 491.585C1130.18 491.585 1132.99 492.072 1135.6 493.047C1138.22 494.001 1140.51 495.443 1142.46 497.372C1144.43 499.301 1145.96 501.727 1147.05 504.651C1148.15 507.554 1148.69 510.955 1148.69 514.852V518.342H1110V510.467H1136.73C1136.73 508.638 1136.33 507.017 1135.54 505.605C1134.74 504.193 1133.64 503.089 1132.23 502.294C1130.83 501.479 1129.21 501.071 1127.36 501.071C1125.44 501.071 1123.73 501.518 1122.23 502.413C1120.76 503.288 1119.61 504.472 1118.77 505.963C1117.94 507.435 1117.51 509.075 1117.49 510.885V518.372C1117.49 520.639 1117.91 522.598 1118.74 524.249C1119.6 525.899 1120.8 527.172 1122.35 528.067C1123.9 528.962 1125.74 529.409 1127.87 529.409C1129.28 529.409 1130.58 529.21 1131.75 528.812C1132.92 528.415 1133.93 527.818 1134.76 527.023C1135.6 526.227 1136.23 525.253 1136.67 524.099L1148.42 524.875C1147.83 527.699 1146.6 530.165 1144.75 532.273C1142.93 534.361 1140.56 535.991 1137.66 537.165C1134.77 538.318 1131.44 538.895 1127.66 538.895ZM1156.99 538V492.182H1169.3V500.176H1169.78C1170.62 497.332 1172.02 495.185 1173.99 493.733C1175.96 492.261 1178.22 491.526 1180.79 491.526C1181.43 491.526 1182.11 491.565 1182.85 491.645C1183.58 491.724 1184.23 491.834 1184.79 491.973V503.249C1184.19 503.07 1183.36 502.911 1182.31 502.771C1181.26 502.632 1180.29 502.562 1179.42 502.562C1177.55 502.562 1175.88 502.97 1174.41 503.786C1172.95 504.581 1171.8 505.695 1170.95 507.126C1170.11 508.558 1169.69 510.209 1169.69 512.078V538H1156.99ZM1211.04 538V476.909H1251.49V487.558H1223.95V502.115H1248.8V512.764H1223.95V538H1211.04ZM1272.64 476.909V538H1259.93V476.909H1272.64ZM1303.52 538.895C1298.89 538.895 1294.88 537.911 1291.5 535.942C1288.14 533.953 1285.55 531.189 1283.72 527.649C1281.89 524.089 1280.97 519.963 1280.97 515.27C1280.97 510.537 1281.89 506.401 1283.72 502.861C1285.55 499.301 1288.14 496.537 1291.5 494.568C1294.88 492.58 1298.89 491.585 1303.52 491.585C1308.16 491.585 1312.15 492.58 1315.51 494.568C1318.89 496.537 1321.5 499.301 1323.33 502.861C1325.16 506.401 1326.07 510.537 1326.07 515.27C1326.07 519.963 1325.16 524.089 1323.33 527.649C1321.5 531.189 1318.89 533.953 1315.51 535.942C1312.15 537.911 1308.16 538.895 1303.52 538.895ZM1303.58 529.051C1305.69 529.051 1307.45 528.455 1308.86 527.261C1310.27 526.048 1311.34 524.398 1312.05 522.31C1312.79 520.222 1313.16 517.845 1313.16 515.18C1313.16 512.516 1312.79 510.139 1312.05 508.051C1311.34 505.963 1310.27 504.312 1308.86 503.099C1307.45 501.886 1305.69 501.28 1303.58 501.28C1301.45 501.28 1299.66 501.886 1298.21 503.099C1296.78 504.312 1295.7 505.963 1294.96 508.051C1294.25 510.139 1293.89 512.516 1293.89 515.18C1293.89 517.845 1294.25 520.222 1294.96 522.31C1295.7 524.398 1296.78 526.048 1298.21 527.261C1299.66 528.455 1301.45 529.051 1303.58 529.051ZM1342.23 538L1329.76 492.182H1342.61L1349.71 522.966H1350.13L1357.53 492.182H1370.15L1377.66 522.787H1378.05L1385.03 492.182H1397.86L1385.42 538H1371.97L1364.09 509.185H1363.52L1355.65 538H1342.23ZM1442.76 505.247L1431.13 505.963C1430.93 504.969 1430.5 504.074 1429.84 503.278C1429.19 502.463 1428.32 501.817 1427.25 501.339C1426.19 500.842 1424.93 500.594 1423.46 500.594C1421.49 500.594 1419.83 501.011 1418.48 501.847C1417.13 502.662 1416.45 503.756 1416.45 505.128C1416.45 506.222 1416.89 507.146 1417.76 507.902C1418.64 508.658 1420.14 509.264 1422.27 509.722L1430.56 511.392C1435.01 512.307 1438.33 513.778 1440.52 515.807C1442.71 517.835 1443.8 520.5 1443.8 523.801C1443.8 526.804 1442.92 529.439 1441.15 531.706C1439.4 533.973 1436.99 535.743 1433.93 537.016C1430.89 538.268 1427.38 538.895 1423.4 538.895C1417.33 538.895 1412.5 537.632 1408.9 535.107C1405.32 532.561 1403.23 529.101 1402.61 524.726L1415.11 524.07C1415.49 525.919 1416.4 527.331 1417.85 528.305C1419.3 529.26 1421.16 529.737 1423.43 529.737C1425.66 529.737 1427.45 529.31 1428.8 528.455C1430.17 527.58 1430.87 526.456 1430.89 525.084C1430.87 523.93 1430.38 522.986 1429.43 522.25C1428.47 521.494 1427 520.918 1425.01 520.52L1417.08 518.939C1412.6 518.044 1409.27 516.493 1407.08 514.286C1404.92 512.078 1403.83 509.264 1403.83 505.844C1403.83 502.901 1404.63 500.365 1406.22 498.237C1407.83 496.109 1410.09 494.469 1412.99 493.315C1415.91 492.162 1419.33 491.585 1423.25 491.585C1429.04 491.585 1433.59 492.808 1436.91 495.254C1440.25 497.7 1442.2 501.031 1442.76 505.247Z" fill="#DFE8EB"/>
</g>
<defs>
<filter id="filter0_b_1_22796" x="-168.626" y="614.421" width="217.258" height="90.8531" filterUnits="userSpaceOnUse" color-interpolation-filters="sRGB">
<feFlood flood-opacity="0" result="BackgroundImageFix"/>
<feGaussianBlur in="BackgroundImageFix" stdDeviation="14.813"/>
<feComposite in2="SourceAlpha" operator="in" result="effect1_backgroundBlur_1_22796"/>
<feBlend mode="normal" in="SourceGraphic" in2="effect1_backgroundBlur_1_22796" result="shape"/>
</filter>
<filter id="filter1_b_1_22796" x="706.823" y="232.786" width="208.37" height="133.317" filterUnits="userSpaceOnUse" color-interpolation-filters="sRGB">
<feFlood flood-opacity="0" result="BackgroundImageFix"/>
<feGaussianBlur in="BackgroundImageFix" stdDeviation="14.813"/>
<feComposite in2="SourceAlpha" operator="in" result="effect1_backgroundBlur_1_22796"/>
<feBlend mode="normal" in="SourceGraphic" in2="effect1_backgroundBlur_1_22796" result="shape"/>
</filter>
<filter id="filter2_b_1_22796" x="706.823" y="568.547" width="208.37" height="133.317" filterUnits="userSpaceOnUse" color-interpolation-filters="sRGB">
<feFlood flood-opacity="0" result="BackgroundImageFix"/>
<feGaussianBlur in="BackgroundImageFix" stdDeviation="14.813"/>
<feComposite in2="SourceAlpha" operator="in" result="effect1_backgroundBlur_1_22796"/>
<feBlend mode="normal" in="SourceGraphic" in2="effect1_backgroundBlur_1_22796" result="shape"/>
</filter>
<filter id="filter3_b_1_22796" x="10.6113" y="524.108" width="208.37" height="109.616" filterUnits="userSpaceOnUse" color-interpolation-filters="sRGB">
<feFlood flood-opacity="0" result="BackgroundImageFix"/>
<feGaussianBlur in="BackgroundImageFix" stdDeviation="14.813"/>
<feComposite in2="SourceAlpha" operator="in" result="effect1_backgroundBlur_1_22796"/>
<feBlend mode="normal" in="SourceGraphic" in2="effect1_backgroundBlur_1_22796" result="shape"/>
</filter>
<filter id="filter4_b_1_22796" x="396.211" y="335.95" width="268.675" height="268.674" filterUnits="userSpaceOnUse" color-interpolation-filters="sRGB">
<feFlood flood-opacity="0" result="BackgroundImageFix"/>
<feGaussianBlur in="BackgroundImageFix" stdDeviation="27.6673"/>
<feComposite in2="SourceAlpha" operator="in" result="effect1_backgroundBlur_1_22796"/>
<feBlend mode="normal" in="SourceGraphic" in2="effect1_backgroundBlur_1_22796" result="shape"/>
</filter>
<filter id="filter5_b_1_22796" x="390.012" y="645.564" width="284.179" height="144.106" filterUnits="userSpaceOnUse" color-interpolation-filters="sRGB">
<feFlood flood-opacity="0" result="BackgroundImageFix"/>
<feGaussianBlur in="BackgroundImageFix" stdDeviation="15.4271"/>
<feComposite in2="SourceAlpha" operator="in" result="effect1_backgroundBlur_1_22796"/>
<feBlend mode="normal" in="SourceGraphic" in2="effect1_backgroundBlur_1_22796" result="shape"/>
</filter>
<filter id="filter6_b_1_22796" x="61.0674" y="164.801" width="318.82" height="204.522" filterUnits="userSpaceOnUse" color-interpolation-filters="sRGB">
<feFlood flood-opacity="0" result="BackgroundImageFix"/>
<feGaussianBlur in="BackgroundImageFix" stdDeviation="9.43942"/>
<feComposite in2="SourceAlpha" operator="in" result="effect1_backgroundBlur_1_22796"/>
<feBlend mode="normal" in="SourceGraphic" in2="effect1_backgroundBlur_1_22796" result="shape"/>
</filter>
<filter id="filter7_b_1_22796" x="405.416" y="276.334" width="262.45" height="107.399" filterUnits="userSpaceOnUse" color-interpolation-filters="sRGB">
<feFlood flood-opacity="0" result="BackgroundImageFix"/>
<feGaussianBlur in="BackgroundImageFix" stdDeviation="5.53345"/>
<feComposite in2="SourceAlpha" operator="in" result="effect1_backgroundBlur_1_22796"/>
<feBlend mode="normal" in="SourceGraphic" in2="effect1_backgroundBlur_1_22796" result="shape"/>
</filter>
<filter id="filter8_b_1_22796" x="183.101" y="740.626" width="219.253" height="107.399" filterUnits="userSpaceOnUse" color-interpolation-filters="sRGB">
<feFlood flood-opacity="0" result="BackgroundImageFix"/>
<feGaussianBlur in="BackgroundImageFix" stdDeviation="5.53345"/>
<feComposite in2="SourceAlpha" operator="in" result="effect1_backgroundBlur_1_22796"/>
<feBlend mode="normal" in="SourceGraphic" in2="effect1_backgroundBlur_1_22796" result="shape"/>
</filter>
<filter id="filter9_d_1_22796" x="540.278" y="676.247" width="162.408" height="162.409" filterUnits="userSpaceOnUse" color-interpolation-filters="sRGB">
<feFlood flood-opacity="0" result="BackgroundImageFix"/>
<feColorMatrix in="SourceAlpha" type="matrix" values="0 0 0 0 0 0 0 0 0 0 0 0 0 0 0 0 0 0 127 0" result="hardAlpha"/>
<feOffset dx="-1.30199" dy="1.30199"/>
<feGaussianBlur stdDeviation="21.4828"/>
<feComposite in2="hardAlpha" operator="out"/>
<feColorMatrix type="matrix" values="0 0 0 0 0 0 0 0 0 0 0 0 0 0 0 0 0 0 0.15 0"/>
<feBlend mode="normal" in2="BackgroundImageFix" result="effect1_dropShadow_1_22796"/>
<feBlend mode="normal" in="SourceGraphic" in2="effect1_dropShadow_1_22796" result="shape"/>
</filter>
<filter id="filter10_d_1_22796" x="-6.7735" y="96.4311" width="161.447" height="161.447" filterUnits="userSpaceOnUse" color-interpolation-filters="sRGB">
<feFlood flood-opacity="0" result="BackgroundImageFix"/>
<feColorMatrix in="SourceAlpha" type="matrix" values="0 0 0 0 0 0 0 0 0 0 0 0 0 0 0 0 0 0 127 0" result="hardAlpha"/>
<feOffset dx="-1.30199" dy="1.30199"/>
<feGaussianBlur stdDeviation="21.4828"/>
<feComposite in2="hardAlpha" operator="out"/>
<feColorMatrix type="matrix" values="0 0 0 0 0 0 0 0 0 0 0 0 0 0 0 0 0 0 0.15 0"/>
<feBlend mode="normal" in2="BackgroundImageFix" result="effect1_dropShadow_1_22796"/>
<feBlend mode="normal" in="SourceGraphic" in2="effect1_dropShadow_1_22796" result="shape"/>
</filter>
<linearGradient id="paint0_linear_1_22796" x1="10" y1="41.8286" x2="1803.61" y2="424.247" gradientUnits="userSpaceOnUse">
<stop stop-color="#23232D"/>
<stop offset="0.317708" stop-color="#1C3F63"/>
<stop offset="0.661458" stop-color="#090731"/>
<stop offset="1" stop-color="#070528"/>
</linearGradient>
<clipPath id="clip0_1_22796">
<rect width="1600" height="960" fill="white"/>
</clipPath>
<clipPath id="clip1_1_22796">
<rect x="-139" y="644.047" width="158.005" height="108.629" rx="15.8005" fill="white"/>
</clipPath>
<clipPath id="clip2_1_22796">
<rect x="212.562" y="422.886" width="158.005" height="92.8282" rx="15.8005" fill="white"/>
</clipPath>
</defs>
</svg>
