<svg width="1057" height="1040" viewBox="0 0 1057 1040" fill="none" xmlns="http://www.w3.org/2000/svg">
<path opacity="0.5" d="M127.631 282C128.674 328.245 238.834 460.984 288.663 477.536C338.489 494.087 393.041 495.377 445.528 503.718C498.012 512.062 552.726 530.112 581.672 568.969C616.27 615.416 607.304 682.56 653.545 720.64C677.041 739.989 710.458 747.441 742.744 749.903C775.029 752.362 807.719 750.58 839.75 754.866C906.105 763.754 966.863 800.043 1000.07 850.622C1033.28 901.205 1038.24 965.014 1013.17 1019H52V377.376L127.631 282Z" fill="url(#paint0_linear_2_8938)"/>
<path opacity="0.5" d="M954.858 753.434C956.06 713.301 956.156 686.661 933.686 651.574C911.216 616.486 935.369 586.416 889.888 579.134C844.407 571.852 793.264 588.614 770.1 623.361C756.707 643.45 753.239 667.269 743.63 688.927C734.021 710.588 714.337 732.027 687.634 733.241C658.286 734.575 634.755 711.397 605.802 707.035C587.676 704.303 568.782 709.392 553.594 718.402C538.406 727.411 526.548 740.069 516.477 753.434C492.603 785.116 477.556 824.83 490.485 860.984C499.897 887.302 523.136 908.569 549.853 923.454C576.568 938.338 606.833 947.594 636.788 956.721C719.673 981.972 802.556 1007.23 885.441 1032.48C896.227 1035.76 907.274 1039.09 918.706 1039.05C930.137 1039.02 942.226 1034.96 948.131 1026.47L954.858 753.434Z" fill="url(#paint1_linear_2_8938)"/>
<path d="M958.389 833.361C922.714 798.077 874.423 778.512 826.367 779.873C778.311 781.237 731.012 803.516 697.053 840.78C683.694 855.439 672.237 872.38 656.995 884.64C622.914 912.051 576.435 911.211 534.845 902.85C493.255 894.488 451.854 879.743 409.702 883.402C373.101 886.584 337.683 904.177 311.39 932.246C285.097 960.312 268.128 998.636 264.286 1038.62H958.389V833.361Z" fill="url(#paint2_linear_2_8938)"/>
<path d="M88.8178 52.679C110.356 111.772 162.55 158.719 223.587 173.902C284.621 189.085 352.727 172.06 399.442 129.946C431.356 101.172 453.826 61.6717 490.59 39.4228C531.293 14.7927 582.609 15.7315 629.258 25.0772C675.906 34.4229 721.075 51.3543 768.382 56.3848C830.232 62.9611 894.146 48.2226 946.87 15.228C946.87 15.228 954.86 12.7645 959.565 1" stroke="url(#paint3_linear_2_8938)" stroke-width="0.7931" stroke-miterlimit="10"/>
<path opacity="0.5" d="M418.713 390.954C350.664 390.954 295.5 335.789 295.5 267.74C295.5 199.691 350.664 144.526 418.713 144.526C486.763 144.526 541.927 199.691 541.927 267.74C541.927 335.789 486.763 390.954 418.713 390.954Z" stroke="url(#paint4_linear_2_8938)" stroke-width="0.7931" stroke-miterlimit="10"/>
<path d="M951.325 780.983C946.619 777.454 910.149 765.364 893.979 761.701C840.251 749.53 777.989 756.32 737.663 789.282C719.482 804.14 706.529 823.467 687.073 837.074C656.413 858.511 613.877 862.68 574.614 859.219C535.352 855.758 497.207 845.641 457.977 841.911C382.76 834.766 304.747 852.247 243.073 890.075C181.399 927.9 151.756 962.047 134.872 1025.68" stroke="url(#paint5_linear_2_8938)" stroke-width="0.7268" stroke-miterlimit="10"/>
<path d="M2.00272e-05 119C5.4159 168.324 177.362 403.555 203.408 461.21C254.26 509.566 305.789 522.26 362.233 529.529C418.685 536.807 477.484 552.065 514.884 589.486C575.242 649.891 562.863 750.045 630.461 804.361C663.996 831.311 711.018 841.225 756.321 846.42C801.62 851.622 848.214 853.269 890.807 867.639C969.265 894.106 1024.24 965.949 1021.93 1039H2.00272e-05V399.2V119Z" fill="url(#paint6_linear_2_8938)"/>
<path d="M427 943.351V1039H929.305C1191.72 1039 973.196 821.379 943.532 815.696C913.869 810.011 851.57 837.733 822.123 831.253C792.676 824.774 721.106 774 675.695 774C643.258 774 581.187 809.772 574.348 831.254C567.51 852.733 563.345 875.192 551.313 894.87C528.222 932.642 475.222 954.574 427 946.315" fill="url(#paint7_linear_2_8938)"/>
<path d="M635.868 436.376C635.868 438.24 637.379 439.753 639.245 439.753C641.108 439.753 642.621 438.24 642.621 436.376C642.621 434.513 641.108 433 639.245 433C637.379 433 635.868 434.513 635.868 436.376ZM623.264 433C625.127 433 626.64 434.511 626.64 436.376C626.64 438.24 625.127 439.753 623.264 439.753C621.4 439.753 619.887 438.24 619.887 436.376C619.887 434.513 621.398 433 623.264 433ZM607.283 433C609.146 433 610.659 434.511 610.659 436.376C610.659 438.24 609.146 439.753 607.283 439.753C605.419 439.753 603.907 438.24 603.907 436.376C603.907 434.513 605.417 433 607.283 433ZM591.3 433C593.163 433 594.676 434.511 594.676 436.376C594.676 438.24 593.166 439.753 591.3 439.753C589.436 439.753 587.926 438.24 587.926 436.376C587.926 434.513 589.436 433 591.3 433ZM575.319 433C577.182 433 578.695 434.511 578.695 436.376C578.695 438.24 577.185 439.753 575.319 439.753C573.455 439.753 571.942 438.24 571.942 436.376C571.942 434.513 573.455 433 575.319 433ZM559.338 433C561.202 433 562.714 434.511 562.714 436.376C562.714 438.24 561.204 439.753 559.338 439.753C557.475 439.753 555.962 438.24 555.962 436.376C555.962 434.513 557.475 433 559.338 433ZM543.357 433C545.221 433 546.734 434.511 546.734 436.376C546.734 438.24 545.223 439.753 543.357 439.753C541.494 439.753 539.981 438.24 539.981 436.376C539.981 434.513 541.494 433 543.357 433ZM527.376 433C529.24 433 530.753 434.511 530.753 436.376C530.753 438.24 529.242 439.753 527.376 439.753C525.511 439.753 524 438.24 524 436.376C524 434.513 525.513 433 527.376 433ZM639.245 446.503C641.108 446.503 642.621 448.014 642.621 449.88C642.621 451.743 641.108 453.256 639.245 453.256C637.381 453.256 635.868 451.743 635.868 449.88C635.868 448.014 637.379 446.503 639.245 446.503ZM623.264 446.503C625.127 446.503 626.64 448.014 626.64 449.88C626.64 451.743 625.127 453.256 623.264 453.256C621.4 453.256 619.887 451.743 619.887 449.88C619.887 448.014 621.398 446.503 623.264 446.503ZM607.283 446.503C609.146 446.503 610.659 448.014 610.659 449.88C610.659 451.743 609.146 453.256 607.283 453.256C605.419 453.256 603.907 451.743 603.907 449.88C603.907 448.014 605.417 446.503 607.283 446.503ZM591.3 446.503C593.163 446.503 594.676 448.014 594.676 449.88C594.676 451.743 593.166 453.256 591.3 453.256C589.436 453.256 587.926 451.743 587.926 449.88C587.926 448.014 589.436 446.503 591.3 446.503ZM575.319 446.503C577.182 446.503 578.695 448.014 578.695 449.88C578.695 451.743 577.185 453.256 575.319 453.256C573.455 453.256 571.942 451.743 571.942 449.88C571.942 448.014 573.455 446.503 575.319 446.503ZM559.338 446.503C561.202 446.503 562.714 448.014 562.714 449.88C562.714 451.743 561.204 453.256 559.338 453.256C557.475 453.256 555.962 451.743 555.962 449.88C555.962 448.014 557.475 446.503 559.338 446.503ZM543.357 446.503C545.221 446.503 546.734 448.014 546.734 449.88C546.734 451.743 545.223 453.256 543.357 453.256C541.494 453.256 539.981 451.743 539.981 449.88C539.981 448.014 541.494 446.503 543.357 446.503ZM527.376 446.503C529.24 446.503 530.753 448.014 530.753 449.88C530.753 451.743 529.242 453.256 527.376 453.256C525.511 453.256 524 451.743 524 449.88C524 448.014 525.513 446.503 527.376 446.503ZM639.245 460.004C641.108 460.004 642.621 461.515 642.621 463.381C642.621 465.244 641.108 466.757 639.245 466.757C637.381 466.757 635.868 465.244 635.868 463.381C635.868 461.515 637.379 460.004 639.245 460.004ZM623.264 460.004C625.127 460.004 626.64 461.515 626.64 463.381C626.64 465.244 625.127 466.757 623.264 466.757C621.4 466.757 619.887 465.244 619.887 463.381C619.887 461.515 621.398 460.004 623.264 460.004ZM607.283 460.004C609.146 460.004 610.659 461.515 610.659 463.381C610.659 465.244 609.146 466.757 607.283 466.757C605.419 466.757 603.907 465.244 603.907 463.381C603.907 461.515 605.417 460.004 607.283 460.004ZM591.3 460.004C593.163 460.004 594.676 461.515 594.676 463.381C594.676 465.244 593.166 466.757 591.3 466.757C589.436 466.757 587.926 465.244 587.926 463.381C587.926 461.515 589.436 460.004 591.3 460.004ZM575.319 460.004C577.182 460.004 578.695 461.515 578.695 463.381C578.695 465.244 577.185 466.757 575.319 466.757C573.455 466.757 571.942 465.244 571.942 463.381C571.942 461.515 573.455 460.004 575.319 460.004ZM559.338 460.004C561.202 460.004 562.714 461.515 562.714 463.381C562.714 465.244 561.204 466.757 559.338 466.757C557.475 466.757 555.962 465.244 555.962 463.381C555.962 461.515 557.475 460.004 559.338 460.004ZM543.357 460.004C545.221 460.004 546.734 461.515 546.734 463.381C546.734 465.244 545.223 466.757 543.357 466.757C541.494 466.757 539.981 465.244 539.981 463.381C539.981 461.515 541.494 460.004 543.357 460.004ZM527.376 460.004C529.24 460.004 530.753 461.515 530.753 463.381C530.753 465.244 529.242 466.757 527.376 466.757C525.511 466.757 524 465.244 524 463.381C524 461.515 525.513 460.004 527.376 460.004ZM639.245 473.505C641.108 473.505 642.621 475.016 642.621 476.881C642.621 478.745 641.108 480.258 639.245 480.258C637.381 480.258 635.868 478.745 635.868 476.881C635.868 475.016 637.379 473.505 639.245 473.505ZM623.264 473.505C625.127 473.505 626.64 475.016 626.64 476.881C626.64 478.745 625.127 480.258 623.264 480.258C621.4 480.258 619.887 478.745 619.887 476.881C619.887 475.016 621.398 473.505 623.264 473.505ZM607.283 473.505C609.146 473.505 610.659 475.016 610.659 476.881C610.659 478.745 609.146 480.258 607.283 480.258C605.419 480.258 603.907 478.745 603.907 476.881C603.907 475.016 605.417 473.505 607.283 473.505ZM591.3 473.505C593.163 473.505 594.676 475.016 594.676 476.881C594.676 478.745 593.166 480.258 591.3 480.258C589.436 480.258 587.926 478.745 587.926 476.881C587.926 475.016 589.436 473.505 591.3 473.505ZM575.319 473.505C577.182 473.505 578.695 475.016 578.695 476.881C578.695 478.745 577.185 480.258 575.319 480.258C573.455 480.258 571.942 478.745 571.942 476.881C571.942 475.016 573.455 473.505 575.319 473.505ZM559.338 473.505C561.202 473.505 562.714 475.016 562.714 476.881C562.714 478.745 561.204 480.258 559.338 480.258C557.475 480.258 555.962 478.745 555.962 476.881C555.962 475.016 557.475 473.505 559.338 473.505ZM543.357 473.505C545.221 473.505 546.734 475.016 546.734 476.881C546.734 478.745 545.223 480.258 543.357 480.258C541.494 480.258 539.981 478.745 539.981 476.881C539.981 475.016 541.494 473.505 543.357 473.505ZM527.376 473.505C529.24 473.505 530.753 475.016 530.753 476.881C530.753 478.745 529.242 480.258 527.376 480.258C525.511 480.258 524 478.745 524 476.881C524 475.016 525.513 473.505 527.376 473.505ZM639.245 487.008C641.108 487.008 642.621 488.519 642.621 490.385C642.621 492.248 641.108 493.761 639.245 493.761C637.381 493.761 635.868 492.248 635.868 490.385C635.868 488.519 637.379 487.008 639.245 487.008ZM623.264 487.008C625.127 487.008 626.64 488.519 626.64 490.385C626.64 492.248 625.127 493.761 623.264 493.761C621.4 493.761 619.887 492.248 619.887 490.385C619.887 488.519 621.398 487.008 623.264 487.008ZM607.283 487.008C609.146 487.008 610.659 488.519 610.659 490.385C610.659 492.248 609.146 493.761 607.283 493.761C605.419 493.761 603.907 492.248 603.907 490.385C603.907 488.519 605.417 487.008 607.283 487.008ZM591.3 487.008C593.163 487.008 594.676 488.519 594.676 490.385C594.676 492.248 593.166 493.761 591.3 493.761C589.436 493.761 587.926 492.248 587.926 490.385C587.926 488.519 589.436 487.008 591.3 487.008ZM575.319 487.008C577.182 487.008 578.695 488.519 578.695 490.385C578.695 492.248 577.185 493.761 575.319 493.761C573.455 493.761 571.942 492.248 571.942 490.385C571.942 488.519 573.455 487.008 575.319 487.008ZM559.338 487.008C561.202 487.008 562.714 488.519 562.714 490.385C562.714 492.248 561.204 493.761 559.338 493.761C557.475 493.761 555.962 492.248 555.962 490.385C555.962 488.519 557.475 487.008 559.338 487.008ZM543.357 487.008C545.221 487.008 546.734 488.519 546.734 490.385C546.734 492.248 545.223 493.761 543.357 493.761C541.494 493.761 539.981 492.248 539.981 490.385C539.981 488.519 541.494 487.008 543.357 487.008ZM527.376 487.008C529.24 487.008 530.753 488.519 530.753 490.385C530.753 492.248 529.242 493.761 527.376 493.761C525.511 493.761 524 492.248 524 490.385C524 488.519 525.513 487.008 527.376 487.008ZM639.245 500.509C641.108 500.509 642.621 502.02 642.621 503.886C642.621 505.751 641.108 507.262 639.245 507.262C637.381 507.262 635.868 505.751 635.868 503.886C635.868 502.02 637.379 500.509 639.245 500.509ZM623.264 500.509C625.127 500.509 626.64 502.02 626.64 503.886C626.64 505.751 625.127 507.262 623.264 507.262C621.4 507.262 619.887 505.751 619.887 503.886C619.887 502.02 621.398 500.509 623.264 500.509ZM607.283 500.509C609.146 500.509 610.659 502.02 610.659 503.886C610.659 505.751 609.146 507.262 607.283 507.262C605.419 507.262 603.907 505.751 603.907 503.886C603.907 502.02 605.417 500.509 607.283 500.509ZM591.3 500.509C593.163 500.509 594.676 502.02 594.676 503.886C594.676 505.751 593.166 507.262 591.3 507.262C589.436 507.262 587.926 505.751 587.926 503.886C587.926 502.02 589.436 500.509 591.3 500.509ZM575.319 500.509C577.182 500.509 578.695 502.02 578.695 503.886C578.695 505.751 577.185 507.262 575.319 507.262C573.455 507.262 571.942 505.751 571.942 503.886C571.942 502.02 573.455 500.509 575.319 500.509ZM559.338 500.509C561.202 500.509 562.714 502.02 562.714 503.886C562.714 505.751 561.204 507.262 559.338 507.262C557.475 507.262 555.962 505.751 555.962 503.886C555.962 502.02 557.475 500.509 559.338 500.509ZM543.357 500.509C545.221 500.509 546.734 502.02 546.734 503.886C546.734 505.751 545.223 507.262 543.357 507.262C541.494 507.262 539.981 505.751 539.981 503.886C539.981 502.02 541.494 500.509 543.357 500.509ZM527.376 500.509C529.24 500.509 530.753 502.02 530.753 503.886C530.753 505.751 529.242 507.262 527.376 507.262C525.511 507.262 524 505.751 524 503.886C524 502.02 525.513 500.509 527.376 500.509ZM639.245 514.01C641.108 514.01 642.621 515.521 642.621 517.386C642.621 519.252 641.108 520.763 639.245 520.763C637.381 520.763 635.868 519.252 635.868 517.386C635.868 515.521 637.379 514.01 639.245 514.01ZM623.264 514.01C625.127 514.01 626.64 515.521 626.64 517.386C626.64 519.252 625.127 520.763 623.264 520.763C621.4 520.763 619.887 519.252 619.887 517.386C619.887 515.521 621.398 514.01 623.264 514.01ZM607.283 514.01C609.146 514.01 610.659 515.521 610.659 517.386C610.659 519.252 609.146 520.763 607.283 520.763C605.419 520.763 603.907 519.252 603.907 517.386C603.907 515.521 605.417 514.01 607.283 514.01ZM591.3 514.01C593.163 514.01 594.676 515.521 594.676 517.386C594.676 519.252 593.166 520.763 591.3 520.763C589.436 520.763 587.926 519.252 587.926 517.386C587.926 515.521 589.436 514.01 591.3 514.01ZM575.319 514.01C577.182 514.01 578.695 515.521 578.695 517.386C578.695 519.252 577.185 520.763 575.319 520.763C573.455 520.763 571.942 519.252 571.942 517.386C571.942 515.521 573.455 514.01 575.319 514.01ZM559.338 514.01C561.202 514.01 562.714 515.521 562.714 517.386C562.714 519.252 561.204 520.763 559.338 520.763C557.475 520.763 555.962 519.252 555.962 517.386C555.962 515.521 557.475 514.01 559.338 514.01ZM543.357 514.01C545.221 514.01 546.734 515.521 546.734 517.386C546.734 519.252 545.223 520.763 543.357 520.763C541.494 520.763 539.981 519.252 539.981 517.386C539.981 515.521 541.494 514.01 543.357 514.01ZM527.376 514.01C529.24 514.01 530.753 515.521 530.753 517.386C530.753 519.252 529.242 520.763 527.376 520.763C525.511 520.763 524 519.252 524 517.386C524 515.521 525.513 514.01 527.376 514.01ZM639.245 527.511C641.108 527.511 642.621 529.021 642.621 530.887C642.621 532.753 641.108 534.264 639.245 534.264C637.381 534.264 635.868 532.753 635.868 530.887C635.868 529.021 637.379 527.511 639.245 527.511ZM623.264 527.511C625.127 527.511 626.64 529.021 626.64 530.887C626.64 532.753 625.127 534.264 623.264 534.264C621.4 534.264 619.887 532.753 619.887 530.887C619.887 529.021 621.398 527.511 623.264 527.511ZM607.283 527.511C609.146 527.511 610.659 529.021 610.659 530.887C610.659 532.753 609.146 534.264 607.283 534.264C605.419 534.264 603.907 532.753 603.907 530.887C603.907 529.021 605.417 527.511 607.283 527.511ZM591.3 527.511C593.163 527.511 594.676 529.021 594.676 530.887C594.676 532.753 593.166 534.264 591.3 534.264C589.436 534.264 587.926 532.753 587.926 530.887C587.926 529.021 589.436 527.511 591.3 527.511ZM575.319 527.511C577.182 527.511 578.695 529.021 578.695 530.887C578.695 532.753 577.185 534.264 575.319 534.264C573.455 534.264 571.942 532.753 571.942 530.887C571.942 529.021 573.455 527.511 575.319 527.511ZM559.338 527.511C561.202 527.511 562.714 529.021 562.714 530.887C562.714 532.753 561.204 534.264 559.338 534.264C557.475 534.264 555.962 532.753 555.962 530.887C555.962 529.021 557.475 527.511 559.338 527.511ZM543.357 527.511C545.221 527.511 546.734 529.021 546.734 530.887C546.734 532.753 545.223 534.264 543.357 534.264C541.494 534.264 539.981 532.753 539.981 530.887C539.981 529.021 541.494 527.511 543.357 527.511ZM527.376 527.511C529.24 527.511 530.753 529.021 530.753 530.887C530.753 532.753 529.242 534.264 527.376 534.264C525.511 534.264 524 532.753 524 530.887C524 529.021 525.513 527.511 527.376 527.511ZM639.245 541.014C641.108 541.014 642.621 542.525 642.621 544.391C642.621 546.256 641.108 547.767 639.245 547.767C637.381 547.767 635.868 546.256 635.868 544.391C635.868 542.525 637.379 541.014 639.245 541.014ZM623.264 541.014C625.127 541.014 626.64 542.525 626.64 544.391C626.64 546.256 625.127 547.767 623.264 547.767C621.4 547.767 619.887 546.256 619.887 544.391C619.887 542.525 621.398 541.014 623.264 541.014ZM607.283 541.014C609.146 541.014 610.659 542.525 610.659 544.391C610.659 546.256 609.146 547.767 607.283 547.767C605.419 547.767 603.907 546.256 603.907 544.391C603.907 542.525 605.417 541.014 607.283 541.014ZM591.3 541.014C593.163 541.014 594.676 542.525 594.676 544.391C594.676 546.256 593.166 547.767 591.3 547.767C589.436 547.767 587.926 546.256 587.926 544.391C587.926 542.525 589.436 541.014 591.3 541.014ZM575.319 541.014C577.182 541.014 578.695 542.525 578.695 544.391C578.695 546.256 577.185 547.767 575.319 547.767C573.455 547.767 571.942 546.256 571.942 544.391C571.942 542.525 573.455 541.014 575.319 541.014ZM559.338 541.014C561.202 541.014 562.714 542.525 562.714 544.391C562.714 546.256 561.204 547.767 559.338 547.767C557.475 547.767 555.962 546.256 555.962 544.391C555.962 542.525 557.475 541.014 559.338 541.014ZM543.357 541.014C545.221 541.014 546.734 542.525 546.734 544.391C546.734 546.256 545.223 547.767 543.357 547.767C541.494 547.767 539.981 546.256 539.981 544.391C539.981 542.525 541.494 541.014 543.357 541.014ZM527.376 541.014C529.24 541.014 530.753 542.525 530.753 544.391C530.753 546.256 529.242 547.767 527.376 547.767C525.511 547.767 524 546.256 524 544.391C524 542.525 525.513 541.014 527.376 541.014ZM639.245 554.515C641.108 554.515 642.621 556.026 642.621 557.891C642.621 559.757 641.108 561.268 639.245 561.268C637.381 561.268 635.868 559.757 635.868 557.891C635.868 556.026 637.379 554.515 639.245 554.515ZM623.264 554.515C625.127 554.515 626.64 556.026 626.64 557.891C626.64 559.757 625.127 561.268 623.264 561.268C621.4 561.268 619.887 559.757 619.887 557.891C619.887 556.026 621.398 554.515 623.264 554.515ZM607.283 554.515C609.146 554.515 610.659 556.026 610.659 557.891C610.659 559.757 609.146 561.268 607.283 561.268C605.419 561.268 603.907 559.757 603.907 557.891C603.907 556.026 605.417 554.515 607.283 554.515ZM591.3 554.515C593.163 554.515 594.676 556.026 594.676 557.891C594.676 559.757 593.166 561.268 591.3 561.268C589.436 561.268 587.926 559.757 587.926 557.891C587.926 556.026 589.436 554.515 591.3 554.515ZM575.319 554.515C577.182 554.515 578.695 556.026 578.695 557.891C578.695 559.757 577.185 561.268 575.319 561.268C573.455 561.268 571.942 559.757 571.942 557.891C571.942 556.026 573.455 554.515 575.319 554.515ZM559.338 554.515C561.202 554.515 562.714 556.026 562.714 557.891C562.714 559.757 561.204 561.268 559.338 561.268C557.475 561.268 555.962 559.757 555.962 557.891C555.962 556.026 557.475 554.515 559.338 554.515ZM543.357 554.515C545.221 554.515 546.734 556.026 546.734 557.891C546.734 559.757 545.223 561.268 543.357 561.268C541.494 561.268 539.981 559.757 539.981 557.891C539.981 556.026 541.494 554.515 543.357 554.515ZM527.376 554.515C529.24 554.515 530.753 556.026 530.753 557.891C530.753 559.757 529.242 561.268 527.376 561.268C525.511 561.268 524 559.757 524 557.891C524 556.026 525.513 554.515 527.376 554.515ZM639.245 568.016C641.108 568.016 642.621 569.529 642.621 571.392C642.621 573.256 641.108 574.769 639.245 574.769C637.381 574.769 635.868 573.258 635.868 571.392C635.868 569.529 637.379 568.016 639.245 568.016ZM623.264 568.016C625.127 568.016 626.64 569.529 626.64 571.392C626.64 573.256 625.127 574.769 623.264 574.769C621.4 574.769 619.887 573.258 619.887 571.392C619.887 569.529 621.398 568.016 623.264 568.016ZM607.283 568.016C609.146 568.016 610.659 569.529 610.659 571.392C610.659 573.256 609.146 574.769 607.283 574.769C605.419 574.769 603.907 573.258 603.907 571.392C603.907 569.529 605.417 568.016 607.283 568.016ZM591.3 568.016C593.163 568.016 594.676 569.529 594.676 571.392C594.676 573.256 593.166 574.769 591.3 574.769C589.436 574.769 587.926 573.258 587.926 571.392C587.926 569.529 589.436 568.016 591.3 568.016ZM575.319 568.016C577.182 568.016 578.695 569.529 578.695 571.392C578.695 573.256 577.185 574.769 575.319 574.769C573.455 574.769 571.942 573.258 571.942 571.392C571.942 569.529 573.455 568.016 575.319 568.016ZM559.338 568.016C561.202 568.016 562.714 569.529 562.714 571.392C562.714 573.256 561.204 574.769 559.338 574.769C557.475 574.769 555.962 573.258 555.962 571.392C555.962 569.529 557.475 568.016 559.338 568.016ZM543.357 568.016C545.221 568.016 546.734 569.529 546.734 571.392C546.734 573.256 545.223 574.769 543.357 574.769C541.494 574.769 539.981 573.258 539.981 571.392C539.981 569.529 541.494 568.016 543.357 568.016ZM527.376 568.016C529.24 568.016 530.753 569.529 530.753 571.392C530.753 573.256 529.242 574.769 527.376 574.769C525.511 574.769 524 573.258 524 571.392C524 569.529 525.513 568.016 527.376 568.016ZM639.245 581.519C641.108 581.519 642.621 583.032 642.621 584.896C642.621 586.759 641.108 588.272 639.245 588.272C637.381 588.272 635.868 586.761 635.868 584.896C635.868 583.03 637.379 581.519 639.245 581.519ZM623.264 581.519C625.127 581.519 626.64 583.032 626.64 584.896C626.64 586.759 625.127 588.272 623.264 588.272C621.4 588.272 619.887 586.761 619.887 584.896C619.887 583.03 621.398 581.519 623.264 581.519ZM607.283 581.519C609.146 581.519 610.659 583.032 610.659 584.896C610.659 586.759 609.146 588.272 607.283 588.272C605.419 588.272 603.907 586.761 603.907 584.896C603.907 583.03 605.417 581.519 607.283 581.519ZM591.3 581.519C593.163 581.519 594.676 583.032 594.676 584.896C594.676 586.759 593.166 588.272 591.3 588.272C589.436 588.272 587.926 586.761 587.926 584.896C587.926 583.03 589.436 581.519 591.3 581.519ZM575.319 581.519C577.182 581.519 578.695 583.032 578.695 584.896C578.695 586.759 577.185 588.272 575.319 588.272C573.455 588.272 571.942 586.761 571.942 584.896C571.942 583.03 573.455 581.519 575.319 581.519ZM559.338 581.519C561.202 581.519 562.714 583.032 562.714 584.896C562.714 586.759 561.204 588.272 559.338 588.272C557.475 588.272 555.962 586.761 555.962 584.896C555.962 583.03 557.475 581.519 559.338 581.519ZM543.357 581.519C545.221 581.519 546.734 583.032 546.734 584.896C546.734 586.759 545.223 588.272 543.357 588.272C541.494 588.272 539.981 586.761 539.981 584.896C539.981 583.03 541.494 581.519 543.357 581.519ZM527.376 581.519C529.24 581.519 530.753 583.032 530.753 584.896C530.753 586.759 529.242 588.272 527.376 588.272C525.511 588.272 524 586.761 524 584.896C524 583.03 525.513 581.519 527.376 581.519ZM639.245 595.02C641.108 595.02 642.621 596.533 642.621 598.396C642.621 600.26 641.108 601.773 639.245 601.773C637.381 601.773 635.868 600.262 635.868 598.396C635.868 596.531 637.379 595.02 639.245 595.02ZM623.264 595.02C625.127 595.02 626.64 596.533 626.64 598.396C626.64 600.26 625.127 601.773 623.264 601.773C621.4 601.773 619.887 600.262 619.887 598.396C619.887 596.531 621.398 595.02 623.264 595.02ZM607.283 595.02C609.146 595.02 610.659 596.533 610.659 598.396C610.659 600.26 609.146 601.773 607.283 601.773C605.419 601.773 603.907 600.262 603.907 598.396C603.907 596.531 605.417 595.02 607.283 595.02ZM591.3 595.02C593.163 595.02 594.676 596.533 594.676 598.396C594.676 600.26 593.166 601.773 591.3 601.773C589.436 601.773 587.926 600.262 587.926 598.396C587.926 596.531 589.436 595.02 591.3 595.02ZM575.319 595.02C577.182 595.02 578.695 596.533 578.695 598.396C578.695 600.26 577.185 601.773 575.319 601.773C573.455 601.773 571.942 600.262 571.942 598.396C571.942 596.531 573.455 595.02 575.319 595.02ZM559.338 595.02C561.202 595.02 562.714 596.533 562.714 598.396C562.714 600.26 561.204 601.773 559.338 601.773C557.475 601.773 555.962 600.262 555.962 598.396C555.962 596.531 557.475 595.02 559.338 595.02ZM543.357 595.02C545.221 595.02 546.734 596.533 546.734 598.396C546.734 600.26 545.223 601.773 543.357 601.773C541.494 601.773 539.981 600.262 539.981 598.396C539.981 596.531 541.494 595.02 543.357 595.02ZM527.376 595.02C529.24 595.02 530.753 596.533 530.753 598.396C530.753 600.26 529.242 601.773 527.376 601.773C525.511 601.773 524 600.262 524 598.396C524 596.531 525.513 595.02 527.376 595.02Z" fill="url(#paint8_linear_2_8938)"/>
<path d="M662.075 747.15C651.54 747.15 643 738.61 643 728.075C643 717.54 651.54 709 662.075 709C672.61 709 681.15 717.54 681.15 728.075C681.15 738.61 672.61 747.15 662.075 747.15Z" stroke="url(#paint9_linear_2_8938)" stroke-width="1.1896" stroke-miterlimit="10"/>
<path d="M688.038 248.612C668.982 248.612 653.534 233.165 653.534 214.109C653.534 195.053 668.982 179.606 688.038 179.606C707.093 179.606 722.541 195.053 722.541 214.109C722.541 233.165 707.093 248.612 688.038 248.612Z" stroke="url(#paint10_linear_2_8938)" stroke-width="1.1896" stroke-miterlimit="10"/>
<defs>
<linearGradient id="paint0_linear_2_8938" x1="1029" y1="698.192" x2="52.0003" y2="698.192" gradientUnits="userSpaceOnUse">
<stop stop-color="#C22428"/>
<stop offset="1" stop-color="#C22428" stop-opacity="0"/>
</linearGradient>
<linearGradient id="paint1_linear_2_8938" x1="814.772" y1="1104.86" x2="699.848" y2="489.564" gradientUnits="userSpaceOnUse">
<stop stop-color="#C22428" stop-opacity="0"/>
<stop offset="1" stop-color="#C22428"/>
</linearGradient>
<linearGradient id="paint2_linear_2_8938" x1="482.653" y1="632.831" x2="840.966" y2="1163.14" gradientUnits="userSpaceOnUse">
<stop stop-color="#C22428" stop-opacity="0"/>
<stop offset="1" stop-color="#C22428"/>
</linearGradient>
<linearGradient id="paint3_linear_2_8938" x1="1062.8" y1="26.3374" x2="87.9417" y2="26.3374" gradientUnits="userSpaceOnUse">
<stop stop-color="#C22428"/>
<stop offset="1" stop-color="#C22428"/>
</linearGradient>
<linearGradient id="paint4_linear_2_8938" x1="542.86" y1="267.74" x2="294.568" y2="267.74" gradientUnits="userSpaceOnUse">
<stop stop-color="#C22428"/>
<stop offset="1" stop-color="#C22428"/>
</linearGradient>
<linearGradient id="paint5_linear_2_8938" x1="1037.66" y1="902.389" x2="118.921" y2="902.389" gradientUnits="userSpaceOnUse">
<stop stop-color="#C22428"/>
<stop offset="1" stop-color="#C22428"/>
</linearGradient>
<linearGradient id="paint6_linear_2_8938" x1="161.602" y1="1216.38" x2="630.974" y2="548.585" gradientUnits="userSpaceOnUse">
<stop stop-color="#C22428"/>
<stop offset="1" stop-color="#C22428"/>
</linearGradient>
<linearGradient id="paint7_linear_2_8938" x1="929.3" y1="897.234" x2="426.997" y2="897.234" gradientUnits="userSpaceOnUse">
<stop stop-color="#D63D41"/>
<stop offset="1" stop-color="#FFCDCE" stop-opacity="0"/>
</linearGradient>
<linearGradient id="paint8_linear_2_8938" x1="686.348" y1="647.357" x2="495.397" y2="406.499" gradientUnits="userSpaceOnUse">
<stop stop-color="#C22428"/>
<stop offset="1" stop-color="#C22428" stop-opacity="0"/>
</linearGradient>
<linearGradient id="paint9_linear_2_8938" x1="662.073" y1="748.549" x2="662.073" y2="707.601" gradientUnits="userSpaceOnUse">
<stop stop-color="#AE0004"/>
<stop offset="1" stop-color="#E4878A"/>
</linearGradient>
<linearGradient id="paint10_linear_2_8938" x1="688.034" y1="251.144" x2="688.034" y2="177.075" gradientUnits="userSpaceOnUse">
<stop stop-color="#AE0004"/>
<stop offset="1" stop-color="#E4878A"/>
</linearGradient>
</defs>
</svg>
