<svg width="446" height="938" viewBox="0 0 446 938" fill="none" xmlns="http://www.w3.org/2000/svg">
    <path
        d="M71.4509 210.335L40.6631 84.4838H40.0822V210.335H6.09946V2.33059H45.6007L75.5172 125.269H76.0981V2.33059H110.081V210.335H71.4509Z"
        fill="white" />
    <path
        d="M223.381 159.936C223.381 178.387 219.315 191.885 211.183 200.43C203.244 208.782 190.851 212.957 174.005 212.957C164.904 212.957 157.256 211.986 151.059 210.044C144.863 207.908 139.829 204.703 135.956 200.43C132.083 195.963 129.275 190.428 127.533 183.825C125.984 177.222 125.209 169.356 125.209 160.228V2.33059H162.677V164.015C162.677 174.697 166.55 180.038 174.295 180.038C182.041 180.038 185.913 174.697 185.913 164.015V2.33059H223.381V159.936Z"
        fill="white" />
    <path
        d="M238.403 210.335V2.33059H320.31V36.7067H275.871V87.1057H314.792V119.151H275.871V175.959H322.053V210.335H238.403Z"
        fill="white" />
    <path
        d="M428.104 152.362C428.104 192.759 411.451 212.957 378.146 212.957C370.014 212.957 362.946 211.986 356.943 210.044C351.134 207.908 346.294 204.315 342.421 199.265C338.548 194.216 335.547 187.418 333.417 178.872C331.481 170.327 330.319 159.548 329.931 146.536H364.205C364.398 153.333 364.786 158.965 365.366 163.432C366.141 167.899 367.012 171.492 367.981 174.211C369.142 176.736 370.498 178.581 372.047 179.746C373.79 180.912 375.919 181.494 378.437 181.494C387.344 181.494 391.797 174.6 391.797 160.81C391.797 153.042 390.248 146.536 387.15 141.292C384.246 135.854 380.47 131.095 375.823 127.017C371.369 122.744 366.431 118.666 361.01 114.781C355.782 110.703 350.844 106.042 346.197 100.798C341.743 95.3598 337.967 88.9507 334.869 81.5705C331.965 73.9961 330.512 64.6738 330.512 53.6035C330.512 35.7357 334.579 22.3348 342.711 13.4009C351.038 4.46696 363.043 0 378.727 0C387.828 0 395.38 1.35951 401.382 4.07854C407.385 6.79756 412.129 10.6819 415.614 15.7315C419.293 20.7811 421.907 27.0931 423.457 34.6675C425.006 42.2419 425.78 50.7874 425.78 60.3039H395.283C394.896 50.9816 393.831 43.6985 392.088 38.4547C390.539 33.0166 386.86 30.2976 381.051 30.2976C378.34 30.2976 376.113 30.8803 374.37 32.0456C372.821 33.0166 371.563 34.3761 370.595 36.1241C369.82 37.872 369.239 39.9113 368.852 42.2419C368.465 44.3782 368.271 46.6117 368.271 48.9423C368.271 56.3225 369.723 62.5374 372.628 67.587C375.726 72.4424 379.405 76.9093 383.665 80.9879C388.118 84.8722 392.959 88.7565 398.187 92.6408C403.415 96.5251 408.159 101.089 412.419 106.333C416.873 111.383 420.552 117.597 423.457 124.978C426.555 132.358 428.104 141.486 428.104 152.362Z"
        fill="white" />
    <path d="M29.9164 416.843V242.923H0V208.838H97.301V242.923H67.3845V416.843H29.9164Z" fill="white" />
    <path
        d="M206.985 261.276C206.985 275.843 205.145 287.204 201.466 295.361C197.787 303.518 191.591 309.539 182.877 313.423V314.297C187.137 315.657 190.623 317.405 193.333 319.541C196.238 321.483 198.465 324.299 200.014 327.989C201.757 331.485 203.015 336.146 203.79 341.973C204.564 347.605 205.048 354.694 205.242 363.24C205.629 378 206.113 389.75 206.694 398.49C207.275 407.229 208.534 412.667 210.47 414.804V416.843H172.711C172.131 415.289 171.646 412.959 171.259 409.851C170.872 406.744 170.485 403.054 170.097 398.781C169.904 394.508 169.71 389.944 169.517 385.089C169.323 380.233 169.226 375.281 169.226 370.231C169.032 361.686 168.645 354.888 168.064 349.839C167.483 344.789 166.515 341.002 165.16 338.477C163.804 335.758 162.062 334.107 159.932 333.525C157.995 332.748 155.575 332.359 152.67 332.359H144.828V416.843H107.36V208.838H157.898C175.326 208.838 187.815 213.305 195.367 222.239C203.112 231.173 206.985 244.185 206.985 261.276ZM170.678 269.142C170.678 258.849 169.323 251.469 166.612 247.002C163.901 242.34 159.254 240.01 152.67 240.01H145.409V303.227H153.542C159.738 303.227 164.095 300.314 166.612 294.487C169.323 288.467 170.678 280.018 170.678 269.142Z"
        fill="white" />
    <path
        d="M324.191 312.841C324.191 332.068 323.416 348.479 321.867 362.074C320.511 375.669 317.801 386.74 313.734 395.285C309.862 403.636 304.44 409.754 297.469 413.638C290.692 417.523 281.882 419.465 271.038 419.465C260.388 419.465 251.675 417.523 244.898 413.638C238.12 409.754 232.795 403.636 228.923 395.285C225.244 386.74 222.63 375.669 221.081 362.074C219.725 348.479 219.047 332.068 219.047 312.841C219.047 294.39 219.725 278.464 221.081 265.064C222.436 251.663 224.953 240.69 228.632 232.144C232.505 223.404 237.83 216.995 244.607 212.917C251.578 208.644 260.485 206.508 271.329 206.508C282.366 206.508 291.37 208.547 298.34 212.625C305.311 216.704 310.636 223.113 314.315 231.853C318.188 240.398 320.802 251.371 322.157 264.772C323.513 278.173 324.191 294.196 324.191 312.841ZM286.142 312.841C286.142 297.303 285.948 284.776 285.561 275.26C285.173 265.743 284.399 258.46 283.237 253.411C282.075 248.167 280.526 244.671 278.59 242.923C276.653 241.175 274.233 240.301 271.329 240.301C268.424 240.301 266.004 241.369 264.067 243.506C262.325 245.642 260.872 249.429 259.71 254.867C258.742 260.305 258.065 267.686 257.677 277.008C257.29 286.33 257.096 298.274 257.096 312.841C257.096 328.184 257.29 340.613 257.677 350.13C258.065 359.452 258.742 366.735 259.71 371.979C260.872 377.223 262.325 380.719 264.067 382.467C266.004 384.215 268.327 385.089 271.038 385.089C273.943 385.089 276.363 384.021 278.299 381.884C280.236 379.748 281.785 375.961 282.947 370.523C284.108 364.89 284.883 357.51 285.27 348.382C285.851 339.06 286.142 327.213 286.142 312.841Z"
        fill="white" />
    <path
        d="M432.075 358.87C432.075 399.266 415.422 419.465 382.117 419.465C373.985 419.465 366.917 418.494 360.914 416.552C355.105 414.415 350.265 410.822 346.392 405.773C342.519 400.723 339.518 393.926 337.388 385.38C335.452 376.835 334.29 366.056 333.902 353.043H368.176C368.369 359.841 368.757 365.473 369.337 369.94C370.112 374.407 370.983 378 371.952 380.719C373.113 383.244 374.469 385.089 376.018 386.254C377.761 387.419 379.891 388.002 382.408 388.002C391.315 388.002 395.768 381.107 395.768 367.318C395.768 359.549 394.219 353.043 391.121 347.799C388.217 342.361 384.441 337.603 379.794 333.525C375.34 329.252 370.402 325.173 364.981 321.289C359.753 317.21 354.815 312.549 350.168 307.305C345.714 301.867 341.938 295.458 338.84 288.078C335.936 280.504 334.483 271.181 334.483 260.111C334.483 242.243 338.55 228.842 346.682 219.908C355.009 210.975 367.014 206.508 382.698 206.508C391.799 206.508 399.351 207.867 405.353 210.586C411.356 213.305 416.1 217.189 419.585 222.239C423.264 227.289 425.878 233.601 427.428 241.175C428.977 248.749 429.751 257.295 429.751 266.812H399.254C398.867 257.489 397.802 250.206 396.059 244.962C394.51 239.524 390.831 236.805 385.022 236.805C382.311 236.805 380.084 237.388 378.341 238.553C376.792 239.524 375.534 240.884 374.566 242.632C373.791 244.38 373.21 246.419 372.823 248.749C372.436 250.886 372.242 253.119 372.242 255.45C372.242 262.83 373.694 269.045 376.599 274.095C379.697 278.95 383.376 283.417 387.636 287.495C392.089 291.38 396.93 295.264 402.158 299.148C407.386 303.033 412.131 307.597 416.39 312.841C420.844 317.89 424.523 324.105 427.428 331.485C430.526 338.865 432.075 347.994 432.075 358.87Z"
        fill="white" />
    <path
        d="M105.143 545.859C104.756 560.425 103.594 572.855 101.658 583.148C99.915 593.247 97.0105 601.501 92.9442 607.91C88.8779 614.32 83.6498 618.981 77.2599 621.894C71.0636 624.613 63.3182 625.973 54.0238 625.973C43.9549 625.973 35.6286 624.03 29.0451 620.146C22.4615 616.068 17.2334 609.756 13.3607 601.21C9.68169 592.665 7.06763 581.691 5.51856 568.291C3.96949 554.695 3.19496 538.284 3.19496 519.057C3.19496 499.83 4.06631 483.515 5.80901 470.115C7.55172 456.714 10.4562 445.838 14.5225 437.486C18.7825 428.941 24.301 422.726 31.0782 418.842C38.049 414.957 46.7625 413.015 57.2188 413.015C66.5132 413.015 74.1617 414.472 80.1644 417.385C86.3607 420.298 91.2015 424.765 94.6869 430.786C98.3659 436.612 100.883 443.993 102.239 452.927C103.788 461.86 104.562 472.348 104.562 484.389H71.1604C71.1604 469.629 70.0954 459.141 67.9654 452.927C66.0291 446.712 62.4469 443.604 57.2188 443.604C54.3143 443.604 51.8938 444.575 49.9575 446.517C48.0212 448.265 46.3753 451.858 45.0198 457.296C43.6644 462.54 42.6962 470.115 42.1153 480.02C41.5344 489.925 41.244 502.937 41.244 519.057C41.244 534.788 41.4376 547.607 41.8249 557.512C42.4058 567.417 43.2771 575.088 44.4389 580.526C45.6007 585.964 47.053 589.654 48.7957 591.596C50.732 593.539 53.0556 594.51 55.7665 594.51C58.2838 594.51 60.4137 593.83 62.1564 592.47C63.8991 591.111 65.3514 588.586 66.5132 584.896C67.8686 581.206 68.8368 576.253 69.4177 570.038C70.1922 563.824 70.6763 555.764 70.87 545.859H105.143Z"
        fill="white" />
    <path d="M114.099 623.351V415.346H151.568V588.974H193.973V623.351H114.099Z" fill="white" />
    <path d="M199.624 623.351V415.346H237.092V623.351H199.624Z" fill="white" />
    <path
        d="M248.875 623.351V415.346H330.782V449.722H286.343V500.121H325.264V532.166H286.343V588.974H332.525V623.351H248.875Z"
        fill="white" />
    <path
        d="M405.174 623.351L374.386 497.499H373.805V623.351H339.823V415.346H379.324L409.24 538.284H409.821V415.346H443.804V623.351H405.174Z"
        fill="white" />
    <path d="M46.2956 934.034V670.952H1.04231V619.394H148.225V670.952H102.972V934.034H46.2956Z" fill="white" />
    <path
        d="M161.245 934.034V619.394H285.142V671.393H217.921V747.629H276.794V796.103H217.921V882.035H287.778V934.034H161.245Z"
        fill="white" />
    <path
        d="M446 846.34C446 907.447 420.81 938 370.431 938C358.129 938 347.439 936.531 338.359 933.593C329.572 930.362 322.249 924.927 316.391 917.288C310.533 909.65 305.993 899.368 302.771 886.441C299.842 873.515 298.085 857.21 297.499 837.527H349.342C349.635 847.809 350.221 856.329 351.1 863.086C352.271 869.843 353.59 875.278 355.054 879.391C356.811 883.21 358.862 886.001 361.205 887.763C363.841 889.526 367.063 890.407 370.871 890.407C384.344 890.407 391.081 879.978 391.081 859.12C391.081 847.368 388.738 837.527 384.051 829.595C379.658 821.369 373.946 814.171 366.917 808.002C360.18 801.538 352.711 795.369 344.51 789.493C336.601 783.324 329.132 776.273 322.103 768.341C315.366 760.115 309.654 750.42 304.968 739.257C300.574 727.799 298.378 713.698 298.378 696.952C298.378 669.924 304.528 649.653 316.83 636.139C329.425 622.625 347.585 615.868 371.31 615.868C385.076 615.868 396.5 617.925 405.58 622.038C414.66 626.151 421.836 632.026 427.108 639.665C432.673 647.303 436.627 656.851 438.97 668.308C441.314 679.766 442.485 692.692 442.485 707.088H396.353C395.767 692.986 394.156 681.969 391.52 674.037C389.177 665.811 383.612 661.698 374.825 661.698C370.724 661.698 367.356 662.58 364.72 664.342C362.377 665.811 360.473 667.868 359.008 670.512C357.837 673.156 356.958 676.241 356.372 679.766C355.786 682.997 355.493 686.376 355.493 689.901C355.493 701.065 357.69 710.466 362.084 718.104C366.77 725.449 372.335 732.206 378.779 738.375C385.516 744.251 392.838 750.127 400.747 756.002C408.655 761.878 415.831 768.782 422.275 776.714C429.012 784.352 434.577 793.753 438.97 804.917C443.657 816.081 446 829.888 446 846.34Z"
        fill="white" />
</svg>