<svg width="472" height="136" viewBox="0 0 472 136" fill="none" xmlns="http://www.w3.org/2000/svg">
<path d="M115.666 60.3906L115.715 56.0202L110.203 55.9705C110.104 53.9344 109.955 51.9478 109.657 49.9613L115.07 48.968L114.275 44.697L108.812 45.7399C108.316 43.7534 107.769 41.8662 107.074 39.979L112.239 37.8931L110.6 33.8704L105.386 35.9562C104.541 34.1187 103.598 32.3805 102.555 30.6919L107.273 27.6128L104.889 23.9874L100.121 27.1162C98.9293 25.527 97.6381 23.9874 96.2971 22.4975L100.37 18.4748L97.2904 15.3956L93.1684 19.468C91.6785 18.1271 90.1389 16.8855 88.5 15.7433L91.7281 10.9259L88.1027 8.49244L84.8249 13.3594C83.1364 12.3165 81.3485 11.4226 79.5606 10.5783L81.8451 5.165L77.8224 3.47643L75.5379 8.93939C73.7003 8.29377 71.7635 7.74748 69.8266 7.30051L71.0185 1.4899L66.7475 0.645617L65.5556 6.50591C63.6187 6.20793 61.6322 6.05894 59.6456 6.00928V0H55.2753V6.05893C53.7357 6.15826 52.1961 6.30726 50.7062 6.50591L49.6633 0.546315L45.3923 1.29126L46.4352 7.30051C44.4983 7.74748 42.6111 8.29377 40.7736 8.93939L38.5884 3.2778L34.516 4.867L36.7508 10.5783C34.963 11.3729 33.1751 12.2668 31.4865 13.3098L28.2088 8.14479L24.5337 10.479L27.9108 15.495C26.3216 16.6372 24.782 17.8788 23.2921 19.1701L19.021 14.75L15.8923 17.7795L20.1633 22.1995C18.8224 23.6397 17.5311 25.1296 16.3392 26.7189L11.3232 23.2424L8.84007 26.8182L13.9057 30.3443C12.8628 31.9832 11.9192 33.7214 11.0253 35.5093L5.4133 33.0758L3.67509 37.0488L9.28704 39.4823C8.59175 41.3199 7.99579 43.2071 7.49916 45.0943L1.63889 43.803L0.74495 48.0741L6.70455 49.3653C6.3569 51.3022 6.15825 53.2391 6.05892 55.2256L0.0496644 55.1263L0 59.4966L6.05892 59.596C6.10859 61.5825 6.25758 63.569 6.55556 65.5059L0.59596 66.5488L1.39057 70.8199L7.25084 69.7273C7.69781 71.6642 8.24411 73.5514 8.88973 75.4386L3.42677 77.6237L5.06566 81.6465L10.5286 79.4613C11.3729 81.2988 12.2668 83.0371 13.2601 84.7256L8.3931 87.904L10.7769 91.5295L15.6439 88.3013C16.7862 89.9402 18.0278 91.4798 19.3687 92.9697L15.2466 96.9924L18.3258 100.072L22.4478 95.9992C23.8881 97.3401 25.4276 98.6313 27.0168 99.8232L23.8384 104.541L27.4638 106.975L30.6423 102.257C32.3308 103.3 34.1187 104.243 35.9066 105.137L33.7214 110.302L37.7441 111.991L39.8796 106.826C41.1212 107.273 42.3628 107.67 43.6044 108.018L35.2113 135.084L46.5345 114.424L48.7694 114.871L49.862 109.458C51.8485 109.756 53.835 109.955 55.8712 110.054V115.567H60.2416V110.054C61.8308 110.004 63.3704 109.855 64.9099 109.657L65.8535 115.02L70.1246 114.275L69.181 108.912C71.1675 108.465 73.1044 107.918 74.9916 107.273L76.9285 112.289L81.0008 110.7L79.064 105.684C80.9015 104.889 82.6894 103.945 84.4276 102.952L87.3081 107.471L90.9832 105.137L88.1027 100.568C89.7416 99.4259 91.3308 98.1347 92.8207 96.7938L96.5455 100.668L99.6743 97.6381L95.9495 93.7643C97.3401 92.3241 98.6313 90.7845 99.8729 89.1456L104.293 92.1751L106.776 88.5993L102.356 85.5202C103.399 83.8317 104.392 82.0438 105.286 80.2062L110.203 82.3418L111.941 78.3687L106.975 76.2332C107.67 74.346 108.266 72.4091 108.763 70.4722L114.027 71.6145L114.921 67.3435L109.607 66.2012C109.905 64.2146 110.104 62.2281 110.203 60.1919L115.666 60.3906ZM58.1061 101.462C56.6658 101.462 55.2753 101.412 53.8847 101.263L65.7046 79.7593L59.1987 84.1296L70.0749 52.5934L62.4764 55.8712L76.5808 22.1995L51.6002 31.9832L44.0017 65.6549L52.6928 61.2845L39.6313 93.8636L49.415 89.4933L46.2365 99.7736C28.0101 94.6086 14.6507 77.8224 14.6507 57.9571C14.6507 33.9697 34.1187 14.5017 58.1061 14.5017C82.0934 14.5017 101.561 33.9697 101.561 57.9571C101.561 81.9941 82.0934 101.462 58.1061 101.462Z" fill="white"/>
<path d="M66.7972 69.9756C73.8494 59.6457 83.633 57.4605 83.633 57.4605C78.2197 60.7382 65.7046 76.4815 65.7046 76.4815C77.6734 72.1111 84.1793 66.6978 87.4571 60.1919C90.7349 53.6861 95.0556 49.3157 95.0556 49.3157C68.9327 50.4083 66.7972 69.9756 66.7972 69.9756Z" fill="white"/>
<path d="M153.062 75.9847H133.296V43.0083H152.317V49.0672H140.746V56.4174H151.523V62.4266H140.746V69.9755H153.062V75.9847Z" fill="white"/>
<path d="M186.883 74.793C184.499 75.9352 181.321 76.5312 177.447 76.5312C172.381 76.5312 168.408 75.0413 165.528 72.0615C162.647 69.0817 161.157 65.1086 161.157 60.192C161.157 54.9277 162.796 50.6566 166.024 47.3788C169.302 44.1011 173.524 42.4622 178.689 42.4622C181.917 42.4622 184.648 42.8595 186.833 43.7037V50.8553C184.648 49.5144 182.115 48.8687 179.284 48.8687C176.205 48.8687 173.673 49.862 171.785 51.7989C169.898 53.7357 168.954 56.3679 168.954 59.6953C168.954 62.8738 169.848 65.4066 171.636 67.3435C173.424 69.2307 175.858 70.1743 178.887 70.1743C181.768 70.1743 184.449 69.479 186.833 68.0388V74.793H186.883Z" fill="white"/>
<path d="M210.821 76.5809C206.103 76.5809 202.229 75.0413 199.249 71.9622C196.269 68.8831 194.779 64.8603 194.779 59.9436C194.779 54.729 196.269 50.5076 199.299 47.2795C202.328 44.0514 206.301 42.4622 211.317 42.4622C216.035 42.4622 219.81 44.0017 222.74 47.0808C225.67 50.16 227.11 54.2324 227.11 59.2484C227.11 64.4133 225.62 68.6347 222.591 71.7635C219.611 74.9916 215.688 76.5809 210.821 76.5809ZM211.168 48.8191C208.536 48.8191 206.5 49.8123 204.96 51.7492C203.421 53.6861 202.676 56.2686 202.676 59.4967C202.676 62.7744 203.421 65.357 204.96 67.2442C206.5 69.1314 208.486 70.075 210.97 70.075C213.552 70.075 215.539 69.1314 217.078 67.2938C218.568 65.4563 219.313 62.8738 219.313 59.596C219.313 56.1692 218.568 53.5371 217.128 51.6002C215.688 49.8123 213.701 48.8191 211.168 48.8191Z" fill="white"/>
<path d="M257.256 75.9847H237.49V43.0083H256.511V49.0672H244.939V56.4174H255.716V62.4266H244.939V69.9755H257.306V75.9847H257.256Z" fill="white"/>
<path d="M287.054 75.9847H267.387V43.0083H274.837V69.9755H287.054V75.9847Z" fill="white"/>
<path d="M316.107 75.9847H296.341V43.0083H315.362V49.0672H303.79V56.4174H314.567V62.4266H303.79V69.9755H316.157V75.9847H316.107Z" fill="white"/>
<path d="M349.928 74.793C347.544 75.9352 344.365 76.5312 340.491 76.5312C335.426 76.5312 331.453 75.0413 328.572 72.0615C325.692 69.0817 324.202 65.1086 324.202 60.192C324.202 54.9277 325.841 50.6566 329.069 47.3788C332.347 44.1011 336.568 42.4622 341.733 42.4622C344.961 42.4622 347.693 42.8595 349.878 43.7037V50.8553C347.693 49.5144 345.16 48.8687 342.329 48.8687C339.25 48.8687 336.717 49.862 334.83 51.7989C332.943 53.7357 331.999 56.3679 331.999 59.6953C331.999 62.8738 332.893 65.4066 334.681 67.3435C336.469 69.2307 338.902 70.1743 341.932 70.1743C344.812 70.1743 347.494 69.479 349.878 68.0388V74.793H349.928Z" fill="white"/>
<path d="M383.699 49.0672H374.312V75.9847H366.863V49.0672H357.476V43.0083H383.699V49.0672Z" fill="white"/>
<path d="M420.648 75.9848H412.106L406.991 67.4924C406.593 66.8468 406.246 66.2508 405.898 65.7542C405.551 65.2576 405.203 64.8106 404.806 64.4629C404.408 64.1153 404.061 63.8173 403.663 63.6187C403.266 63.42 402.869 63.3207 402.372 63.3207H400.386V75.9352H392.936V42.9587H404.706C412.702 42.9587 416.725 45.9386 416.725 51.9478C416.725 53.0901 416.526 54.1826 416.178 55.1262C415.831 56.1195 415.334 56.9638 414.689 57.7584C414.043 58.553 413.248 59.1987 412.354 59.7946C411.46 60.3906 410.418 60.7879 409.325 61.1355V61.2348C409.822 61.3838 410.269 61.6321 410.765 61.9798C411.212 62.3274 411.659 62.7247 412.106 63.1717C412.553 63.6187 412.95 64.1153 413.348 64.6616C413.745 65.2079 414.093 65.7045 414.44 66.2012L420.648 75.9848ZM400.435 48.5707V57.7584H403.663C405.253 57.7584 406.544 57.3114 407.487 56.3678C408.481 55.4242 408.977 54.282 408.977 52.8914C408.977 50.0109 407.239 48.5707 403.812 48.5707H400.435Z" fill="white"/>
<path d="M436.044 75.9847H428.594V43.0083H436.044V75.9847Z" fill="white"/>
<path d="M472 74.793C469.616 75.9352 466.438 76.5312 462.564 76.5312C457.498 76.5312 453.525 75.0413 450.645 72.0615C447.764 69.0817 446.274 65.1086 446.274 60.192C446.274 54.9277 447.913 50.6566 451.141 47.3788C454.419 44.1011 458.641 42.4622 463.806 42.4622C467.034 42.4622 469.765 42.8595 471.95 43.7037V50.8553C469.765 49.5144 467.232 48.8687 464.402 48.8687C461.322 48.8687 458.79 49.862 456.902 51.7989C455.015 53.7357 454.072 56.3679 454.072 59.6953C454.072 62.8738 454.965 65.4066 456.753 67.3435C458.541 69.2307 460.975 70.1743 464.004 70.1743C466.885 70.1743 469.566 69.479 471.95 68.0388V74.793H472Z" fill="white"/>
</svg>
