<svg width="440" height="280" viewBox="0 0 440 280" fill="none" xmlns="http://www.w3.org/2000/svg">
<path d="M228.74 39.3671C239.611 39.3671 248.423 30.5545 248.423 19.6835C248.423 8.81262 239.611 0 228.74 0C217.869 0 209.056 8.81262 209.056 19.6835C209.056 30.5545 217.869 39.3671 228.74 39.3671Z" fill="white"/>
<path d="M68.8674 44.3257C68.8674 44.3257 78.8845 71.1714 126.315 78.6842C173.746 86.197 215.017 74.9278 215.017 74.9278C215.017 74.9278 253.733 64.3097 264.351 79.9364C274.969 95.563 252.48 118.051 235.602 143.645C235.602 143.645 285.587 102.425 291.196 74.9278C296.806 47.431 270.611 44.3257 270.611 44.3257C270.611 44.3257 255.335 40.2688 211.611 49.0337C167.836 57.7486 88.551 69.6188 68.8674 44.3257Z" fill="white"/>
<path d="M130.873 85.1953C130.873 85.1953 136.533 101.724 161.876 108.034C171.693 110.488 182.01 110.689 192.077 109.437C199.841 108.485 207.804 106.482 215.718 105.48C221.928 104.679 231.945 103.026 236.353 108.886C243.515 118.352 229.942 134.179 220.876 151.208C220.876 151.208 247.822 123.811 250.878 105.58C253.933 87.349 239.759 85.2454 239.759 85.2454C239.759 85.2454 231.495 82.5408 207.904 88.3507C184.264 94.1105 141.491 101.974 130.873 85.1953Z" fill="white"/>
<path d="M0 186.067H30.1514L28.8993 193.83H9.41605V208.355H22.9391L21.687 216.118H9.41605V235.902H0V186.067Z" fill="white"/>
<path d="M39.5674 186.067H69.7188V193.83H48.9834V206.802H66.8639V214.365H48.9834V228.139H70.2697V235.902H39.5674V186.067Z" fill="white"/>
<path d="M77.0813 186.067H95.112C98.6681 186.067 101.974 186.668 104.979 187.92C107.984 189.172 110.538 190.875 112.692 193.079C114.846 195.283 116.498 197.887 117.751 200.993C118.953 204.048 119.554 207.404 119.554 211.01C119.554 214.616 118.953 217.972 117.751 221.027C116.549 224.082 114.846 226.736 112.692 228.94C110.538 231.144 107.984 232.847 104.979 234.099C101.974 235.351 98.7182 235.952 95.112 235.952H77.0813V186.067ZM86.4974 228.139H94.6112C96.8149 228.139 98.8684 227.738 100.772 226.887C102.675 226.035 104.278 224.883 105.58 223.381C106.932 221.878 107.934 220.075 108.685 217.972C109.436 215.868 109.787 213.564 109.787 210.96C109.787 208.455 109.436 206.151 108.685 203.998C107.934 201.894 106.882 200.041 105.58 198.588C104.228 197.086 102.625 195.934 100.772 195.083C98.8684 194.231 96.8149 193.83 94.6112 193.83H86.4974V228.139Z" fill="white"/>
<path d="M127.167 186.067H158.821V193.83H137.084V206.802H155.866V214.365H137.084V228.139H159.472V235.902H127.217V186.067H127.167Z" fill="white"/>
<path d="M194.231 211.511H211.26V232.697C208.055 233.999 204.899 235.001 201.744 235.702C198.589 236.403 195.433 236.754 192.228 236.754C188.121 236.754 184.414 236.103 181.009 234.85C177.603 233.548 174.698 231.795 172.194 229.541C169.689 227.288 167.836 224.533 166.484 221.377C165.131 218.222 164.43 214.766 164.43 210.96C164.43 207.203 165.131 203.747 166.484 200.542C167.836 197.387 169.739 194.682 172.194 192.378C174.648 190.124 177.553 188.321 180.908 187.069C184.264 185.767 187.97 185.166 192.027 185.166C197.737 185.166 203.397 186.518 208.956 189.173V197.988C203.697 194.632 198.538 192.929 193.53 192.929C190.825 192.929 188.321 193.38 186.067 194.281C183.763 195.183 181.81 196.435 180.157 197.988C178.504 199.59 177.252 201.494 176.351 203.697C175.449 205.901 174.998 208.305 174.998 210.96C174.998 213.614 175.449 216.018 176.301 218.222C177.152 220.426 178.404 222.329 180.007 223.932C181.61 225.535 183.513 226.787 185.717 227.638C187.92 228.54 190.324 228.99 192.979 228.99C194.381 228.99 195.784 228.84 197.186 228.54C198.639 228.239 200.041 227.788 201.493 227.288V216.219L194.231 211.511Z" fill="white"/>
<path d="M261.646 217.27C261.646 220.125 261.095 222.73 260.043 225.134C258.991 227.538 257.489 229.591 255.636 231.294C253.733 232.997 251.529 234.349 248.874 235.301C246.22 236.253 243.415 236.754 240.31 236.754C237.154 236.754 234.299 236.253 231.695 235.301C229.091 234.349 226.837 232.997 224.933 231.294C223.03 229.591 221.578 227.538 220.526 225.134C219.474 222.73 218.973 220.125 218.973 217.27V186.067H228.489V216.619C228.489 218.422 228.79 220.025 229.391 221.528C229.992 222.98 230.793 224.282 231.845 225.384C232.897 226.486 234.149 227.337 235.552 227.938C237.004 228.54 238.607 228.84 240.31 228.84C242.063 228.84 243.615 228.54 245.068 227.938C246.47 227.337 247.722 226.486 248.774 225.384C249.826 224.282 250.677 223.03 251.228 221.528C251.829 220.075 252.08 218.422 252.08 216.619V186.067H261.546V217.27H261.646Z" fill="white"/>
<path d="M287.089 186.067H295.203L314.837 235.902H305.471L300.913 223.932H281.28L276.722 235.902H267.456L287.089 186.067ZM283.984 216.82H298.309L291.146 197.887L283.984 216.82Z" fill="white"/>
<path d="M328.76 214.966L311.03 186.067H321.849L333.569 206.201L345.238 186.067H356.107L338.377 214.966V235.902H328.81V214.966H328.76Z" fill="white"/>
<path d="M371.834 186.067H379.948L399.581 235.902H390.215L385.657 223.932H366.024L361.466 235.902H352.2L371.834 186.067ZM368.678 216.82H383.003L375.841 197.887L368.678 216.82Z" fill="white"/>
<path d="M407.294 224.683C412.002 227.688 416.61 229.191 421.218 229.191C423.973 229.191 426.227 228.539 427.929 227.237C429.632 225.935 430.484 224.232 430.484 222.078C430.484 220.376 429.883 219.073 428.731 218.072C427.529 217.07 426.026 216.218 424.223 215.517C422.42 214.816 420.467 214.165 418.413 213.464C416.36 212.813 414.406 211.911 412.603 210.809C410.8 209.707 409.298 208.255 408.096 206.552C406.894 204.799 406.343 202.495 406.343 199.59C406.343 197.486 406.793 195.533 407.645 193.78C408.496 192.027 409.748 190.475 411.301 189.222C412.854 187.92 414.757 186.969 416.961 186.267C419.165 185.566 421.569 185.216 424.173 185.216C428.631 185.216 433.088 186.117 437.596 187.97V196.585C435.492 195.333 433.339 194.381 431.185 193.78C429.031 193.129 426.928 192.829 424.824 192.829C422.17 192.829 420.016 193.43 418.363 194.632C416.71 195.834 415.859 197.436 415.859 199.49C415.859 201.143 416.46 202.445 417.612 203.346C418.814 204.298 420.316 205.099 422.12 205.801C423.923 206.502 425.876 207.153 427.929 207.804C429.983 208.455 431.936 209.357 433.739 210.509C435.542 211.661 437.045 213.113 438.247 214.916C439.449 216.719 440 219.023 440 221.928C440 224.082 439.549 226.085 438.648 227.938C437.746 229.792 436.494 231.344 434.941 232.646C433.339 233.949 431.435 234.95 429.232 235.702C427.028 236.403 424.574 236.804 421.919 236.804C419.515 236.804 417.061 236.503 414.657 235.952C412.203 235.401 409.799 234.55 407.394 233.448V224.683H407.294Z" fill="white"/>
<path d="M137.885 276.371L134.78 279.476C127.918 276.371 127.417 269.159 127.417 269.159L124.412 269.209L122.859 278.825H118.602L121.707 255.185H130.472C135.982 255.185 138.186 257.489 137.484 262.648C136.983 266.404 135.03 267.857 131.975 269.059C131.073 273.616 137.885 276.371 137.885 276.371ZM128.118 266.254C130.623 266.254 132.225 264.701 132.526 261.496C132.826 258.391 131.524 258.891 129.02 258.891H125.163L124.212 266.254H128.118Z" fill="white"/>
<path d="M162.627 258.741L161.726 265.102H173.245L172.745 268.658H161.225L160.273 275.169H173.596L173.095 278.725H155.816L159.221 255.085H176.1L175.599 258.641H162.627V258.741Z" fill="white"/>
<path d="M207.253 278.825L197.086 261.897L194.632 278.825H190.625L194.031 255.185H197.937L208.155 272.164L210.609 255.185H214.516L211.11 278.825H207.253Z" fill="white"/>
<path d="M234.349 273.466L231.344 278.775H227.187L241.011 255.135H245.118L252.03 278.775H247.772L246.27 273.466H234.349ZM242.313 259.442L236.353 269.96H245.268L242.313 259.442Z" fill="white"/>
<path d="M289.644 258.741L286.889 261.646C285.437 259.793 283.133 258.641 280.729 258.641C276.02 258.641 271.763 262.297 271.112 266.955C270.461 271.613 273.616 275.269 278.324 275.269C280.678 275.269 283.283 274.167 285.286 272.464L287.29 275.119C284.535 277.473 280.929 279.026 277.573 279.026C270.661 279.026 266.054 273.817 267.005 267.005C267.957 260.294 274.167 255.135 281.129 255.135C284.535 255.085 287.69 256.487 289.644 258.741Z" fill="white"/>
<path d="M310.479 258.741L309.578 265.102H321.097L320.596 268.658H309.077L308.125 275.169H321.448L320.947 278.725H303.617L307.023 255.085H323.902L323.401 258.641H310.479V258.741Z" fill="white"/>
</svg>
