<svg width="229" height="79" viewBox="0 0 229 79" fill="none" xmlns="http://www.w3.org/2000/svg">
    <g clip-path="url(#clip0_5_234)">
        <path
            d="M35.0903 66.5086C35.158 67.2513 35.2932 67.9603 35.4622 68.568C35.5636 68.8718 35.6312 69.1757 35.7665 69.412C35.8341 69.547 35.8679 69.6821 35.9355 69.7833C36.0031 69.8846 36.0707 70.0197 36.1045 70.121C36.544 70.9987 37.0173 71.5051 36.8482 71.7415C36.7806 71.8427 36.5778 71.8427 36.2397 71.7415C36.1721 71.7077 36.0707 71.6739 35.9693 71.6402C35.8679 71.6064 35.8003 71.5389 35.6988 71.4714C35.496 71.3363 35.2594 71.1675 35.0565 70.965C34.9551 70.8637 34.8537 70.7286 34.7185 70.6274C34.6171 70.4923 34.5157 70.3573 34.4142 70.1885C34.1776 69.8846 34.0424 69.547 33.8395 69.1757C33.5353 68.4329 33.2986 67.5889 33.231 66.6774C33.1634 65.7658 33.231 64.888 33.4001 64.1453C33.5691 63.3688 33.8057 62.6936 34.11 62.1872C34.6847 61.1406 35.3608 60.7017 35.5298 60.8368C35.7665 61.0056 35.5298 61.647 35.3608 62.6261C35.2594 63.1325 35.1918 63.7064 35.1242 64.3816C35.0227 65.0231 35.0227 65.7658 35.0903 66.5086Z"
            fill="white" />
        <path
            d="M31.0337 69.2095C30.9999 69.0069 30.9322 68.8381 30.8984 68.6693C30.8646 68.5005 30.8308 68.2979 30.8308 68.1291C30.7632 67.7578 30.797 67.4201 30.797 67.0825C30.8308 66.4073 30.9322 65.8334 31.1013 65.3607C31.4055 64.4154 31.8788 63.909 32.1154 64.0103C32.5887 64.1791 32.2169 66.3398 32.893 68.7368C33.1972 69.9522 33.7043 70.965 34.0762 71.7753C34.1776 71.9778 34.2452 72.1466 34.3128 72.3154C34.3804 72.4842 34.448 72.6193 34.4819 72.7543C34.5495 73.0244 34.5495 73.1932 34.4819 73.2945C34.3804 73.3958 34.2114 73.362 33.941 73.227C33.8057 73.1595 33.6705 73.0919 33.5015 72.9569C33.3325 72.8556 33.1634 72.7206 32.9944 72.518C32.2507 71.8766 31.4393 70.6949 31.0337 69.2095Z"
            fill="white" />
        <path
            d="M24.4415 61.4782C22.5822 61.1406 20.8243 61.1068 19.5397 61.073C18.2551 61.0393 17.4099 61.0393 17.3423 60.7692C17.2747 60.5329 18.0523 60.0602 19.3707 59.7226C20.7229 59.385 22.6498 59.1824 24.7796 59.5876C25.8614 59.7901 26.8417 60.1615 27.6869 60.6004C28.532 61.0393 29.2081 61.6132 29.6814 62.1534C29.9181 62.4235 30.1209 62.6935 30.2899 62.8961C30.4251 63.1324 30.5604 63.335 30.628 63.5376C30.7632 63.9089 30.797 64.1452 30.6956 64.2128C30.459 64.3816 29.8505 63.8076 28.8025 63.1324C28.2954 62.7948 27.6531 62.4572 26.9094 62.1534C26.1994 61.917 25.3543 61.647 24.4415 61.4782Z"
            fill="white" />
        <path
            d="M18.8974 55.7051C18.3227 56.009 17.7142 56.3128 17.1395 56.6167C16.5648 56.8868 15.9563 57.1568 15.3816 57.3932C14.8069 57.6632 14.2322 57.8658 13.6575 58.0684C13.3871 58.1697 13.0828 58.2709 12.8124 58.3722C12.5419 58.4735 12.2377 58.541 11.9672 58.6423C9.73605 59.3175 7.60629 59.6551 5.81459 59.6551C4.02289 59.6551 2.56924 59.3513 1.62268 58.9799C0.676118 58.6085 0.270449 58.1697 0.338061 58.0684C0.405672 57.9671 0.912758 58.1359 1.82551 58.2709C2.73827 58.406 4.0905 58.5073 5.74698 58.3385C7.40346 58.1697 9.33038 57.7308 11.4263 56.988C11.6968 56.8868 11.9672 56.8192 12.2039 56.7179C12.4743 56.6167 12.7448 56.5154 13.0152 56.3803C13.5561 56.1778 14.097 55.9415 14.6379 55.6714C15.1788 55.4013 15.7535 55.165 16.3282 54.8949C16.9029 54.591 17.4438 54.3209 18.0185 54.0171L18.4579 53.7808C18.5593 53.7132 18.6608 53.6795 18.7284 53.6457L18.965 53.5444C19.3031 53.4094 19.6073 53.3081 19.9454 53.1731C20.5877 52.9705 21.23 52.8017 21.8723 52.6667C23.1569 52.4303 24.4415 52.3291 25.6585 52.4303C26.8756 52.5316 28.025 52.8355 29.0391 53.2744C30.0533 53.7132 30.8984 54.2872 31.5746 54.8949C32.9268 56.144 33.7043 57.3932 34.11 58.3047C34.3466 58.7436 34.448 59.115 34.5156 59.385C34.5833 59.6551 34.5833 59.7902 34.5156 59.8239C34.448 59.8577 34.3466 59.7564 34.1776 59.5538C34.0086 59.3513 33.8057 59.0474 33.5015 58.6761C32.9268 57.9333 32.0478 56.8868 30.7632 55.9415C30.1209 55.4688 29.3434 55.0637 28.4644 54.7261C27.5855 54.3885 26.6051 54.2197 25.5571 54.1859C24.5092 54.1521 23.3936 54.2534 22.2442 54.4897C21.1286 54.7936 19.9792 55.1312 18.8974 55.7051Z"
            fill="white" />
        <path
            d="M24.712 56.9205C25.9628 56.853 27.2136 57.0218 28.2616 57.4607C29.3096 57.8658 30.1209 58.4735 30.6956 59.0812C31.2703 59.6889 31.6084 60.2628 31.7436 60.7017C31.9126 61.1406 31.9126 61.4107 31.7774 61.4782C31.5407 61.6132 30.966 60.8705 29.8166 60.094C29.2419 59.7226 28.532 59.3175 27.6869 59.0812C26.8417 58.8449 25.8614 58.7436 24.8134 58.7773C22.7174 58.9124 20.8243 59.6214 19.4383 60.094C18.0523 60.6004 17.1395 60.938 17.0043 60.7017C16.9367 60.6004 17.0719 60.3641 17.3761 60.0602C17.6804 59.7226 18.1875 59.3513 18.8298 58.9124C19.5059 58.5073 20.3172 58.0346 21.2976 57.6632C22.3118 57.2919 23.4612 56.988 24.712 56.9205Z"
            fill="white" />
        <path
            d="M14.0632 74.0035C15.2126 74.915 16.3282 75.6577 17.5452 76.1979C18.7284 76.7381 19.9792 77.0757 21.1624 77.2107C23.5626 77.4808 25.76 76.9069 27.4841 76.1979C29.2082 75.4552 30.5266 74.5774 31.4055 73.9697C32.2845 73.362 32.7577 72.9906 32.8592 73.0582C32.9606 73.1257 32.6563 73.6996 31.8788 74.5099C31.1013 75.3201 29.8843 76.4005 28.0588 77.3795C27.146 77.8522 26.098 78.2911 24.9148 78.5949C23.7316 78.8988 22.4132 79.0338 21.0272 78.9325C19.6411 78.8312 18.1875 78.4599 16.8353 77.8859C15.4492 77.2783 14.1308 76.4342 12.9476 75.4889C10.5474 73.6321 8.45143 71.5727 6.72734 69.5808C5.00325 67.5889 3.61722 65.6308 2.60304 63.9428C0.540894 60.533 -0.13522 58.1022 0.10142 58.0347C0.33806 57.9334 1.41984 60.0941 3.71863 63.2001C5.916 66.3398 9.39799 70.4248 14.0632 74.0035Z"
            fill="white" />
        <path
            d="M21.3652 75.1513C19.8778 74.9149 18.5255 74.4423 17.3761 73.9021C16.2267 73.3619 15.2464 72.7205 14.5027 72.1466C12.9814 70.9649 12.3053 69.9859 12.4743 69.8171C12.6433 69.6145 13.6575 70.1884 15.2464 71.0325C16.8353 71.8765 19.0664 72.8893 21.7033 73.2944C24.3063 73.7333 26.7403 73.3957 28.4644 72.9906C30.1885 72.5855 31.2365 72.1128 31.3717 72.3491C31.5407 72.5517 30.6618 73.4632 28.9039 74.2397C28.0249 74.6449 26.9094 74.9825 25.6247 75.185C24.2725 75.3876 22.8189 75.3876 21.3652 75.1513Z"
            fill="white" />
        <path
            d="M37.3215 65.9009C37.3891 66.7786 37.4567 67.4201 37.6934 68.0615C37.8962 68.703 38.2005 69.2769 38.5723 69.7833C38.9442 70.2897 39.3837 70.7286 39.8231 71.0662C40.2626 71.4038 40.7359 71.7077 41.1754 71.8765C41.6148 72.0791 42.0543 72.2141 42.46 72.3154C42.8319 72.4167 43.2037 72.4842 43.508 72.5517C44.1165 72.6867 44.4545 72.8218 44.4545 72.9231C44.4545 73.0581 44.1165 73.1594 43.508 73.2607C43.2037 73.3282 42.798 73.362 42.3248 73.362C41.8515 73.3282 41.3106 73.2944 40.7359 73.1256C40.1612 72.9568 39.5527 72.7205 38.9442 72.3154C38.3357 71.944 37.7272 71.4376 37.2201 70.8299C36.713 70.2222 36.2397 69.4457 35.9355 68.6355C35.8679 68.4329 35.8003 68.2303 35.7326 67.994C35.665 67.7914 35.6312 67.5551 35.5974 67.3188C35.5298 66.8461 35.496 66.4748 35.4284 66.0359C35.3946 65.8333 35.3946 65.597 35.3946 65.3607V65.0231V64.6855C35.3946 64.4491 35.4284 64.2128 35.4622 64.0103C35.496 63.7739 35.5298 63.5714 35.5974 63.335C35.8003 62.4573 36.1383 61.6808 36.6116 61.0056C37.0511 60.3303 37.592 59.7564 38.1667 59.3175C38.7414 58.8786 39.3161 58.541 39.8569 58.3047C40.9725 57.832 41.9867 57.7983 42.5614 57.832C43.1699 57.832 43.5418 57.9333 43.5418 58.0346C43.5418 58.1359 43.2375 58.3385 42.6628 58.541C42.5276 58.6085 42.3586 58.6423 42.1895 58.7098C42.0205 58.7773 41.8515 58.8449 41.6487 58.9124C41.4458 58.9799 41.2768 59.0812 41.074 59.1487C40.8711 59.25 40.6683 59.3513 40.4655 59.4863C40.0598 59.7564 39.6203 60.0603 39.2146 60.4654C38.809 60.8705 38.4371 61.3432 38.1329 61.8833C37.8286 62.4235 37.592 63.065 37.4567 63.7064C37.4229 63.8752 37.3891 64.044 37.3891 64.2128C37.3553 64.3816 37.3553 64.5504 37.3553 64.7192V64.9893V65.2594C37.2877 65.4957 37.2877 65.6645 37.3215 65.9009Z"
            fill="white" />
        <path
            d="M73.7303 14.2807C74.2036 15.5299 74.305 17.0154 74.1022 18.7371C73.8993 20.4252 73.426 22.2145 72.7161 24.1051C72.0062 25.9957 71.0935 27.8863 69.9779 29.7769C68.8623 31.7012 67.6115 33.4906 66.2592 35.2124C64.907 36.9342 63.4534 38.4871 61.9321 39.8713C60.4108 41.2555 58.9234 42.3359 57.4021 43.1799C55.9147 43.9901 54.461 44.4628 53.1088 44.5978C51.7566 44.7329 50.5058 44.3615 49.3902 43.5175C48.5788 45.6106 47.9703 47.1636 47.5985 48.1089C47.2266 49.0542 46.8209 49.7632 46.4491 50.2359C46.111 50.641 45.7053 50.9448 45.2659 51.0799C44.8264 51.2487 44.4207 51.2149 44.0151 51.0799C43.6432 50.9111 43.3051 50.641 43.0347 50.2021C42.7643 49.7632 42.629 49.1555 42.629 48.379C42.629 47.8051 42.7643 46.8936 43.0009 45.6107C43.2375 44.3615 43.6094 42.876 44.0489 41.2218C44.4883 39.5675 44.9954 37.7782 45.5701 35.8876C46.1448 33.997 46.7871 32.1401 47.4632 30.2833C48.1394 28.4602 48.8831 26.7047 49.593 25.0842C50.3367 23.4636 51.0467 22.0795 51.8242 20.9654C52.5679 19.8512 53.3116 19.041 54.0554 18.5683C54.7991 18.0957 55.4414 18.0957 56.0837 18.5346C56.726 19.0072 56.9289 19.75 56.726 20.8303C56.4894 21.9107 56.1513 23.1598 55.678 24.6115C55.3738 25.5568 55.2386 26.0632 55.2386 26.0632C55.2724 26.097 55.509 25.7256 55.9485 24.9491C56.6246 23.8013 57.4359 22.5183 58.3487 21.0666C59.2614 19.6487 60.2418 18.2307 61.2898 16.9141C62.3378 15.5636 63.4872 14.382 64.6704 13.3017C65.8874 12.2213 67.1044 11.5124 68.389 11.1072C69.5722 10.7696 70.654 10.9047 71.6005 11.4786C72.6147 12.1538 73.2908 13.0654 73.7303 14.2807ZM69.9103 16.7453C70.0793 15.8675 70.1469 15.226 70.2145 14.8209C70.2483 14.4158 70.2483 14.1119 70.1469 13.9431C70.0455 13.6393 69.8764 13.4367 69.6398 13.3017C69.4032 13.2004 69.1327 13.1329 68.8285 13.2004C68.5242 13.2342 68.22 13.3354 67.9157 13.4705C67.6115 13.6055 67.3072 13.7743 67.003 13.9431C66.1578 14.4495 65.2451 15.226 64.2309 16.3064C63.2167 17.353 62.2025 18.5683 61.1884 19.9188C60.1742 21.2692 59.16 22.7209 58.1797 24.2739C57.1655 25.8269 56.2527 27.3461 55.4414 28.7978C54.6301 30.2833 53.8863 31.6337 53.2778 32.9166C52.6693 34.1995 52.2299 35.2461 51.9594 36.0901C51.689 36.8666 51.4185 37.6769 51.1143 38.5547C50.81 39.4324 50.5734 40.2089 50.3367 40.8504C50.5396 41.323 50.7762 41.6607 51.0805 41.897C51.3847 42.1333 51.858 42.2346 52.5341 42.1671C53.6835 42.0658 54.8667 41.5594 56.1175 40.7154C57.3683 39.8713 58.5853 38.7235 59.8361 37.3393C61.0532 35.9551 62.2363 34.3683 63.3519 32.6128C64.4675 30.8572 65.4817 29.0342 66.3607 27.1773C67.2734 25.3205 68.0171 23.4974 68.6256 21.6743C69.2679 19.885 69.6736 18.2307 69.9103 16.7453Z"
            fill="white" />
        <path
            d="M75.9953 35.0098C75.2177 37.3055 74.6768 38.9598 74.3388 40.0064C74.0007 41.053 73.8655 41.5931 73.8993 41.6269C73.9331 41.6607 74.0683 41.6269 74.305 41.4919C74.5416 41.3568 74.7783 41.188 74.9811 41.0192C75.4544 40.6816 76.0291 40.1077 76.7052 39.2636C77.3813 38.4534 78.1588 37.5081 78.9364 36.4277C79.7477 35.3474 80.559 34.2333 81.3704 33.0179C82.1817 31.8025 82.9593 30.6547 83.703 29.5406C84.4467 28.4265 85.0552 27.4136 85.5961 26.5021C86.137 25.5906 86.5089 24.8816 86.7455 24.3752C87.2526 23.2948 87.7597 22.3158 88.2668 21.4042C88.7738 20.4927 89.1795 19.885 89.45 19.6149C89.957 19.1423 90.4641 19.041 91.005 19.2773C91.5459 19.5136 91.9178 20.0201 92.0868 20.7628C92.2558 21.3367 92.2558 22.0457 92.1206 22.856C91.9854 23.6662 91.7487 24.6453 91.4107 25.7256C91.0726 26.806 90.5993 28.0551 90.0585 29.4731C89.5176 30.891 88.8415 32.5115 88.1315 34.3008C87.5568 35.7863 87.0836 37.0692 86.7117 38.1158C86.3398 39.1624 86.0356 40.0401 85.8327 40.7154C85.5961 41.3906 85.4271 41.9307 85.3257 42.3021C85.2242 42.6735 85.1228 42.9098 85.0214 43.0786C84.7172 43.585 84.3115 43.8551 83.7706 43.9226C83.2635 43.9901 82.7902 43.7876 82.3508 43.3825C82.0127 43.0448 81.8099 42.5047 81.7422 41.7957C81.6746 41.0867 81.7084 40.3102 81.8437 39.3987C81.9451 38.5209 82.1479 37.6094 82.3846 36.6978C82.6212 35.7863 82.8916 34.9423 83.0945 34.2333C83.3311 33.4906 83.5339 32.9166 83.6692 32.4102C83.8382 31.9376 83.872 31.7013 83.8382 31.735C83.6692 31.9376 83.3987 32.4102 82.9593 33.1867C82.5198 33.9632 82.0127 34.8748 81.438 35.9213C80.8295 36.9679 80.1534 38.0483 79.4096 39.1624C78.6321 40.2765 77.8546 41.2893 77.0094 42.2008C76.1981 43.1124 75.353 43.8213 74.5078 44.3615C73.6627 44.9017 72.8513 45.0705 72.1076 44.8679C71.1272 44.6316 70.3835 44.1252 69.9102 43.2812C69.437 42.4709 69.1665 41.4581 69.0651 40.3102C68.9637 39.1286 69.0651 37.8457 69.3017 36.4615C69.5384 35.0773 69.9102 33.6931 70.3835 32.3089C70.8568 30.9248 71.4315 29.6419 72.04 28.3927C72.6823 27.1773 73.3246 26.1645 74.0007 25.3542C74.6768 24.544 75.3192 24.0038 75.9953 23.7337C76.6376 23.4636 77.2461 23.5649 77.787 24.0376C78.1926 24.4089 78.3955 25.0166 78.3955 25.8607C78.3617 26.6709 78.2265 27.6162 77.956 28.629C77.6856 29.6419 77.3475 30.7222 76.9756 31.8363C76.7052 32.9504 76.3333 34.0307 75.9953 35.0098Z"
            fill="white" />
        <path
            d="M87.3878 42.4372C87.9625 42.741 88.9091 42.9773 90.1599 43.1124C91.4445 43.2474 92.8981 43.2137 94.5546 43.0449C96.2111 42.8761 97.9352 42.5385 99.7607 42.032C101.586 41.5256 103.31 40.8167 104.899 39.9051C105.677 39.5 106.353 38.9936 106.961 38.4534C107.57 37.9132 107.874 37.4743 107.874 37.2043C107.874 37.103 107.773 36.9342 107.536 36.7654C107.299 36.5966 107.029 36.4278 106.725 36.2252C106.116 35.9214 105.44 35.685 104.696 35.55C103.953 35.3812 103.175 35.2799 102.398 35.2124C101.62 35.1449 100.842 35.0773 100.065 35.0773C99.2874 35.0436 98.5775 35.0436 97.9352 35.0436C97.1239 36.9679 96.5153 38.4534 96.1435 39.5C95.7716 40.5466 95.366 41.3231 94.9265 41.762C94.6222 42.0658 94.2842 42.2008 93.8785 42.2008C93.5066 42.1671 93.1686 42.032 92.8981 41.7282C92.7291 41.5256 92.6277 41.2555 92.5939 40.9179C92.5263 40.5803 92.4925 40.209 92.4925 39.8038C92.4925 39.3987 92.5263 38.9936 92.5601 38.6222C92.5939 38.2508 92.6277 37.947 92.6615 37.7107C92.9658 36.0902 93.4052 34.5372 94.0137 33.0517C94.6222 31.5662 95.2307 30.2158 95.8392 29.0004C96.4477 27.785 97.0224 26.7722 97.5295 25.9282C98.0366 25.0842 98.4085 24.544 98.6451 24.2739C99.0508 23.7338 99.5579 23.2949 100.099 22.9235C100.64 22.5521 101.181 22.6196 101.688 23.0585C101.992 23.3286 102.161 23.7 102.161 24.1726C102.195 24.6453 102.127 25.1855 101.958 25.7594C101.789 26.3333 101.586 26.9073 101.35 27.5149C101.113 28.1226 100.876 28.6628 100.64 29.1355C100.403 29.6419 100.2 30.047 100.031 30.3846C99.8621 30.7222 99.7945 30.891 99.8283 30.9248C99.8621 30.9585 100.166 30.8235 100.775 30.5196C101.383 30.2158 102.093 29.8107 102.938 29.3043C103.784 28.7979 104.696 28.2577 105.643 27.6162C106.589 26.9748 107.502 26.3671 108.314 25.7932C109.125 25.1855 109.835 24.6453 110.376 24.1389C110.917 23.6325 111.221 23.2273 111.221 22.8897C111.221 22.7209 111.052 22.5521 110.68 22.3496C110.308 22.147 109.869 21.9782 109.395 21.8432C108.483 21.5731 107.502 21.438 106.454 21.4043C105.406 21.3705 104.291 21.4718 103.074 21.6743C101.654 21.9107 100.369 22.147 99.186 22.4508C98.0028 22.7209 97.0224 22.991 96.1773 23.2611C95.3321 23.4974 94.656 23.7338 94.1828 23.9026C93.7095 24.0714 93.439 24.1726 93.3376 24.1726C93.0334 24.2402 92.8305 24.1051 92.7291 23.7675C92.6277 23.4299 92.9319 22.9573 93.6081 22.3833C94.487 21.7419 95.6026 21.1342 96.921 20.594C98.2394 20.0538 99.6593 19.5812 101.113 19.2436C102.6 18.906 104.088 18.6696 105.643 18.5684C107.164 18.4671 108.584 18.5008 109.869 18.7034C111.153 18.906 112.235 19.3111 113.148 19.885C114.061 20.459 114.635 21.2692 114.906 22.3496C115.041 22.991 115.041 23.6325 114.838 24.2739C114.635 24.9154 114.365 25.5231 113.959 26.097C113.587 26.7047 113.114 27.2449 112.607 27.7513C112.1 28.2577 111.559 28.7303 111.018 29.1692C110.207 29.7769 109.429 30.3508 108.618 30.8573C107.84 31.3637 107.13 31.8026 106.488 32.1402C105.846 32.4778 105.339 32.7479 104.933 32.9842C104.527 33.1867 104.324 33.288 104.257 33.288C104.223 33.3218 104.358 33.3555 104.629 33.3893C104.933 33.4231 105.305 33.4906 105.778 33.5919C106.251 33.6932 106.792 33.8282 107.367 33.997C107.942 34.1658 108.483 34.4021 108.956 34.706C109.429 35.0098 109.801 35.4149 110.105 35.8876C110.376 36.3602 110.511 36.9342 110.477 37.6432C110.443 38.2508 110.24 38.8248 109.869 39.3649C109.497 39.9051 109.057 40.4115 108.516 40.8504C107.975 41.3231 107.401 41.7282 106.792 42.0996C106.184 42.4709 105.609 42.8085 105.068 43.0786C103.141 44.0239 101.282 44.6991 99.4226 45.0705C97.5971 45.4419 95.9069 45.6444 94.3856 45.712C92.8643 45.7457 91.5797 45.6444 90.4641 45.4419C89.3823 45.2393 88.6386 45.003 88.2668 44.7329C87.9963 44.5303 87.6583 44.2602 87.2864 43.8889C86.9145 43.5175 86.6779 43.3149 86.6103 43.2137C86.4412 42.9436 86.4412 42.7073 86.5089 42.4709C86.7455 42.2684 86.9821 42.2346 87.3878 42.4372Z"
            fill="white" />
        <path
            d="M126.535 44.4291C125.318 44.3615 124.101 44.3278 122.951 44.3278C121.768 44.3615 120.754 44.3953 119.807 44.4291C118.895 44.4966 118.151 44.5641 117.576 44.6654C117.002 44.7667 116.697 44.8342 116.697 44.8679C116.664 44.9355 116.562 45.0705 116.393 45.2731C116.224 45.4756 116.089 45.6107 115.987 45.7457C115.514 46.0833 115.007 46.2521 114.432 46.2184C113.858 46.1846 113.351 45.9145 112.945 45.4756C112.742 45.2731 112.641 45.1718 112.641 45.1718C112.607 45.138 112.404 45.1718 112.032 45.2056C111.931 45.2056 111.728 45.2056 111.424 45.2393C111.119 45.2731 110.815 45.2731 110.477 45.2731C110.139 45.2731 109.801 45.2731 109.531 45.2393C109.226 45.2056 109.057 45.2056 108.922 45.138C108.685 45.0368 108.584 44.8342 108.584 44.5641C108.584 44.294 108.719 44.0577 108.99 43.8214C109.226 43.6188 109.531 43.45 109.936 43.315C110.342 43.1462 110.748 43.0449 111.153 42.9098C111.559 42.8085 111.897 42.7073 112.201 42.6397C112.505 42.5722 112.641 42.5385 112.674 42.5047C113.891 38.3184 115.109 34.5372 116.326 31.0936C116.866 29.6419 117.407 28.1902 117.982 26.7722C118.523 25.3205 119.098 24.0376 119.672 22.856C120.247 21.6744 120.822 20.6953 121.363 19.8513C121.903 19.0073 122.444 18.4671 122.951 18.2308C123.459 17.9607 123.898 17.9269 124.337 18.1295C124.743 18.3321 125.081 18.7034 125.25 19.2436C125.487 19.9863 125.453 21.0329 125.149 22.4509C124.845 23.8688 124.439 25.388 123.864 27.0423C123.289 28.6966 122.647 30.3846 121.903 32.1064C121.16 33.862 120.484 35.415 119.875 36.8329C119.267 38.2509 118.76 39.3987 118.388 40.3103C118.016 41.2218 117.881 41.6607 117.982 41.6607C118.185 41.6607 118.523 41.6269 118.996 41.5594C119.469 41.4919 120.112 41.4244 120.855 41.3568C121.633 41.2893 122.512 41.2893 123.526 41.2893C124.54 41.3231 125.656 41.4244 126.839 41.5932C127.312 41.6607 127.752 41.762 128.191 41.897C128.631 42.0321 128.935 42.1671 129.138 42.2684C129.476 42.5385 129.645 42.8761 129.645 43.2474C129.645 43.585 129.544 43.8551 129.341 44.0239C129.138 44.1927 128.901 44.294 128.597 44.3615C128.293 44.4291 127.955 44.4628 127.583 44.4628C127.245 44.4966 126.873 44.4628 126.535 44.4291Z"
            fill="white" />
        <path
            d="M140.429 19.8175C140.632 20.4589 140.564 21.5055 140.26 22.9234C139.956 24.3414 139.55 25.8269 139.009 27.4136C138.502 29.0004 137.961 30.4858 137.386 31.9038C136.812 33.288 136.44 34.3346 136.203 34.976C135.595 36.4952 135.088 37.8119 134.682 38.8922C134.276 39.9726 133.938 40.9179 133.668 41.6606C133.397 42.4034 133.161 43.011 132.992 43.4499C132.789 43.8888 132.586 44.2602 132.349 44.4965C131.978 44.9016 131.538 45.1717 131.065 45.3068C130.592 45.4081 130.118 45.4081 129.713 45.2055C129.307 45.0367 128.935 44.7328 128.631 44.3277C128.327 43.9226 128.158 43.3824 128.158 42.7747C128.124 41.9982 128.259 40.9854 128.563 39.6687C128.867 38.3521 129.273 36.9341 129.814 35.3811C130.321 33.8281 130.93 32.2076 131.572 30.5534C132.214 28.8991 132.89 27.3123 133.634 25.8269C134.344 24.3414 135.054 23.0247 135.73 21.9106C136.406 20.7965 137.048 19.9525 137.623 19.4799C138.265 18.9397 138.874 18.7371 139.381 18.8384C139.888 18.9397 140.226 19.2773 140.429 19.8175Z"
            fill="white" />
        <path
            d="M170.584 22.9911C171.057 23.2612 171.327 23.6325 171.429 24.139C171.53 24.6454 171.564 25.1518 171.53 25.6582C171.496 26.1646 171.429 26.6372 171.294 27.0424C171.192 27.4475 171.125 27.6501 171.125 27.7176C171.699 27.0424 172.206 26.4009 172.68 25.8945C173.153 25.3543 173.66 24.7804 174.269 24.1727C174.877 23.565 175.452 22.9911 176.094 22.5184C177.007 21.7419 178.055 21.033 179.204 20.324C180.354 19.6488 181.469 19.1424 182.585 18.8385C183.666 18.5347 184.647 18.5009 185.526 18.7372C186.405 18.9736 187.013 19.6488 187.385 20.7966C187.453 21.033 187.52 21.2018 187.52 21.3368C187.554 21.4719 187.554 21.7419 187.554 22.1133C187.554 22.9236 187.385 23.7338 187.081 24.5441C186.777 25.3543 186.371 26.1646 185.898 26.9411C185.424 27.7176 184.883 28.4266 184.275 29.1355C183.666 29.8445 183.126 30.5197 182.585 31.1274C181.266 32.5454 179.948 33.7945 178.596 34.8748C177.243 35.9552 176.026 36.8667 174.911 37.6432C173.795 38.386 172.544 39.1287 171.158 39.9052C172.544 40.1078 173.795 40.2766 174.945 40.4116C175.891 40.5804 176.804 40.7154 177.683 40.8167C178.562 40.918 179.069 41.0193 179.272 41.1206C180.489 41.3569 181.097 41.8633 181.097 42.606C181.097 43.18 180.827 43.5851 180.286 43.8214C180.049 43.9227 179.61 44.024 179.001 44.0578C178.359 44.0915 177.615 44.0915 176.77 44.0578C175.891 44.024 174.978 43.9227 173.998 43.7877C172.984 43.6526 172.004 43.4501 171.023 43.18C169.705 42.8424 168.758 42.5385 168.082 42.3022C167.44 42.0659 166.966 41.8633 166.696 41.7283C166.426 41.5595 166.29 41.4582 166.257 41.4244C166.223 41.3569 166.189 41.3907 166.121 41.4582C166.02 41.5595 165.885 41.8295 165.716 42.2347C165.547 42.6398 165.378 43.0787 165.141 43.5176C164.904 43.9902 164.668 44.4291 164.363 44.8343C164.059 45.2394 163.755 45.5095 163.349 45.6445C162.91 45.8133 162.538 45.8471 162.132 45.7458C161.76 45.6783 161.422 45.5095 161.186 45.2731C160.949 45.0368 160.746 44.6992 160.611 44.3278C160.476 43.9565 160.442 43.5176 160.51 43.0787C160.577 42.4372 160.814 41.4244 161.152 40.1078C161.49 38.7573 161.929 37.3056 162.437 35.6851C162.944 34.0646 163.552 32.4441 164.194 30.7898C164.837 29.1355 165.513 27.6501 166.257 26.4009C166.966 25.1518 167.676 24.1727 168.42 23.4975C169.164 22.7548 169.874 22.6197 170.584 22.9911ZM173.051 28.2915C172.882 28.4941 172.612 28.8317 172.24 29.3043C171.868 29.777 171.463 30.3172 171.057 30.8911C170.651 31.465 170.246 32.0389 169.874 32.6129C169.502 33.1868 169.231 33.6932 169.062 34.0984C168.724 35.0774 168.42 35.8539 168.183 36.4278C167.947 36.968 167.812 37.3731 167.71 37.6095C167.643 37.8458 167.643 37.9133 167.71 37.8795C167.778 37.812 167.947 37.7107 168.183 37.5082C168.251 37.4407 168.623 37.1368 169.299 36.6642C169.975 36.1578 170.82 35.5163 171.801 34.706C172.815 33.8958 173.897 32.9842 175.08 31.9714C176.263 30.9586 177.412 29.912 178.528 28.7979C179.644 27.6838 180.658 26.5697 181.537 25.4556C182.449 24.3415 183.092 23.2612 183.531 22.2821C183.7 21.9107 183.768 21.6744 183.734 21.6407C183.7 21.6069 183.599 21.5731 183.43 21.5731C182.957 21.5731 182.348 21.7082 181.604 21.9783C180.827 22.2484 179.982 22.6535 179.001 23.1937C178.055 23.7338 177.041 24.4428 176.026 25.2868C175.046 26.0971 174.032 27.1099 173.051 28.2915Z"
            fill="white" />
        <path
            d="M207.838 20.3578C208.345 20.7967 208.649 21.2693 208.784 21.8433C208.919 22.4172 208.717 22.7886 208.176 22.9236C208.007 22.9574 207.871 22.9574 207.702 22.9236C207.432 22.8223 207.331 22.6873 207.398 22.5185C207.466 22.3497 207.364 22.2484 207.128 22.1809C206.959 22.1471 206.654 22.1133 206.114 22.0796C205.606 22.0458 204.998 22.0121 204.356 22.0121C203.713 22.0121 203.037 22.0121 202.327 22.0121C201.651 22.0121 201.043 22.0458 200.536 22.0796C200.265 22.0796 200.062 22.0796 199.859 22.1133C199.69 22.1471 199.555 22.1471 199.42 22.1471C199.319 22.1471 199.183 22.1471 199.048 22.1809C198.913 22.2146 198.71 22.2146 198.44 22.2146C198.811 23.0924 198.811 24.3078 198.44 25.7933C198.068 27.3125 197.527 28.9668 196.817 30.7561C196.141 32.5454 195.397 34.436 194.586 36.3604C193.808 38.2847 193.166 40.1753 192.726 41.9646C192.49 42.8424 192.287 43.4839 192.152 43.889C191.983 44.2941 191.78 44.598 191.476 44.8343C191.07 45.2394 190.529 45.442 189.954 45.3745C189.346 45.3069 188.906 44.9356 188.535 44.1928C188.332 43.8215 188.264 43.2475 188.298 42.471C188.332 41.6945 188.433 40.918 188.568 40.074C188.704 39.23 188.873 38.4198 189.075 37.6433C189.278 36.8668 189.447 36.2591 189.582 35.8877C189.684 35.5501 189.785 35.0437 189.853 34.4022C189.921 33.7608 189.954 33.0518 189.954 32.3428C189.954 31.6001 189.921 30.8911 189.887 30.1821C189.853 29.4732 189.785 28.8992 189.65 28.4941C189.413 27.5826 188.906 26.9411 188.095 26.6035C187.284 26.2659 186.472 25.9958 185.627 25.827C184.782 25.6582 184.038 25.4557 183.396 25.2868C182.754 25.0843 182.483 24.6792 182.585 24.0715C182.652 23.7676 182.821 23.5313 183.058 23.3287C183.295 23.1262 183.734 22.9236 184.376 22.6535C187.013 21.6745 189.718 20.8304 192.422 20.1215C195.16 19.4462 198 19.1086 200.975 19.1086C202.53 19.1086 203.95 19.2099 205.133 19.4462C206.452 19.5813 207.297 19.9189 207.838 20.3578ZM195.262 22.8561C195.431 22.6873 195.498 22.586 195.498 22.451C194.417 22.5522 193.504 22.6873 192.76 22.8223C192.017 22.9574 191.205 23.0924 190.36 23.295C189.481 23.4638 188.737 23.6663 188.027 23.9027C187.791 23.9702 187.723 24.0377 187.757 24.0377C187.825 24.0715 187.994 24.139 188.298 24.2403C189.244 24.5779 189.988 25.0168 190.495 25.5569C191.002 26.0971 191.374 26.6035 191.611 27.1437C191.847 27.6501 191.983 28.089 192.017 28.4604C192.05 28.8317 192.084 29.0005 192.118 28.933C192.118 28.8992 192.219 28.6629 192.388 28.224C192.557 27.7851 192.794 27.245 193.064 26.6035C193.369 25.9621 193.673 25.3206 194.079 24.6116C194.484 23.9364 194.856 23.3625 195.262 22.8561Z"
            fill="white" />
        <path
            d="M224.233 19.5138C224.571 19.5813 224.909 19.6826 225.281 19.8176C225.619 19.9189 225.924 20.0877 226.194 20.2565C226.465 20.4253 226.634 20.6279 226.735 20.8642C226.836 21.1005 226.803 21.3706 226.634 21.742C226.431 22.1133 226.126 22.3159 225.687 22.3497C225.248 22.3834 224.571 22.3159 223.625 22.1809C222.678 22.0458 221.461 21.9108 219.906 21.7757C218.385 21.6407 216.424 21.6407 214.024 21.8095C213.28 24.139 212.672 25.9283 212.165 27.1774C211.658 28.4266 211.252 29.3381 210.948 29.9121C210.643 30.486 210.508 30.8236 210.474 30.8911C210.441 30.9586 210.542 30.9924 210.812 30.9924C210.914 30.9924 211.252 31.0262 211.759 31.0599C212.266 31.0937 212.841 31.1612 213.483 31.2287C214.125 31.2962 214.734 31.3975 215.376 31.5326C216.019 31.6676 216.526 31.8364 216.898 32.0727C217.202 32.2415 217.438 32.4441 217.574 32.7142C217.709 32.9843 217.776 33.2544 217.81 33.5245C217.844 33.7945 217.776 33.9971 217.675 34.1997C217.574 34.3685 217.371 34.4698 217.168 34.4698C216.83 34.436 216.627 34.3009 216.627 34.1321C216.593 33.9296 216.492 33.7945 216.323 33.6595C216.154 33.5582 215.85 33.4569 215.342 33.3894C214.835 33.3219 214.261 33.2881 213.585 33.2881C212.908 33.2544 212.199 33.2881 211.387 33.3219C210.61 33.3556 209.832 33.4232 209.055 33.5582C208.615 34.4698 208.209 35.3813 207.804 36.2928C207.398 37.2044 207.094 38.0146 206.925 38.7911C206.891 38.9599 206.857 39.1962 206.823 39.5339C206.79 39.8715 206.79 40.2428 206.79 40.5804C206.79 40.9518 206.823 41.2894 206.891 41.627C206.959 41.9646 207.094 42.2347 207.297 42.4373C207.601 42.7411 208.108 42.9437 208.75 43.045C209.426 43.1462 210.204 43.18 211.049 43.1462C211.928 43.1125 212.807 43.045 213.72 42.9099C214.633 42.7749 215.478 42.6398 216.289 42.5386C217.067 42.4373 217.743 42.336 218.284 42.2685C218.824 42.2009 219.162 42.1672 219.264 42.2009C219.467 42.2685 219.568 42.4035 219.602 42.6061C219.636 42.8086 219.602 42.9437 219.501 43.0787C219.23 43.3826 218.52 43.6864 217.405 43.9227C216.289 44.1928 215.106 44.5304 213.923 44.9018C212.773 45.2394 211.658 45.5095 210.542 45.6445C209.426 45.8133 208.378 45.7796 207.432 45.577C206.485 45.3745 205.64 44.9693 204.964 44.3616C204.288 43.7539 203.747 42.8762 203.409 41.7283C203.172 40.918 203.071 40.1078 203.105 39.2975C203.139 38.4873 203.172 37.7108 203.274 37.0356C203.375 36.3603 203.544 35.5501 203.781 34.6386C203.24 34.7061 202.801 34.7736 202.496 34.8074C202.158 34.8411 201.854 34.8749 201.516 34.8749C201.178 34.8749 200.941 34.8074 200.806 34.7061C200.603 34.6048 200.536 34.4022 200.536 34.1997C200.569 33.9633 200.671 33.7608 200.84 33.5582C201.076 33.3219 201.381 33.1193 201.719 32.9168C202.091 32.7142 202.462 32.5454 202.868 32.3766C203.274 32.2078 203.679 32.0727 204.051 31.9377C204.423 31.8364 204.727 31.7351 204.964 31.6676C205.809 29.9458 206.485 28.5954 206.992 27.5826C207.5 26.6035 207.905 25.7933 208.243 25.1856C208.581 24.5779 208.852 24.139 209.088 23.7676C209.325 23.43 209.595 23.0249 209.9 22.6197L210.136 22.2821C210.17 22.2484 210.204 22.2146 210.238 22.1809C210.238 22.1471 210.069 22.1133 209.765 22.1133C209.426 22.1133 209.055 22.1133 208.649 22.1133C207.77 22.1133 207.229 22.1133 207.026 22.0796C206.823 22.0458 206.621 21.9783 206.418 21.8095C206.147 21.5732 206.046 21.3031 206.08 20.9655C206.113 20.6279 206.283 20.3915 206.587 20.189C206.925 19.9527 207.736 19.7163 208.987 19.48C210.238 19.2437 211.725 19.0411 213.449 18.9061C215.14 18.771 216.965 18.7373 218.926 18.8386C220.785 18.8386 222.577 19.0749 224.233 19.5138Z"
            fill="white" />
        <path d="M156.554 15.1585C156.554 15.1585 164.059 -1.55303 167.507 0.708938L156.554 15.1585Z" fill="white" />
        <path
            d="M160.172 35.1111C159.462 38.0145 158.887 40.5466 158.38 42.6735C157.907 44.8004 157.366 47.0962 156.757 49.5945C156.182 52.0928 155.642 54.4898 155.101 56.7517C154.594 59.0137 154.154 60.9718 153.782 62.5586C153.41 64.1791 153.174 65.1581 153.072 65.5295C152.734 66.8799 152.464 67.8252 152.193 68.3654C151.923 68.9393 151.619 69.3107 151.247 69.547C150.638 69.9184 150.064 69.9521 149.523 69.6145C148.982 69.2769 148.576 68.703 148.34 67.8928C148.204 67.2851 148.171 66.3735 148.272 65.1581C148.373 63.9428 148.542 62.6261 148.779 61.3094C149.016 59.959 149.252 58.6761 149.489 57.4607C149.726 56.2453 149.895 55.3338 150.064 54.7261C150.807 50.9111 151.483 47.8389 152.058 45.5094C152.633 43.1462 153.106 41.3231 153.444 39.9727C153.782 38.6222 154.053 37.7107 154.188 37.2381C154.323 36.7654 154.323 36.5628 154.188 36.6304C154.087 36.6304 153.917 36.6641 153.681 36.7316C153.41 36.7992 153.039 36.9342 152.498 37.1368C151.957 37.3393 151.247 37.5419 150.368 37.812C149.489 38.0821 148.373 38.4197 147.021 38.8586C144.148 45.7795 141.95 51.4851 140.429 55.9752C138.908 60.4654 137.758 63.9765 137.015 66.5423C136.237 69.1081 135.662 70.7962 135.291 71.6402C134.919 72.4504 134.445 72.653 133.837 72.2141C133.735 72.1466 133.566 71.9103 133.364 71.5389C133.228 71.2351 133.161 70.8299 133.161 70.3235C133.161 70.0197 133.397 68.9731 133.904 67.15C134.378 65.3269 135.054 63.065 135.933 60.3304C136.778 57.5957 137.826 54.5573 139.009 51.215C141.105 45.2393 143.539 39.3987 146.21 33.6932C147.258 31.4312 148.373 29.203 149.489 26.941C150.503 24.9154 151.585 22.7547 152.734 20.459C153.884 18.1633 155.033 16.0026 156.115 13.9769C157.197 11.9513 158.177 10.297 158.988 8.9466C159.8 7.59617 160.341 6.92096 160.611 6.92096C160.712 6.92096 160.814 7.02224 160.915 7.19104C161.017 7.39361 161.05 7.62993 161.017 7.93378C160.983 8.44019 160.611 9.48677 159.969 11.0735C159.326 12.6265 158.515 14.4158 157.602 16.374C156.656 18.3658 155.675 20.4252 154.627 22.5859C153.579 24.7466 152.633 26.7385 151.754 28.5278C150.909 30.3171 150.199 31.7688 149.658 32.8829C149.117 33.997 148.914 34.571 149.049 34.571C149.185 34.5034 149.59 34.4022 150.266 34.2334C150.943 34.0983 151.652 33.9295 152.396 33.7945C153.14 33.6594 154.12 33.4569 155.405 33.2543C155.439 33.1868 156.149 30.6885 157.535 25.8269C158.921 20.9316 161.05 14.3483 163.992 6.07694C164.769 3.78122 165.378 2.19446 165.817 1.38421C166.223 0.573951 166.628 0.168823 167 0.168823C167.778 0.168823 168.15 0.945319 168.082 2.46455C168.014 3.98378 167.643 6.14446 167 8.9466C166.358 11.7487 165.479 15.1248 164.397 19.0748C163.315 23.0248 162.166 27.4475 160.915 32.3765L160.172 35.1111Z"
            fill="white" />
        <path
            d="M91.2755 51.6201C92.7967 51.5526 94.318 51.4851 95.8054 51.3838C97.2929 51.3163 98.7465 51.215 100.099 51.0799C103.04 50.7423 105.88 50.7423 108.516 50.7086C109.835 50.7086 111.119 50.6748 112.336 50.6073C112.945 50.5735 113.553 50.5398 114.162 50.506C114.77 50.4722 115.379 50.4047 115.954 50.4047C118.32 50.2697 120.551 50.2021 122.546 50.2021C126.569 50.2021 129.814 50.3372 132.045 50.4722C134.276 50.6073 135.527 50.7761 135.527 50.9449C135.527 51.1137 134.31 51.3163 132.045 51.5188C129.814 51.7214 126.569 51.8564 122.58 52.0927C120.585 52.2278 118.421 52.3628 116.089 52.5992C115.514 52.6667 114.906 52.7342 114.331 52.768C113.722 52.8355 113.08 52.903 112.472 52.9368C111.187 53.038 109.902 53.1056 108.55 53.1393C105.88 53.2406 103.175 53.2744 100.369 53.6457C98.8818 53.8145 97.3943 53.9158 95.9069 53.9833C94.4194 54.0509 92.8981 54.1522 91.3769 54.2197C89.8556 54.321 88.3682 54.3885 86.9483 54.5235C85.4609 54.6923 84.0072 54.8611 82.5874 54.9962C79.7139 55.3 76.9756 55.6039 74.3388 55.8739C69.0651 56.4141 64.3323 56.8868 60.3432 57.2919C52.3989 58.1021 47.4632 58.6423 47.3956 58.271C47.328 57.8996 52.1622 56.6842 60.0728 55.4013C64.028 54.7598 68.7608 54.0846 74.0007 53.4094C76.6376 53.0718 79.3758 52.7342 82.2493 52.3966C83.6692 52.2278 85.1566 52.059 86.6103 51.8564C88.233 51.7889 89.7542 51.6876 91.2755 51.6201Z"
            fill="white" />
        <path
            d="M225.349 50.2359C223.422 51.0124 221.495 51.7551 219.602 52.5316C219.365 52.6329 219.129 52.7004 218.858 52.8017L218.081 53.0718C217.574 53.2406 217.033 53.4431 216.526 53.6119L215.714 53.882C215.444 53.9833 215.207 54.0508 214.937 54.1184C213.889 54.4222 212.841 54.7598 211.827 55.0637C210.813 55.3675 209.765 55.6038 208.75 55.8739C208.243 56.009 207.736 56.144 207.229 56.279C206.722 56.3803 206.215 56.5154 205.708 56.6166C204.694 56.853 203.713 57.0893 202.699 57.2919C200.705 57.6632 198.778 58.0684 196.851 58.3722C189.211 59.6551 182.314 60.3641 176.5 60.803C170.685 61.2419 165.986 61.4444 162.741 61.5119C159.495 61.5795 157.67 61.5457 157.67 61.3431C157.67 61.1406 159.428 60.8705 162.673 60.4654C165.885 60.0602 170.584 59.5876 176.331 58.9124C182.078 58.2372 188.94 57.3594 196.411 55.9414C198.304 55.6038 200.198 55.1987 202.158 54.7936C203.139 54.591 204.119 54.3209 205.099 54.1184C205.606 54.0171 206.08 53.882 206.587 53.7807C207.094 53.6457 207.567 53.5107 208.074 53.3756C209.055 53.1055 210.069 52.8692 211.083 52.5316C212.097 52.2278 213.111 51.9239 214.125 51.6201C214.396 51.5525 214.633 51.4513 214.903 51.3837L215.613 51.1474H215.579H215.512C215.309 51.1474 215.072 51.1474 214.869 51.1137C213.821 51.0799 212.773 51.0799 211.759 51.0461C207.601 50.9448 203.578 50.8773 199.724 50.8436C192.05 50.7423 185.154 50.7423 179.373 50.8773C167.778 51.1137 160.645 51.6538 160.577 51.2487C160.543 51.0799 162.335 50.7085 165.547 50.2359C168.758 49.797 173.457 49.3243 179.272 48.953C185.086 48.5816 192.017 48.379 199.724 48.3453C203.578 48.3115 207.601 48.3453 211.793 48.4128C212.841 48.4128 213.923 48.4466 215.004 48.4466C216.931 48.4803 218.858 48.5141 220.785 48.5478C221.766 48.5478 222.746 48.6154 223.76 48.6491C224.774 48.6829 225.755 48.7166 226.769 48.7504C227.276 48.7842 227.783 48.7842 228.29 48.8179L229.034 48.8517L228.324 49.1555C227.31 49.4594 226.329 49.8307 225.349 50.2359Z"
            fill="white" />
        <path
            d="M87.5906 70.7624C81.9789 71.3701 76.6376 71.809 71.7696 72.1803C66.9015 72.5179 62.5068 72.7543 58.822 72.8893C51.4523 73.1256 46.8885 73.0243 46.8547 72.653C46.8209 72.2816 51.3847 71.7414 58.6867 70.9987C62.3378 70.6273 66.6987 70.2222 71.5329 69.7158C76.3671 69.2432 81.6746 68.703 87.2526 68.0953C92.8305 67.4876 98.138 66.9137 102.972 66.3397C107.806 65.7996 112.167 65.2932 115.818 64.8543C123.12 64.0102 127.684 63.6051 127.752 63.9765C127.819 64.3479 123.357 65.4282 116.123 66.7449C112.505 67.4201 108.145 68.0953 103.31 68.8043C98.5099 69.5132 93.1686 70.1885 87.5906 70.7624Z"
            fill="white" />
        <path
            d="M42.6966 65.5632C42.8995 67.3863 43.4066 69.0068 43.7446 70.2222C44.0827 71.4038 44.2855 72.1803 44.1503 72.2141C44.0151 72.2478 43.6432 71.6064 43.1023 70.4585C42.5952 69.3107 41.9529 67.6564 41.7501 65.6983C41.5134 63.7402 41.9191 61.8833 42.4938 60.7355C43.0685 59.5538 43.7446 59.0474 43.8122 59.1149C43.9136 59.2162 43.4742 59.8239 43.1023 60.9718C42.7304 62.0521 42.4938 63.7402 42.6966 65.5632Z"
            fill="white" />
        <path
            d="M46.8209 65.2594C47.0238 68.6355 47.7675 71.3363 47.497 71.4038C47.3956 71.4376 47.0238 70.8299 46.6857 69.7158C46.3138 68.6355 45.9758 67.0487 45.8744 65.2932C45.7729 63.5376 45.8744 61.9509 46.0772 60.803C46.28 59.6551 46.5505 59.0137 46.6519 59.0137C46.9561 59.115 46.5843 61.8496 46.8209 65.2594Z"
            fill="white" />
    </g>
    <defs>
        <clipPath id="clip0_5_234">
            <rect width="229" height="79" fill="white" />
        </clipPath>
    </defs>
</svg>