<svg width="193" height="821" viewBox="0 0 193 821" fill="none" xmlns="http://www.w3.org/2000/svg">
    <g clip-path="url(#clip0_14_218)">
        <path
            d="M92.2231 643.728C96.44 644.278 100.657 644.095 104.324 643.728C106.157 643.361 107.991 643.178 109.458 642.811C110.191 642.628 111.108 642.445 111.841 642.261C112.574 642.078 113.308 641.711 113.858 641.528C118.992 639.511 121.925 637.128 122.475 637.678C122.659 637.861 122.292 638.778 121.192 640.061C120.825 640.428 120.642 640.795 120.275 641.161C119.908 641.528 119.358 641.895 118.992 642.261C118.075 642.995 116.975 643.911 115.508 644.645C114.775 645.012 114.041 645.378 113.308 645.928C112.574 646.295 111.658 646.662 110.741 646.845C109.091 647.578 107.074 647.945 105.057 648.495C101.024 649.229 96.44 649.412 91.673 648.862C86.906 648.312 82.5057 647.028 78.8388 645.562C74.9885 643.911 71.8716 642.261 69.3048 640.428C64.1711 636.761 62.3376 633.277 62.7043 632.911C63.2544 632.361 66.0046 634.744 71.1383 637.311C73.7051 638.594 76.822 639.878 80.3056 641.161C83.9725 642.261 88.0061 643.178 92.2231 643.728Z"
            fill="white" />
        <path
            d="M102.49 662.246C101.574 662.246 100.474 662.246 99.5569 662.429C98.6402 662.429 97.7234 662.429 96.8067 662.246C94.9732 662.246 93.1398 661.879 91.4897 661.513C88.1894 660.779 85.2559 659.863 82.8724 658.946C78.1054 656.929 75.7219 654.729 76.0886 654.362C76.4553 653.812 79.2055 655.096 83.7891 656.379C86.1726 657.112 88.9228 657.662 92.0397 658.029C93.6898 658.212 95.1566 658.396 96.9901 658.396C97.9068 658.396 98.6402 658.579 99.5569 658.396C100.474 658.396 101.39 658.396 102.307 658.213C109.641 657.846 115.875 655.829 120.458 653.996C121.558 653.629 122.659 653.262 123.575 652.712C124.492 652.345 125.225 651.979 125.959 651.795C127.242 651.245 127.976 651.062 128.159 651.429C128.342 651.612 127.792 652.162 126.692 653.079C126.142 653.446 125.409 653.996 124.675 654.729C123.942 655.279 122.842 656.012 121.742 656.562C117.158 659.313 110.374 661.879 102.49 662.246Z"
            fill="white" />
        <path
            d="M54.4538 692.498C50.6035 702.032 48.5867 711.383 47.12 718.167C45.6532 724.95 44.5531 729.351 43.2697 729.534C41.8029 729.717 40.3362 725.134 39.9695 717.617C39.6028 710.099 40.7029 699.649 45.1032 688.648C47.3033 683.148 50.2369 678.197 53.5371 674.347C56.8373 670.313 60.5042 667.38 63.8045 665.363C65.4546 664.263 67.1047 663.529 68.5715 662.979C70.0382 662.429 71.3217 662.063 72.4217 661.879C74.6219 661.513 75.9053 661.696 76.0887 662.246C76.6387 663.713 72.9718 666.28 68.3881 671.047C66.0046 673.43 63.4378 676.364 61.0543 680.031C58.6708 683.514 56.4706 687.731 54.4538 692.498Z"
            fill="white" />
        <path
            d="M22.7349 714.133C23.6516 717.617 24.7517 721.1 25.6685 724.584C26.5852 728.067 27.3186 731.551 28.052 735.034C28.7853 738.518 29.3354 741.818 29.7021 745.302C29.8854 746.952 30.0688 748.602 30.4355 750.252C30.6188 751.902 30.6188 753.552 30.8021 755.203C31.9022 768.22 30.9855 780.138 28.602 790.038C26.2185 799.939 22.3682 807.456 18.7013 811.856C15.0344 816.44 11.7341 817.907 10.8174 816.807C9.90069 815.89 10.6341 812.957 11.7341 808.19C12.8342 803.423 14.1176 796.455 14.4843 787.838C14.851 779.221 14.1176 768.77 12.2842 757.219C12.1008 755.753 11.9175 754.286 11.5508 752.819C11.1841 751.352 11.0008 749.886 10.6341 748.419C10.084 745.485 9.534 742.368 8.61727 739.251C7.88388 736.135 7.1505 733.018 6.23377 729.717C5.31704 726.417 4.40031 723.117 3.30023 719.817L2.56685 717.25C2.3835 716.333 2.20015 715.966 2.01681 715.416L1.65011 713.95C1.28342 711.933 0.91673 709.916 0.733384 708.083C0.183346 704.049 0 700.199 0 696.532C0.183346 689.015 1.10008 681.681 3.30023 674.897C5.50038 668.113 8.43392 661.879 12.2842 656.746C16.1345 651.612 20.5348 647.578 24.9351 644.461C33.7357 638.411 41.8029 636.211 47.4866 635.478C50.2368 635.111 52.437 635.111 54.0871 635.478C55.5539 635.661 56.4706 636.211 56.6539 636.944C56.8373 637.678 56.2872 638.594 55.1872 639.511C54.0871 640.611 52.437 641.711 50.2368 643.178C46.0199 645.928 39.9694 649.962 34.2857 655.646C28.602 661.513 23.835 669.58 21.6348 679.847C20.5348 684.981 19.9847 690.665 20.1681 696.532C20.3514 702.215 20.9015 708.449 22.7349 714.133Z"
            fill="white" />
        <path
            d="M30.4354 686.081C31.3522 679.297 33.7357 672.88 37.0359 667.746C40.3361 662.613 44.5531 658.946 48.4033 656.562C52.2536 654.179 55.7372 653.079 58.1207 652.712C60.5042 652.345 62.1543 652.712 62.3377 653.262C62.7043 654.729 58.304 656.929 52.987 662.246C50.4202 664.813 47.4866 668.296 45.2865 672.513C43.0863 676.73 41.4362 681.864 40.7028 687.364C39.236 698.549 40.8862 709.549 41.9862 717.433C43.2697 725.317 44.003 730.451 42.5363 731.001C41.8029 731.184 40.8862 730.267 39.4194 728.251C37.9526 726.234 36.4859 723.3 34.8357 719.267C33.369 715.233 31.7189 710.466 30.8021 704.782C29.8854 699.282 29.5187 692.865 30.4354 686.081Z"
            fill="white" />
        <path
            d="M106.707 757.036L108.908 755.202C109.641 754.652 110.191 753.919 110.924 753.369C112.208 752.086 113.491 750.986 114.775 749.702C116.058 748.419 117.158 747.135 118.258 745.852C119.358 744.568 120.458 743.285 121.375 742.002C125.409 736.685 128.342 731.001 130.176 725.5C134.209 714.133 134.026 702.766 132.559 693.048C131.092 683.331 128.342 675.447 126.692 669.947C124.859 664.446 124.125 661.146 125.225 660.229C126.325 659.313 129.626 661.329 133.659 666.096C137.693 670.863 142.827 678.564 146.677 689.565C148.51 695.065 149.977 701.299 150.527 708.449C151.077 715.416 150.527 723.117 148.51 731.001C146.494 738.885 142.827 746.585 137.876 753.736C136.776 755.569 135.309 757.219 134.026 759.053C132.743 760.886 131.276 762.353 129.626 764.003C128.159 765.653 126.509 767.12 125.042 768.587C124.309 769.32 123.392 770.054 122.659 770.787L120.275 772.804C107.441 783.804 94.0565 792.788 81.2223 799.756C68.3881 806.723 56.2873 811.673 45.6532 814.973C24.5684 821.574 10.6341 821.39 10.084 818.457C9.534 815.707 21.6348 810.94 40.1528 801.406C58.4874 791.872 83.0558 777.571 106.707 757.036Z"
            fill="white" />
        <path
            d="M123.942 723.3C121.192 731.001 117.158 737.601 112.941 743.285C108.724 748.785 104.324 753.369 100.474 756.669C92.5898 763.453 86.7227 766.02 85.806 765.103C84.8892 764.003 89.1062 759.236 95.1566 751.719C101.207 744.202 109.091 733.384 114.225 719.817C119.358 706.433 120.275 693.232 119.908 683.514C119.542 673.98 118.258 667.93 119.542 667.38C120.825 666.83 124.675 672.33 127.059 682.597C128.159 687.731 128.892 693.965 128.526 701.115C128.342 708.083 126.692 715.783 123.942 723.3Z"
            fill="white" />
        <path
            d="M106.157 503.285C103.957 503.285 101.574 503.102 99.3736 502.735C75.7219 499.435 61.7876 479.45 61.2376 478.533L60.5042 477.433V476.15C54.4538 327.823 90.2063 124.859 110.191 62.1543C129.992 6.27278e-06 152.727 -0.183342 155.294 3.63804e-06L156.578 0.18335L157.678 0.916734C182.063 18.518 184.446 59.5875 184.63 63.4377C214.332 285.103 148.877 482.567 148.144 484.584L147.777 485.867L146.677 486.784C133.109 497.785 119.542 503.285 106.157 503.285ZM69.6715 474.5C72.6051 478.167 83.9725 491.367 100.84 493.751C113.308 495.584 126.509 491.001 139.893 480.367C145.393 463.316 203.881 274.836 175.462 64.3545V63.9878C175.462 63.6211 173.812 25.4851 153.644 9.35065C149.427 10.4507 133.843 17.9679 118.808 64.9045C99.1902 127.059 63.9878 327.273 69.6715 474.5Z"
            fill="white" />
        <path
            d="M101.207 633.277C101.024 633.277 100.84 633.277 100.657 633.277C85.9893 633.094 70.7716 627.044 61.971 617.876C51.5203 606.876 53.3537 598.808 54.6372 595.691C56.2873 592.025 59.5875 589.458 63.2544 589.458C64.1712 589.458 65.0879 589.641 66.0046 589.824C71.8717 568.373 68.7548 546.005 66.3713 535.004C55.7372 527.853 47.3033 516.303 53.3537 504.018L53.5371 503.468L53.9038 503.102C54.4538 502.368 59.4042 496.318 70.955 496.318H74.4385L75.9053 499.435C76.272 499.985 83.6058 514.652 104.874 513.002C126.509 511.352 132.559 500.351 132.743 499.801L134.759 495.951L138.976 497.051C140.076 497.418 149.977 500.168 153.827 508.235C155.294 511.352 156.394 516.669 153.094 523.27C147.227 535.554 138.243 541.421 134.026 543.438C130.542 550.772 116.975 580.474 116.058 603.942C116.241 605.225 116.608 606.326 116.791 607.242C117.708 606.876 118.625 606.509 119.542 606.142C123.759 604.859 128.342 606.509 130.726 610.359C133.109 614.209 132.559 618.976 129.442 622.277C122.659 629.61 112.758 633.277 101.207 633.277ZM70.0382 610.359C76.822 617.326 89.1062 622.093 100.657 622.277C103.957 622.277 108.174 621.91 112.208 620.627L110.191 621.177L108.358 616.776C107.074 613.293 105.974 609.626 105.241 605.592L105.057 605.042V604.492C105.974 575.157 124.309 538.671 125.042 537.204L125.959 535.187L127.976 534.454C128.342 534.271 137.51 530.604 143.01 518.869C144.66 515.386 143.927 513.736 143.56 513.186C142.827 511.536 140.993 510.252 139.343 509.335C134.943 514.469 125.042 522.72 105.424 524.37C83.2391 526.02 71.8717 514.102 67.6547 507.869C64.7212 508.419 63.0711 509.335 62.521 509.885C59.4042 517.769 70.2216 525.103 73.7052 527.12L75.722 528.403L76.272 530.604C79.7556 545.821 83.9725 575.523 72.9718 602.659L70.0382 610.359Z"
            fill="white" />
    </g>
    <defs>
        <clipPath id="clip0_14_218">
            <rect width="192.33" height="820.107" fill="white" />
        </clipPath>
    </defs>
</svg>