<svg width="1728" height="256" viewBox="0 0 1728 256" fill="none" xmlns="http://www.w3.org/2000/svg">
<path d="M168.632 79.8468C168.632 134.012 136.412 161.094 71.9738 161.094H55.5101V252.848H-13V2.80165H67.194C82.7726 2.80165 96.7578 3.85226 109.15 5.95349C121.896 8.05473 132.518 12.0237 141.015 17.8605C149.866 23.4638 156.594 31.285 161.196 41.3242C166.153 51.3634 168.632 64.2043 168.632 79.8468ZM97.9971 81.2476C97.9971 67.9398 95.6957 58.2508 91.0929 52.1806C86.8442 45.8769 78.5239 42.725 66.1319 42.725H55.5101V121.521H66.663C77.9928 121.521 85.9591 118.369 90.5618 112.066C95.5187 105.762 97.9971 95.4893 97.9971 81.2476Z" fill="white"/>
<path d="M370.901 127.825C370.901 150.938 369.485 170.667 366.652 187.01C364.174 203.352 359.217 216.66 351.782 226.933C344.7 236.972 334.787 244.327 322.041 248.996C309.649 253.665 293.539 256 273.712 256C254.239 256 238.306 253.665 225.914 248.996C213.522 244.327 203.786 236.972 196.704 226.933C189.977 216.66 185.198 203.352 182.365 187.01C179.887 170.667 178.647 150.938 178.647 127.825C178.647 105.645 179.887 86.5007 182.365 70.3913C184.844 54.2818 189.446 41.0908 196.173 30.8181C203.254 20.3119 212.991 12.6074 225.383 7.70452C238.129 2.56817 254.416 0 274.243 0C294.424 0 310.888 2.45144 323.634 7.35432C336.38 12.2572 346.117 19.9617 352.844 30.4679C359.925 40.7405 364.705 53.9316 367.183 70.0411C369.662 86.1505 370.901 105.412 370.901 127.825ZM301.328 127.825C301.328 109.147 300.974 94.0885 300.266 82.6484C299.558 71.2084 298.142 62.4533 296.018 56.383C293.893 50.0794 291.061 45.8769 287.52 43.7757C283.98 41.6744 279.554 40.6238 274.243 40.6238C268.932 40.6238 264.506 41.9079 260.966 44.4761C257.779 47.0442 255.124 51.5969 253 58.1341C251.229 64.6712 249.99 73.5431 249.282 84.7497C248.574 95.9562 248.22 110.315 248.22 127.825C248.22 146.269 248.574 161.211 249.282 172.651C249.99 183.858 251.229 192.613 253 198.917C255.124 205.22 257.779 209.423 260.966 211.524C264.506 213.625 268.755 214.676 273.712 214.676C279.023 214.676 283.449 213.392 286.989 210.824C290.53 208.255 293.362 203.703 295.486 197.166C297.611 190.395 299.027 181.523 299.735 170.55C300.797 159.343 301.328 145.102 301.328 127.825Z" fill="white"/>
<path d="M572.415 65.8386C572.415 83.3488 569.051 97.0068 562.324 106.813C555.597 116.618 544.267 123.856 528.335 128.525V129.576C536.124 131.21 542.497 133.311 547.454 135.88C552.765 138.214 556.836 141.6 559.669 146.036C562.855 150.238 565.157 155.841 566.573 162.845C567.989 169.616 568.874 178.138 569.228 188.41C569.936 206.154 570.822 220.279 571.884 230.785C572.946 241.291 575.247 247.829 578.788 250.397V252.848H509.747C508.684 250.98 507.799 248.179 507.091 244.443C506.383 240.708 505.675 236.272 504.967 231.135C504.613 225.999 504.259 220.513 503.905 214.676C503.551 208.839 503.374 202.886 503.374 196.815C503.02 186.543 502.311 178.371 501.249 172.301C500.187 166.231 498.417 161.678 495.938 158.643C493.46 155.374 490.273 153.39 486.379 152.689C482.838 151.756 478.413 151.289 473.102 151.289H458.762V252.848H390.252V2.80165H482.661C514.526 2.80165 537.363 8.17146 551.171 18.9111C565.334 29.6507 572.415 45.2932 572.415 65.8386ZM506.029 75.2941C506.029 62.9202 503.551 54.0483 498.594 48.6785C493.637 43.0752 485.14 40.2736 473.102 40.2736H459.825V116.268H474.695C486.025 116.268 493.991 112.766 498.594 105.762C503.551 98.5244 506.029 88.3684 506.029 75.2941Z" fill="white"/>
<path d="M638.021 252.848V43.7757H583.319V2.80165H761.233V43.7757H706.531V252.848H638.021Z" fill="white"/>
<path d="M848.244 252.848L838.153 201.018H788.762L779.734 252.848H710.161L767.518 2.80165H859.396L917.816 252.848H848.244ZM812.13 49.3789H811.068L791.948 163.546H833.373L812.13 49.3789Z" fill="white"/>
<path d="M926.152 252.848V2.80165H1073.79V44.1259H994.662V104.711H1064.23V143.234H994.662V252.848H926.152Z" fill="white"/>
<path d="M1275.3 127.825C1275.3 150.938 1273.89 170.667 1271.05 187.01C1268.58 203.352 1263.62 216.66 1256.18 226.933C1249.1 236.972 1239.19 244.327 1226.44 248.996C1214.05 253.665 1197.94 256 1178.11 256C1158.64 256 1142.71 253.665 1130.32 248.996C1117.92 244.327 1108.19 236.972 1101.11 226.933C1094.38 216.66 1089.6 203.352 1086.77 187.01C1084.29 170.667 1083.05 150.938 1083.05 127.825C1083.05 105.645 1084.29 86.5007 1086.77 70.3913C1089.25 54.2818 1093.85 41.0908 1100.58 30.8181C1107.66 20.3119 1117.39 12.6074 1129.79 7.70452C1142.53 2.56817 1158.82 0 1178.65 0C1198.83 0 1215.29 2.45144 1228.04 7.35432C1240.78 12.2572 1250.52 19.9617 1257.25 30.4679C1264.33 40.7405 1269.11 53.9316 1271.59 70.0411C1274.06 86.1505 1275.3 105.412 1275.3 127.825ZM1205.73 127.825C1205.73 109.147 1205.38 94.0885 1204.67 82.6484C1203.96 71.2084 1202.54 62.4533 1200.42 56.383C1198.3 50.0794 1195.46 45.8769 1191.92 43.7757C1188.38 41.6744 1183.96 40.6238 1178.65 40.6238C1173.33 40.6238 1168.91 41.9079 1165.37 44.4761C1162.18 47.0442 1159.53 51.5969 1157.4 58.1341C1155.63 64.6712 1154.39 73.5431 1153.68 84.7497C1152.98 95.9562 1152.62 110.315 1152.62 127.825C1152.62 146.269 1152.98 161.211 1153.68 172.651C1154.39 183.858 1155.63 192.613 1157.4 198.917C1159.53 205.22 1162.18 209.423 1165.37 211.524C1168.91 213.625 1173.16 214.676 1178.11 214.676C1183.43 214.676 1187.85 213.392 1191.39 210.824C1194.93 208.255 1197.76 203.703 1199.89 197.166C1202.01 190.395 1203.43 181.523 1204.14 170.55C1205.2 159.343 1205.73 145.102 1205.73 127.825Z" fill="white"/>
<path d="M1297.31 252.848V2.80165H1365.82V211.524H1443.36V252.848H1297.31Z" fill="white"/>
<path d="M1456.35 252.848V2.80165H1524.86V252.848H1456.35Z" fill="white"/>
<path d="M1736 127.825C1736 150.938 1734.58 170.667 1731.75 187.01C1729.27 203.352 1724.32 216.66 1716.88 226.933C1709.8 236.972 1699.89 244.327 1687.14 248.996C1674.75 253.665 1658.64 256 1638.81 256C1619.34 256 1603.41 253.665 1591.01 248.996C1578.62 244.327 1568.88 236.972 1561.8 226.933C1555.08 216.66 1550.3 203.352 1547.46 187.01C1544.99 170.667 1543.75 150.938 1543.75 127.825C1543.75 105.645 1544.99 86.5007 1547.46 70.3913C1549.94 54.2818 1554.55 41.0908 1561.27 30.8181C1568.35 20.3119 1578.09 12.6074 1590.48 7.70452C1603.23 2.56817 1619.52 0 1639.34 0C1659.52 0 1675.99 2.45144 1688.73 7.35432C1701.48 12.2572 1711.22 19.9617 1717.94 30.4679C1725.02 40.7405 1729.8 53.9316 1732.28 70.0411C1734.76 86.1505 1736 105.412 1736 127.825ZM1666.43 127.825C1666.43 109.147 1666.07 94.0885 1665.37 82.6484C1664.66 71.2084 1663.24 62.4533 1661.12 56.383C1658.99 50.0794 1656.16 45.8769 1652.62 43.7757C1649.08 41.6744 1644.65 40.6238 1639.34 40.6238C1634.03 40.6238 1629.61 41.9079 1626.07 44.4761C1622.88 47.0442 1620.22 51.5969 1618.1 58.1341C1616.33 64.6712 1615.09 73.5431 1614.38 84.7497C1613.67 95.9562 1613.32 110.315 1613.32 127.825C1613.32 146.269 1613.67 161.211 1614.38 172.651C1615.09 183.858 1616.33 192.613 1618.1 198.917C1620.22 205.22 1622.88 209.423 1626.07 211.524C1629.61 213.625 1633.85 214.676 1638.81 214.676C1644.12 214.676 1648.55 213.392 1652.09 210.824C1655.63 208.255 1658.46 203.703 1660.59 197.166C1662.71 190.395 1664.13 181.523 1664.83 170.55C1665.9 159.343 1666.43 145.102 1666.43 127.825Z" fill="white"/>
</svg>
