<svg width="521" height="849" viewBox="0 0 521 849" fill="none" xmlns="http://www.w3.org/2000/svg">
    <path
        d="M138.564 148.607C138.564 178.736 137.223 203.707 134.542 223.521C132.13 243.336 127.439 259.079 120.469 270.75L142.585 304.543L106.395 331.821L82.6705 295.993C79.9898 296.536 77.175 296.943 74.2262 297.214C71.2775 297.486 68.1946 297.621 64.9778 297.621C50.2338 297.621 38.1706 294.907 28.788 289.479C19.4055 284.05 12.0335 275.5 6.67211 263.829C1.57874 251.886 -2.04024 236.414 -4.18481 217.414C-6.06132 198.414 -6.99957 175.479 -6.99957 148.607C-6.99957 122.821 -6.06132 100.564 -4.18481 81.8357C-2.30831 63.1071 1.17663 47.7714 6.27 35.8286C11.6314 23.6143 19.0034 14.6572 28.3859 8.95715C38.0365 2.98572 50.3678 0 65.3799 0C80.66 0 93.1253 2.85 102.776 8.55001C112.427 14.25 119.798 23.2072 124.892 35.4214C130.253 47.3643 133.872 62.7 135.749 81.4286C137.625 100.157 138.564 122.55 138.564 148.607ZM85.8874 148.607C85.8874 126.893 85.6193 109.386 85.0832 96.0857C84.547 82.7857 83.4747 72.4714 81.8663 65.1429C80.2579 57.8143 78.1133 52.9286 75.4326 50.4857C72.7519 48.0429 69.401 46.8214 65.3799 46.8214C61.3588 46.8214 58.0079 48.3143 55.3272 51.3C52.9145 54.2857 50.904 59.7143 49.2956 67.5857C47.9552 75.1857 47.0169 85.5 46.4808 98.5286C45.9447 111.557 45.6766 128.25 45.6766 148.607C45.6766 170.05 45.9447 187.421 46.4808 200.721C47.0169 213.75 47.9552 223.929 49.2956 231.257C50.904 238.586 52.9145 243.471 55.3272 245.914C58.0079 248.357 61.2248 249.579 64.9778 249.579C68.9989 249.579 72.3497 248.086 75.0305 245.1C77.7112 242.114 79.8558 236.821 81.4642 229.221C83.0726 221.35 84.1449 211.036 84.6811 198.279C85.4853 185.25 85.8874 168.693 85.8874 148.607Z"
        fill="white" />
    <path
        d="M291.943 223.521C291.943 249.307 286.313 268.171 275.054 280.114C264.063 291.786 246.906 297.621 223.584 297.621C210.985 297.621 200.396 296.264 191.818 293.55C183.239 290.564 176.27 286.086 170.908 280.114C165.547 273.871 161.66 266.136 159.247 256.907C157.102 247.679 156.03 236.686 156.03 223.929V3.25715H207.902V229.221C207.902 244.15 213.263 251.614 223.986 251.614C234.709 251.614 240.071 244.15 240.071 229.221V3.25715H291.943V223.521Z"
        fill="white" />
    <path d="M312.739 293.957V3.25715H364.611V293.957H312.739Z" fill="white" />
    <path
        d="M386.956 293.957V3.25715H500.351V51.3H438.828V121.736H492.711V166.521H438.828V245.914H502.763V293.957H386.956Z"
        fill="white" />
    <path
        d="M107.958 644.584L56.7613 433.322H55.7954V644.584H-0.713924V295.415H64.9721L114.72 501.787H115.686V295.415H172.195V644.584H107.958Z"
        fill="white" />
    <path
        d="M196.386 644.584V295.415H332.587V353.121H258.691V437.723H323.411V491.517H258.691V586.878H335.485V644.584H196.386Z"
        fill="white" />
    <path
        d="M509.42 547.267C509.42 615.079 481.729 648.986 426.347 648.986C412.823 648.986 401.071 647.355 391.089 644.095C381.429 640.509 373.38 634.478 366.94 626.001C360.5 617.525 355.509 606.114 351.967 591.769C348.747 577.424 346.815 559.33 346.171 537.486H403.164C403.486 548.897 404.13 558.352 405.096 565.85C406.384 573.349 407.832 579.38 409.442 583.944C411.374 588.183 413.628 591.28 416.204 593.236C419.102 595.192 422.644 596.17 426.83 596.17C441.641 596.17 449.047 584.596 449.047 561.449C449.047 548.408 446.471 537.486 441.319 528.684C436.49 519.555 430.211 511.567 422.483 504.721C415.077 497.548 406.867 490.702 397.851 484.182C389.157 477.335 380.946 469.511 373.219 460.708C365.813 451.579 359.534 440.821 354.382 428.432C349.552 415.717 347.137 400.068 347.137 381.485C347.137 351.491 353.899 328.995 367.423 313.998C381.268 299.001 401.232 291.503 427.313 291.503C442.446 291.503 455.004 293.785 464.986 298.349C474.967 302.913 482.856 309.434 488.652 317.91C494.77 326.387 499.117 336.983 501.693 349.698C504.269 362.412 505.557 376.757 505.557 392.732H454.843C454.199 377.083 452.428 364.858 449.53 356.055C446.954 346.926 440.836 342.362 431.177 342.362C426.669 342.362 422.966 343.34 420.068 345.296C417.492 346.926 415.399 349.209 413.789 352.143C412.501 355.077 411.535 358.5 410.891 362.412C410.247 365.999 409.925 369.748 409.925 373.66C409.925 386.049 412.34 396.482 417.17 404.958C422.322 413.109 428.44 420.607 435.524 427.454C442.929 433.974 450.979 440.495 459.673 447.015C468.367 453.536 476.255 461.197 483.339 470C490.745 478.476 496.863 488.909 501.693 501.298C506.844 513.687 509.42 529.01 509.42 547.267Z"
        fill="white" />
    <path
        d="M85.4853 789.504C85.4853 829.168 69.2886 849 36.8951 849C28.9851 849 22.1109 848.047 16.2726 846.14C10.6226 844.042 5.91421 840.514 2.14754 835.556C-1.61914 830.598 -4.53832 823.924 -6.60999 815.534C-8.49333 807.143 -9.62333 796.56 -10 783.783H23.3351C23.5234 790.458 23.9001 795.988 24.4651 800.373C25.2184 804.759 26.0659 808.287 27.0076 810.957C28.1376 813.436 29.4559 815.247 30.9626 816.392C32.6576 817.536 34.7293 818.108 37.1776 818.108C45.841 818.108 50.1727 811.338 50.1727 797.799C50.1727 790.171 48.666 783.783 45.6527 778.635C42.8277 773.295 39.1551 768.623 34.6351 764.619C30.3035 760.424 25.5009 756.419 20.2276 752.605C15.1426 748.601 10.3401 744.024 5.82005 738.875C1.48837 733.536 -2.18414 727.243 -5.19749 719.997C-8.02249 712.56 -9.435 703.407 -9.435 692.537C-9.435 674.994 -5.47999 661.836 2.43004 653.064C10.5284 644.292 22.2051 639.906 37.4601 639.906C46.3118 639.906 53.6569 641.241 59.4952 643.911C65.3336 646.58 69.9477 650.394 73.3377 655.352C76.9161 660.31 79.4586 666.508 80.9653 673.945C82.4719 681.382 83.2253 689.772 83.2253 699.116H53.5627C53.186 689.963 52.1502 682.812 50.4552 677.663C48.9485 672.324 45.3702 669.654 39.7201 669.654C37.0835 669.654 34.9176 670.226 33.2226 671.37C31.716 672.324 30.4918 673.659 29.5501 675.375C28.7968 677.091 28.2318 679.093 27.8551 681.382C27.4784 683.479 27.2901 685.672 27.2901 687.961C27.2901 695.207 28.7026 701.309 31.5276 706.267C34.541 711.034 38.1193 715.42 42.2626 719.425C46.5943 723.239 51.3027 727.052 56.3877 730.866C61.4727 734.68 66.0869 739.161 70.2302 744.31C74.5619 749.268 78.1403 755.37 80.9653 762.617C83.9786 769.863 85.4853 778.825 85.4853 789.504Z"
        fill="white" />
    <path
        d="M187.232 744.31C187.232 763.189 186.479 779.302 184.972 792.65C183.654 805.999 181.017 816.868 177.062 825.259C173.295 833.459 168.022 839.465 161.242 843.279C154.65 847.093 146.081 849 135.534 849C125.176 849 116.701 847.093 110.109 843.279C103.518 839.465 98.3383 833.459 94.5716 825.259C90.9933 816.868 88.4508 805.999 86.9441 792.65C85.6258 779.302 84.9666 763.189 84.9666 744.31C84.9666 726.194 85.6258 710.558 86.9441 697.4C88.2625 684.242 90.7108 673.468 94.2891 665.078C98.0558 656.496 103.235 650.204 109.827 646.199C116.607 642.004 125.27 639.906 135.817 639.906C146.552 639.906 155.309 641.908 162.089 645.913C168.869 649.918 174.049 656.21 177.627 664.791C181.394 673.182 183.936 683.956 185.254 697.114C186.573 710.272 187.232 726.004 187.232 744.31ZM150.224 744.31C150.224 729.055 150.036 716.755 149.659 707.411C149.283 698.067 148.529 690.916 147.399 685.958C146.269 680.81 144.763 677.377 142.879 675.661C140.996 673.945 138.642 673.087 135.817 673.087C132.992 673.087 130.638 674.135 128.754 676.233C127.059 678.331 125.647 682.049 124.517 687.389C123.575 692.728 122.916 699.974 122.539 709.127C122.163 718.281 121.974 730.008 121.974 744.31C121.974 759.375 122.163 771.579 122.539 780.923C122.916 790.076 123.575 797.227 124.517 802.376C125.647 807.524 127.059 810.957 128.754 812.673C130.638 814.389 132.898 815.247 135.534 815.247C138.359 815.247 140.713 814.199 142.597 812.101C144.48 810.003 145.987 806.285 147.117 800.946C148.247 795.416 149 788.169 149.377 779.207C149.942 770.053 150.224 758.421 150.224 744.31Z"
        fill="white" />
    <path
        d="M289.056 846.426V706.267H288.491L270.693 846.426H240.748L222.951 706.267H222.386V846.426H189.616V642.195H239.053L255.438 781.209H256.003L274.648 642.195H321.543V846.426H289.056Z"
        fill="white" />
    <path
        d="M425.956 744.31C425.956 763.189 425.203 779.302 423.696 792.65C422.378 805.999 419.741 816.868 415.786 825.259C412.019 833.459 406.746 839.465 399.966 843.279C393.374 847.093 384.805 849 374.258 849C363.9 849 355.425 847.093 348.833 843.279C342.242 839.465 337.063 833.459 333.296 825.259C329.717 816.868 327.175 805.999 325.668 792.65C324.35 779.302 323.691 763.189 323.691 744.31C323.691 726.194 324.35 710.558 325.668 697.4C326.987 684.242 329.435 673.468 333.013 665.078C336.78 656.496 341.959 650.204 348.551 646.199C355.331 642.004 363.994 639.906 374.541 639.906C385.276 639.906 394.034 641.908 400.814 645.913C407.594 649.918 412.773 656.21 416.351 664.791C420.118 673.182 422.66 683.956 423.979 697.114C425.297 710.272 425.956 726.004 425.956 744.31ZM388.949 744.31C388.949 729.055 388.76 716.755 388.384 707.411C388.007 698.067 387.254 690.916 386.124 685.958C384.993 680.81 383.487 677.377 381.604 675.661C379.72 673.945 377.366 673.087 374.541 673.087C371.716 673.087 369.362 674.135 367.478 676.233C365.783 678.331 364.371 682.049 363.241 687.389C362.299 692.728 361.64 699.974 361.263 709.127C360.887 718.281 360.698 730.008 360.698 744.31C360.698 759.375 360.887 771.579 361.263 780.923C361.64 790.076 362.299 797.227 363.241 802.376C364.371 807.524 365.783 810.957 367.478 812.673C369.362 814.389 371.622 815.247 374.258 815.247C377.083 815.247 379.438 814.199 381.321 812.101C383.204 810.003 384.711 806.285 385.841 800.946C386.971 795.416 387.724 788.169 388.101 779.207C388.666 770.053 388.949 758.421 388.949 744.31Z"
        fill="white" />
    <path
        d="M521 789.504C521 829.168 504.803 849 472.41 849C464.5 849 457.626 848.047 451.787 846.14C446.137 844.042 441.429 840.514 437.662 835.556C433.896 830.598 430.976 823.924 428.905 815.534C427.021 807.143 425.891 796.56 425.515 783.783H458.85C459.038 790.458 459.415 795.988 459.98 800.373C460.733 804.759 461.581 808.287 462.522 810.957C463.652 813.436 464.971 815.247 466.477 816.392C468.172 817.536 470.244 818.108 472.692 818.108C481.356 818.108 485.687 811.338 485.687 797.799C485.687 790.171 484.181 783.783 481.167 778.635C478.342 773.295 474.67 768.623 470.15 764.619C465.818 760.424 461.016 756.419 455.742 752.605C450.657 748.601 445.855 744.024 441.335 738.875C437.003 733.536 433.331 727.243 430.317 719.997C427.492 712.56 426.08 703.407 426.08 692.537C426.08 674.994 430.035 661.836 437.945 653.064C446.043 644.292 457.72 639.906 472.975 639.906C481.827 639.906 489.172 641.241 495.01 643.911C500.848 646.58 505.462 650.394 508.852 655.352C512.431 660.31 514.973 666.508 516.48 673.945C517.987 681.382 518.74 689.772 518.74 699.116H489.077C488.701 689.963 487.665 682.812 485.97 677.663C484.463 672.324 480.885 669.654 475.235 669.654C472.598 669.654 470.432 670.226 468.737 671.37C467.231 672.324 466.007 673.659 465.065 675.375C464.311 677.091 463.746 679.093 463.37 681.382C462.993 683.479 462.805 685.672 462.805 687.961C462.805 695.207 464.217 701.309 467.042 706.267C470.056 711.034 473.634 715.42 477.777 719.425C482.109 723.239 486.817 727.052 491.902 730.866C496.987 734.68 501.602 739.161 505.745 744.31C510.077 749.268 513.655 755.37 516.48 762.617C519.493 769.863 521 778.825 521 789.504Z"
        fill="white" />
</svg>