<svg width="291" height="139" viewBox="0 0 291 139" fill="none" xmlns="http://www.w3.org/2000/svg">
<path d="M0 0V118.095H290.103V0H0ZM83.4367 87.1042L69.7934 73.1675H41.9934V87.1042H25.4894V59.5976H63.3018C68.5098 59.5976 74.0844 60.1478 79.2557 59.3409C83.1433 58.7174 87.2876 56.7736 87.2876 52.2625C87.2876 48.815 83.9501 46.6145 81.1995 45.2942C77.5319 43.4971 73.8644 43.8272 69.9034 43.8272H25.4894L36.8588 31.7243H83.1799L85.6739 31.8343C96.7132 32.9346 105.295 41.3699 105.295 51.6024C105.295 60.5512 98.767 68.1063 89.7449 70.6003L106.175 87.1042H83.4367ZM159.282 67.4462L157.704 69.28L157.154 69.9034V86.9208H140.467V71.0037L139.77 70.2702L138.633 69.0232L104.158 31.5409H123.963L149.379 56.957L170.541 31.5409H190.712L159.282 67.4462ZM224.454 74.4512H265.164L254.894 86.9208H218.953C212.938 86.9208 207.363 84.977 202.815 81.6762C195.92 76.6884 191.446 68.5464 191.446 59.4142C191.446 49.7686 196.397 41.2966 203.916 36.3821C208.243 33.5581 213.415 31.9077 218.953 31.9077H266.264L257.095 44.7441H224.454C215.248 44.7441 207.803 51.3823 207.803 59.5976C207.803 67.8129 215.248 74.4512 224.454 74.4512Z" fill="white"/>
<path d="M290.103 123.229H0V139H290.103V123.229Z" fill="white"/>
</svg>
