<svg width="307" height="74" viewBox="0 0 307 74" fill="none" xmlns="http://www.w3.org/2000/svg">
<path d="M15.5012 43.7584C15.5012 50.8886 16.5921 54.3682 19.544 57.099C22.3961 59.616 27.2019 61.256 32.1289 61.256C39.2592 61.256 44.8136 58.6321 46.7816 54.2541C47.6586 52.1792 48.1007 49.0062 48.1007 43.7584V0H63.6304V42.9883C63.6304 54.6962 61.2275 61.805 55.7871 66.3969C49.9902 71.2098 42.3323 73.5272 31.8366 73.5272C20.1287 73.5272 11.9218 70.8961 6.67391 65.6839C1.63995 60.543 0 55.2951 0 44.1362V0H15.5368L15.5012 43.7584Z" fill="white"/>
<path d="M121.065 56.9921L140.202 0H162.848V72.9639H148.081V18.1607L128.951 72.9639H112.979L94.9321 18.1607V72.9639H80.1511V0H102.904L121.065 56.9921Z" fill="white"/>
<path d="M235.191 13.0199H214.92C204.417 13.0199 200.481 14.2178 197.308 18.3748C195.119 21.3338 194.684 22.9738 194.135 30.1896H235.191V43.2094H194.135C195.262 55.6874 200.702 59.9655 215.576 59.9655H235.191V72.9854H214.92C199.39 72.9854 191.946 70.9033 186.15 64.7785C179.918 58.3256 176.524 48.1507 176.524 36.0079C176.524 23.1021 180.802 12.8203 188.888 5.92536C194.028 1.55451 199.062 0.0214844 208.902 0.0214844H235.191V13.0199Z" fill="white"/>
<path d="M243.256 13.0198V0H306.152V13.0198H282.087V72.9639H266.564V13.0198H243.256Z" fill="white"/>
</svg>
