<svg width="183" height="225" viewBox="0 0 183 225" fill="none" xmlns="http://www.w3.org/2000/svg">
<path d="M70.8682 8.57671L70.9315 8.61888H70.8946C70.8916 8.60144 70.8916 8.5836 70.8946 8.56616" fill="white"/>
<path d="M68.5592 114.92L71.2319 115.99L70.7363 117.171L68.0584 116.101L68.5592 114.92Z" fill="white"/>
<path d="M88.4752 87.1543V89.5107C81.9622 96.6518 76.3403 104.557 71.7328 113.053L70.9895 115.009L69.582 114.482L70.8999 112.152C76.493 102.199 82.8136 93.3378 88.4752 87.1543Z" fill="white"/>
<path d="M89.0709 147.572L88.0165 146.417C76.1977 133.238 59.06 130.418 46.7667 130.392C44.1626 130.392 41.4952 129.78 41.4952 125.336V58.4561V58.0133C41.6428 54.8188 41.9116 53.406 46.6929 53.406C57.7263 53.406 77.795 55.8678 88.259 71.9671C88.7504 72.7383 89.0069 73.6358 88.997 74.5502V88.1138H87.811V74.5502C87.8243 73.8681 87.6413 73.1965 87.2838 72.6155C77.1097 56.9801 57.4996 54.6132 46.6929 54.5921H46.656C42.8025 54.5921 42.7709 55.2616 42.6444 58.066V58.4878V125.336C42.6444 128.583 44.0782 129.2 46.7298 129.206C58.9124 129.237 75.7655 131.952 87.8479 144.493V103.849H89.034L89.0709 147.572Z" fill="white"/>
<path d="M94.4689 100.46C95.7446 100.085 96.8833 99.6268 96.9993 99.5793C96.8886 99.6584 95.945 100.307 94.4689 101.198V100.46Z" fill="white"/>
<path d="M106.256 90.9341C106.256 90.9341 104.242 95.9684 99.4031 97.5868C99.4031 97.5868 99.6403 97.4444 95.3651 99.0681C95.0646 99.1788 94.7747 99.2842 94.49 99.3791V90.9446C95.1245 90.9809 95.7535 91.0834 96.3667 91.2504C99.0182 92.0464 105.418 91.2556 106.256 90.9341Z" fill="white"/>
<path d="M106.678 74.2129C102.342 76.9597 98.2561 80.0838 94.4689 83.5488V81.3927C103.178 74.2919 109.277 71.3504 114.227 68.2138C116.14 67.0067 119.662 65.1405 121.443 63.6487C116.776 67.5124 111.842 71.0425 106.678 74.2129Z" fill="white"/>
<path d="M119.973 67.8343C121.536 67.447 123.052 66.892 124.496 66.179V68.3298C122.036 69.7012 119.363 70.6493 116.588 71.1343C119.1 70.9643 121.58 70.4754 123.969 69.6793C123.969 69.6793 123.573 71.3978 122.619 71.8196C121.665 72.2413 119.767 73.9862 112.914 74.4553C115.932 74.8726 119.007 74.5543 121.876 73.5275C121.208 76.1637 119.684 78.5035 117.542 80.1802C115.686 81.0933 113.719 81.7613 111.691 82.1676C113.458 82.0185 115.212 81.7473 116.942 81.3558C116.746 81.4718 113.526 83.3221 110.668 83.8018L115.197 83.2008C115.197 83.2008 113.294 86.0633 106.583 88.3722C99.8723 90.6812 96.4932 90.407 95.4442 90.4492C95.1213 90.4503 94.7989 90.4274 94.4795 90.3807V84.6189C98.4228 81.035 102.716 77.8561 107.295 75.1301C107.295 75.1301 112.345 71.751 117.59 67.6076C119.668 66.0385 121.657 64.3543 123.547 62.5627C123.891 62.8428 124.157 63.2067 124.319 63.6194C124.482 64.0321 124.535 64.4797 124.475 64.9191L119.973 67.8343Z" fill="white"/>
<path d="M93.8732 147.572V100.681H95.0593V144.514C107.11 131.952 123.968 129.227 136.146 129.227C138.781 129.227 140.236 128.605 140.236 125.357V58.4561V58.066C140.105 55.2615 140.073 54.5921 136.235 54.5921H136.198C125.402 54.5921 105.797 56.9801 95.6075 72.6155C95.248 73.1956 95.0649 73.8678 95.0804 74.5501V82.7526H93.8943V74.5501C93.886 73.6352 94.1443 72.7377 94.6375 71.9671C105.091 55.8678 125.149 53.4165 136.167 53.4165H136.198C140.99 53.4165 141.254 54.8293 141.401 58.0238V58.4403V125.336C141.401 129.78 138.734 130.386 136.13 130.392C123.837 130.418 106.704 133.222 94.8853 146.417L93.8732 147.572Z" fill="white"/>
<path d="M37.2885 125.431V69.168H34.0359C32.8466 69.1694 31.7063 69.6425 30.8653 70.4835C30.0243 71.3245 29.5512 72.4647 29.5498 73.6541V144.973C29.5468 145.648 29.6967 146.316 29.9882 146.926C30.2797 147.535 30.7053 148.071 31.2331 148.493C31.7609 148.915 32.3773 149.212 33.0361 149.362C33.6949 149.511 34.3791 149.511 35.0375 149.359C45.7915 146.913 64.653 144.061 82.5447 148.441C72.2019 138.652 57.547 137.803 48.733 136.897C40.4303 136.048 37.5151 132.627 37.2885 125.447V125.431Z" fill="white"/>
<path d="M145.629 125.721C145.403 132.896 142.466 136.317 134.185 137.171C125.371 138.077 110.716 138.921 100.368 148.715C118.291 144.335 137.126 147.181 147.88 149.633C148.537 149.782 149.22 149.782 149.877 149.632C150.534 149.481 151.149 149.185 151.676 148.765C152.204 148.345 152.629 147.811 152.922 147.204C153.215 146.597 153.367 145.931 153.368 145.257V73.9439C153.366 72.7545 152.893 71.6143 152.052 70.7733C151.211 69.9323 150.071 69.4592 148.882 69.4578H145.629V125.721Z" fill="white"/>
<path d="M108.966 32.4568L97.4368 37.2486V48.6246C97.435 48.6414 97.437 48.6584 97.4428 48.6743C97.4487 48.6902 97.458 48.7046 97.4703 48.7163C97.4825 48.728 97.4972 48.7367 97.5133 48.7419C97.5295 48.747 97.5465 48.7483 97.5633 48.7458H97.8796L103.873 45.915V42.7837C103.873 42.7046 103.831 42.6677 103.747 42.6677H103.362L101.069 43.6904V39.0567L108.976 35.3245V45.6145L106.235 49.526L92.3234 56.1523V37.1748L108.966 30.7488V32.4568Z" fill="white"/>
<path d="M90.6364 56.1524L76.8039 49.447L73.9995 45.5355V30.7751L79.0971 32.7151V45.8307L85.0908 48.672H85.4071C85.5389 48.672 85.6021 48.6299 85.6021 48.5508V35.256L90.6364 37.1801V56.1524Z" fill="white"/>
<path d="M91.5116 19.9526L61.6852 24.697L66.4929 26.5315L67.1044 26.7635L91.5433 36.0203L121.064 24.6917L91.5116 19.9526ZM91.5116 27.4119C91.2347 27.4289 90.9571 27.3911 90.6947 27.3007C90.4324 27.2102 90.1905 27.0689 89.9829 26.8847L67.1044 26.7477H67.078L66.7828 26.6264H66.7248L66.5087 26.5421L89.9302 25.8831C90.1358 25.6758 90.3831 25.5146 90.6558 25.4101C90.9284 25.3056 91.2201 25.2602 91.5116 25.2769C92.4921 25.2769 93.2829 25.7671 93.2829 26.3681C93.2829 26.9691 92.4921 27.4119 91.5116 27.4119Z" fill="white"/>
<path d="M38.6327 31.6503L41.959 31.8085L39.3285 33.8486L40.2089 37.0589L37.4519 35.1928L34.6738 37.0168L35.5963 33.8222L33.0027 31.74L36.329 31.6345L37.5046 28.519L38.6327 31.6503Z" fill="white"/>
<path d="M146.62 31.6503L149.947 31.8085L147.316 33.8486L148.196 37.0589L145.439 35.1928L142.656 37.0168L143.584 33.8222L140.985 31.74L144.311 31.6345L145.492 28.519L146.62 31.6503Z" fill="white"/>
<path d="M135.334 18.2607L138.655 18.4188L136.03 20.4642L136.905 23.6746L134.153 21.8032L131.37 23.6324L132.298 20.4326L129.699 18.3503L133.025 18.2449L134.201 15.1294L135.334 18.2607Z" fill="white"/>
<path d="M49.956 18.2607L53.277 18.4188L50.6518 20.4642L51.5269 23.6746L48.7751 21.8032L45.9917 23.6324L46.9195 20.4326L44.3207 18.3503L47.647 18.2449L48.8278 15.1294L49.956 18.2607Z" fill="white"/>
<path d="M64.5002 8.55049L67.8265 8.70864L65.196 10.7487L66.0764 13.9591L63.3193 12.0877L60.5412 13.9169L61.4638 10.7171L58.8702 8.6401L62.1965 8.5294L63.3721 5.41919L64.5002 8.55049Z" fill="white"/>
<path d="M120.368 8.55049L123.689 8.70864L121.064 10.7487L121.939 13.9591L119.187 12.0877L116.404 13.9169L117.332 10.7171L114.733 8.6401L118.059 8.5294L119.24 5.41919L120.368 8.55049Z" fill="white"/>
<path d="M103.146 3.1313L106.472 3.28944L103.842 5.32953L104.717 8.5399L101.965 6.67377L99.1817 8.49772L100.109 5.30317L97.5159 3.22091L100.837 3.11548L102.018 0L103.146 3.1313Z" fill="white"/>
<path d="M82.1862 3.1313L85.5073 3.28944L82.8821 5.32953L83.7572 8.5399L81.0054 6.67377L78.222 8.49772L79.1498 5.30317L76.551 3.22091L79.8773 3.11548L81.0529 0L82.1862 3.1313Z" fill="white"/>
<path d="M66.4928 26.5L65.5808 37.1327L66.7406 39.9688L67.8159 37.1116L67.1043 26.7267L66.4928 26.5Z" fill="white"/>
<path d="M67.8845 116.954L66.2608 119.627C66.2608 119.627 67.1465 122.036 66.1818 123.971C66.3241 123.739 67.5313 121.862 69.3868 121.335L70.2461 117.914L67.8845 116.954ZM68.2429 120.776C68.1028 120.831 67.9468 120.83 67.8073 120.773C67.6679 120.716 67.5558 120.608 67.4944 120.47C67.4654 120.402 67.4504 120.329 67.4505 120.254C67.4505 120.18 67.4654 120.106 67.4944 120.038C67.5235 119.97 67.566 119.908 67.6194 119.856C67.6728 119.805 67.736 119.764 67.8054 119.738C67.9446 119.681 68.1004 119.682 68.2394 119.739C68.3783 119.796 68.4893 119.905 68.5487 120.043C68.5778 120.112 68.593 120.185 68.5933 120.259C68.5937 120.333 68.5792 120.406 68.5506 120.474C68.5221 120.543 68.4802 120.605 68.4274 120.657C68.3745 120.708 68.3118 120.749 68.2429 120.776Z" fill="white"/>
<path d="M121.443 63.6538C116.777 67.51 111.844 71.0331 106.683 74.1969C102.347 76.9438 98.2614 80.0679 94.4742 83.5328C92.3234 85.4833 90.3308 87.4812 88.4858 89.4738C81.9728 96.6149 76.3508 104.52 71.7433 113.017L71 114.972L69.5925 114.445L70.9104 112.115C76.493 102.199 82.8136 93.3379 88.4752 87.1543C90.2369 85.191 92.136 83.3554 94.1579 81.6614L94.4637 81.4136C103.172 74.3129 109.271 71.3713 114.221 68.2348C116.14 67.0118 119.662 65.1457 121.443 63.6538Z" fill="white"/>
<path d="M71.2319 115.99L70.7363 117.171L68.0584 116.101L68.5592 114.92L71.2319 115.99Z" fill="white"/>
<path d="M119.973 67.8343C121.535 67.447 123.052 66.892 124.496 66.179V68.3298C122.036 69.7012 119.363 70.6493 116.588 71.1343C119.1 70.9643 121.58 70.4754 123.968 69.6793C123.968 69.6793 123.573 71.3978 122.619 71.8196C121.665 72.2413 119.767 73.9862 112.914 74.4553C115.932 74.8726 119.007 74.5543 121.876 73.5275C121.208 76.1637 119.683 78.5035 117.542 80.1802C115.686 81.0933 113.719 81.7613 111.691 82.1676C113.458 82.0185 115.212 81.7473 116.941 81.3558C116.746 81.4718 113.526 83.3221 110.668 83.8018L115.197 83.2008C115.197 83.2008 113.294 86.0633 106.583 88.3722C99.8722 90.6811 96.4932 90.407 95.4441 90.4492C95.1213 90.4503 94.7989 90.4274 94.4795 90.3807C93.5727 90.2963 92.218 90.2594 89.2079 91.2716C90.9504 90.9935 92.7166 90.8929 94.4795 90.9711C95.1139 91.0074 95.7429 91.1098 96.3561 91.2768C98.9919 92.0676 105.428 91.2768 106.267 90.9553C106.267 90.9553 104.253 95.9896 99.4136 97.6079C99.4136 97.6079 99.6508 97.4656 95.3756 99.0893C95.0751 99.2 94.7852 99.3054 94.5005 99.4003C92.5568 100.021 90.5468 100.41 88.5121 100.56C87.5534 100.639 86.6007 100.78 85.6601 100.982C85.6601 100.982 87.0202 100.934 88.5121 100.924C89.656 100.924 90.8737 100.924 91.6117 100.982C92.5952 100.97 93.5704 100.801 94.5005 100.481C95.7762 100.107 96.9149 99.648 97.0309 99.6006C96.9202 99.6797 95.9766 100.328 94.5005 101.219C92.9191 102.189 90.7683 103.444 88.5121 104.545C86.0713 105.742 83.5146 106.765 81.4271 107.076C75.5282 107.956 76.7249 108.51 76.7249 108.51C76.7249 108.51 79.8562 107.629 82.1915 107.909C83.8836 108.109 86.9359 106.707 88.5173 105.921C89.1025 105.626 89.4768 105.394 89.4768 105.394C89.1717 105.691 88.8514 105.973 88.5173 106.237C86.2368 108.061 83.6225 109.422 80.8209 110.244C76.5246 111.488 75.4966 111.899 74.8113 112.447H72.8714C77.1841 104.552 82.4223 97.1994 88.4752 90.5441C90.3097 88.5567 92.3076 86.5641 94.4636 84.6189C98.407 81.035 102.7 77.8561 107.279 75.1301C107.279 75.1301 112.329 71.751 117.574 67.6076C119.652 66.0385 121.641 64.3543 123.531 62.5627C123.875 62.8428 124.141 63.2067 124.303 63.6194C124.466 64.0321 124.519 64.4797 124.459 64.9191L119.973 67.8343Z" fill="white"/>
<path d="M0.967605 167.002H4.8791V178.315C4.82057 179.261 4.97363 180.209 5.32717 181.088C5.79106 182.121 6.80497 182.638 8.36886 182.638C9.93275 182.638 10.9414 182.121 11.3947 181.088C11.7457 180.208 11.8987 179.261 11.8428 178.315V167.002H15.7279V178.352C15.7279 180.308 15.4222 181.837 14.8159 182.928C13.6808 184.924 11.523 185.924 8.34249 185.927C5.16199 185.931 2.9989 184.931 1.85322 182.928C1.24172 181.837 0.941254 180.292 0.941254 178.352L0.967605 167.002Z" fill="white"/>
<path d="M30.1403 172.58C31.0294 173.318 31.4757 174.548 31.4792 176.27V185.448H27.8524V177.14C27.88 176.575 27.781 176.011 27.5625 175.49C27.3752 175.136 27.0863 174.847 26.733 174.659C26.3797 174.471 25.9783 174.393 25.5804 174.435C25.0583 174.396 24.5373 174.524 24.0928 174.801C23.6484 175.078 23.3035 175.489 23.108 175.975C22.8548 176.637 22.7365 177.343 22.7601 178.052V185.432H19.2018V171.831H22.6494V173.819C22.9963 173.247 23.4344 172.736 23.9462 172.306C24.7543 171.733 25.7293 171.444 26.719 171.483C27.9532 171.432 29.1656 171.821 30.1403 172.58Z" fill="white"/>
<path d="M38.4534 170.176H34.8424V166.886H38.4534V170.176ZM34.8424 171.8H38.4534V185.426H34.8424V171.8Z" fill="white"/>
<path d="M50.2934 171.8H54.1205L49.2022 185.426H45.4436L40.5568 171.8H44.5579L47.394 181.847L50.2934 171.8Z" fill="white"/>
<path d="M65.0168 172.079C65.9771 172.512 66.7931 173.21 67.3679 174.093C67.9416 174.935 68.3132 175.899 68.4539 176.908C68.566 177.805 68.6065 178.709 68.5751 179.612H58.6488C58.7085 180.979 59.1847 181.937 60.0774 182.485C60.6669 182.845 61.3477 183.028 62.0384 183.012C62.5974 183.052 63.1555 182.922 63.6397 182.64C64.124 182.358 64.512 181.937 64.7532 181.431H68.3853C68.2238 182.372 67.7614 183.236 67.0675 183.893C65.8445 185.221 64.1365 185.884 61.9435 185.88C60.1955 185.903 58.4952 185.309 57.1411 184.204C55.7565 183.086 55.0641 181.269 55.0641 178.753C55.0641 176.391 55.6897 174.581 56.9408 173.323C57.5798 172.691 58.3419 172.197 59.1798 171.871C60.0177 171.546 60.9135 171.396 61.8117 171.431C62.9141 171.416 64.0069 171.637 65.0168 172.079ZM59.6873 175.152C59.1533 175.736 58.8207 176.475 58.7384 177.261H64.8745C64.8714 176.857 64.7857 176.457 64.6225 176.088C64.4593 175.718 64.2222 175.385 63.9256 175.11C63.3374 174.614 62.5862 174.353 61.817 174.378C61.4277 174.353 61.0376 174.409 60.6711 174.542C60.3045 174.675 59.9696 174.883 59.6873 175.152Z" fill="white"/>
<path d="M77.932 171.499H78.2378V175.152C78.0111 175.152 77.8108 175.11 77.6368 175.1H77.2151C75.7812 175.1 74.8183 175.565 74.3263 176.496C74.0068 177.263 73.8662 178.092 73.9151 178.921V185.437H70.3252V171.8H73.7148V174.177C74.0926 173.483 74.5784 172.853 75.1539 172.311C75.9004 171.732 76.8311 171.444 77.7739 171.499H77.932Z" fill="white"/>
<path d="M83.0981 181.072C83.1161 181.564 83.2875 182.038 83.5884 182.427C84.0312 182.901 84.8518 183.139 86.0502 183.139C86.6259 183.164 87.1996 183.056 87.7266 182.822C87.9123 182.748 88.0712 182.619 88.1822 182.452C88.2933 182.286 88.3513 182.089 88.3486 181.889C88.3535 181.703 88.3068 181.52 88.2138 181.359C88.1207 181.198 87.9849 181.066 87.8214 180.977C87.4841 180.766 86.24 180.408 84.0945 179.923C82.5446 179.536 81.4534 179.057 80.8208 178.484C80.4939 178.169 80.2396 177.786 80.0757 177.363C79.9118 176.94 79.8423 176.486 79.8719 176.033C79.8678 175.416 79.9988 174.807 80.2556 174.247C80.5125 173.687 80.8889 173.19 81.3585 172.791C82.3443 171.884 83.736 171.436 85.5336 171.436C86.9903 171.372 88.435 171.725 89.6981 172.453C90.7524 173.133 91.385 174.304 91.5484 175.969H87.9849C87.9583 175.578 87.8232 175.202 87.5948 174.883C87.2047 174.398 86.5405 174.161 85.5916 174.161C85.0146 174.111 84.4358 174.236 83.931 174.52C83.785 174.611 83.6635 174.736 83.5771 174.885C83.4907 175.034 83.4421 175.202 83.4355 175.374C83.426 175.557 83.471 175.739 83.5648 175.896C83.6586 176.054 83.7971 176.18 83.9627 176.259C85.1627 176.691 86.3971 177.021 87.6528 177.245C88.8316 177.461 89.9331 177.983 90.8473 178.758C91.1904 179.089 91.4612 179.488 91.6427 179.929C91.8241 180.37 91.9123 180.843 91.9016 181.32C91.9176 181.95 91.7897 182.575 91.5275 183.148C91.2653 183.72 90.8758 184.226 90.3887 184.625C89.3871 185.479 87.8337 185.906 85.7286 185.906C83.5778 185.906 81.9964 185.458 80.9842 184.551C80.4878 184.125 80.0926 183.593 79.8273 182.995C79.5619 182.397 79.4332 181.747 79.4502 181.093L83.0981 181.072Z" fill="white"/>
<path d="M98.2329 170.176H94.6218V166.886H98.2329V170.176ZM94.6218 171.8H98.2329V185.426H94.6218V171.8Z" fill="white"/>
<path d="M108.908 172.026C109.556 172.381 110.101 172.899 110.489 173.529V167.024H114.105V185.427H110.616V183.539C110.191 184.262 109.593 184.867 108.876 185.3C108.126 185.681 107.291 185.863 106.451 185.827C105.679 185.834 104.915 185.663 104.219 185.329C103.523 184.994 102.912 184.505 102.434 183.898C101.31 182.498 100.731 180.737 100.805 178.943C100.805 176.62 101.332 174.79 102.387 173.455C102.895 172.807 103.549 172.288 104.295 171.941C105.042 171.594 105.86 171.428 106.683 171.457C107.462 171.446 108.23 171.642 108.908 172.026ZM109.783 181.731C110.341 180.865 110.616 179.846 110.568 178.816C110.568 177.15 110.152 175.959 109.308 175.242C108.807 174.816 108.169 174.585 107.511 174.594C107.057 174.564 106.603 174.658 106.198 174.866C105.793 175.074 105.453 175.388 105.212 175.774C104.701 176.664 104.449 177.68 104.485 178.705C104.433 179.763 104.691 180.813 105.228 181.726C105.471 182.096 105.808 182.395 106.205 182.593C106.601 182.792 107.042 182.881 107.484 182.854C107.932 182.877 108.378 182.785 108.78 182.588C109.182 182.391 109.527 182.094 109.783 181.726V181.731Z" fill="white"/>
<path d="M122.74 177.14C123.226 177.097 123.705 176.991 124.164 176.823C124.385 176.761 124.579 176.629 124.718 176.446C124.857 176.264 124.933 176.041 124.933 175.811C124.954 175.581 124.908 175.349 124.799 175.145C124.691 174.941 124.525 174.773 124.322 174.662C123.779 174.421 123.186 174.312 122.593 174.346C122.263 174.311 121.93 174.349 121.617 174.457C121.304 174.564 121.018 174.738 120.779 174.968C120.496 175.33 120.314 175.761 120.252 176.217H116.815C116.845 175.159 117.197 174.135 117.822 173.281C118.764 172.079 120.387 171.48 122.693 171.483C124.074 171.457 125.442 171.761 126.683 172.369C127.85 172.959 128.432 174.075 128.428 175.716V181.968C128.428 182.401 128.428 182.928 128.428 183.55C128.418 183.879 128.49 184.205 128.639 184.499C128.776 184.679 128.958 184.821 129.166 184.91V185.437H125.292C125.19 185.187 125.114 184.927 125.065 184.662C125.023 184.42 124.991 184.135 124.965 183.834C124.465 184.37 123.889 184.83 123.257 185.2C122.452 185.648 121.542 185.876 120.621 185.859C119.5 185.9 118.403 185.524 117.542 184.804C117.131 184.426 116.809 183.962 116.599 183.444C116.39 182.926 116.298 182.368 116.33 181.81C116.28 181.081 116.438 180.353 116.784 179.71C117.13 179.066 117.65 178.533 118.286 178.173C119.275 177.684 120.348 177.387 121.449 177.298L122.74 177.14ZM124.923 178.8C124.705 178.937 124.473 179.052 124.232 179.143C123.919 179.259 123.596 179.348 123.267 179.406L122.456 179.559C121.888 179.632 121.337 179.796 120.821 180.044C120.553 180.192 120.331 180.412 120.182 180.679C120.033 180.947 119.962 181.251 119.978 181.557C119.957 181.803 119.994 182.05 120.085 182.279C120.177 182.507 120.321 182.712 120.505 182.875C120.861 183.152 121.303 183.295 121.754 183.281C122.524 183.286 123.276 183.05 123.905 182.606C124.559 182.156 124.9 181.336 124.928 180.144L124.923 178.8Z" fill="white"/>
<path d="M138.781 172.026C139.428 172.384 139.972 172.902 140.363 173.529V167.024H143.974V185.427H140.511V183.539C140.088 184.261 139.491 184.866 138.776 185.3C138.026 185.681 137.191 185.862 136.351 185.827C135.579 185.834 134.815 185.663 134.119 185.329C133.423 184.994 132.812 184.505 132.334 183.898C131.204 182.5 130.623 180.738 130.7 178.943C130.7 176.62 131.236 174.79 132.308 173.455C132.815 172.808 133.469 172.289 134.214 171.942C134.96 171.595 135.777 171.429 136.599 171.457C137.364 171.454 138.116 171.65 138.781 172.026ZM139.657 181.731C140.213 180.864 140.487 179.846 140.442 178.816C140.442 177.15 140.022 175.959 139.182 175.242C138.679 174.815 138.039 174.584 137.379 174.594C136.926 174.564 136.473 174.659 136.069 174.867C135.665 175.075 135.326 175.388 135.086 175.774C134.573 176.664 134.319 177.679 134.353 178.705C134.301 179.763 134.56 180.813 135.097 181.726C135.34 182.096 135.677 182.395 136.073 182.593C136.469 182.792 136.911 182.881 137.353 182.854C137.801 182.878 138.248 182.787 138.651 182.589C139.054 182.392 139.4 182.095 139.657 181.726V181.731Z" fill="white"/>
<path d="M161.528 172.026C162.176 172.383 162.72 172.9 163.11 173.529V167.024H166.726V185.427H163.263V183.539C162.836 184.26 162.239 184.865 161.523 185.3C160.773 185.681 159.938 185.863 159.098 185.827C158.326 185.834 157.562 185.663 156.866 185.329C156.17 184.994 155.559 184.505 155.081 183.898C153.957 182.498 153.378 180.737 153.452 178.943C153.452 176.62 153.979 174.79 155.034 173.455C155.542 172.807 156.196 172.288 156.942 171.941C157.689 171.594 158.507 171.428 159.33 171.457C160.1 171.451 160.858 171.647 161.528 172.026ZM162.403 181.731C162.962 180.865 163.236 179.846 163.189 178.816C163.189 177.15 162.769 175.959 161.929 175.242C161.426 174.815 160.786 174.584 160.126 174.594C159.673 174.564 159.22 174.659 158.816 174.867C158.412 175.075 158.072 175.388 157.833 175.774C157.321 176.664 157.069 177.68 157.105 178.705C157.053 179.763 157.312 180.813 157.849 181.726C158.092 182.097 158.428 182.396 158.825 182.594C159.221 182.792 159.663 182.882 160.105 182.854C160.552 182.877 160.998 182.785 161.4 182.588C161.802 182.391 162.148 182.094 162.403 181.726V181.731Z" fill="white"/>
<path d="M178.819 172.079C179.779 172.511 180.595 173.21 181.17 174.093C181.744 174.935 182.115 175.898 182.256 176.908C182.365 177.805 182.406 178.709 182.377 179.612H172.451C172.507 180.979 172.981 181.937 173.874 182.485C174.466 182.845 175.148 183.027 175.84 183.012C176.553 183.044 177.253 182.821 177.817 182.385C178.123 182.125 178.372 181.806 178.55 181.446H182.187C182.024 182.387 181.562 183.25 180.869 183.908C179.646 185.237 177.937 185.899 175.74 185.896C173.994 185.919 172.295 185.325 170.943 184.219C169.555 183.102 168.863 181.285 168.866 178.769C168.866 176.407 169.492 174.597 170.743 173.339C171.382 172.707 172.144 172.212 172.982 171.887C173.82 171.561 174.716 171.411 175.614 171.446C176.715 171.427 177.808 171.643 178.819 172.079ZM173.489 175.152C172.955 175.735 172.623 176.474 172.54 177.261H178.676C178.673 176.857 178.588 176.457 178.425 176.087C178.261 175.717 178.024 175.385 177.728 175.11C177.139 174.614 176.388 174.353 175.619 174.377C175.23 174.353 174.84 174.409 174.473 174.542C174.107 174.675 173.772 174.883 173.489 175.152Z" fill="white"/>
<path d="M19.6709 198.785C19.5103 197.947 19.1453 197.161 18.6083 196.498C18.0712 195.835 17.3787 195.315 16.5923 194.984C15.6293 194.575 14.5915 194.372 13.5454 194.388C12.5405 194.364 11.5433 194.569 10.6298 194.988C9.71628 195.408 8.91049 196.03 8.27383 196.808C6.91729 198.421 6.23903 200.844 6.23903 204.077C6.23903 207.31 6.98406 209.619 8.47415 211.004C9.84364 212.31 11.6639 213.036 13.5559 213.034C15.2267 213.107 16.8626 212.541 18.1316 211.452C19.3424 210.352 20.1218 208.857 20.3298 207.235H14.1463V202.802H25.2166V217.035H21.5265L20.9993 213.74C20.1804 214.763 19.2077 215.652 18.1158 216.376C16.4746 217.317 14.6035 217.783 12.7125 217.72C11.0924 217.771 9.48053 217.471 7.98736 216.84C6.49419 216.21 5.15508 215.264 4.06188 214.067C1.72131 211.607 0.551025 208.258 0.551025 204.019C0.551025 199.781 1.73361 196.335 4.09878 193.682C6.46746 191.088 9.597 189.793 13.4874 189.797C16.8612 189.797 19.5725 190.652 21.6214 192.364C22.6005 193.148 23.4155 194.117 24.0197 195.216C24.6239 196.315 25.0056 197.522 25.1428 198.769L19.6709 198.785Z" fill="white"/>
<path d="M35.8863 197.414V209.254C35.8423 210.112 35.9769 210.97 36.2816 211.774C36.7455 212.77 37.6628 213.271 39.0228 213.271C40.78 213.271 41.9766 212.568 42.6127 211.162C42.9907 210.194 43.17 209.16 43.1399 208.121V197.414H48.3482V217.056H43.356V214.278C43.3086 214.341 43.1873 214.52 42.9976 214.805C42.8078 215.1 42.5771 215.366 42.3123 215.596C41.6416 216.235 40.8517 216.737 39.9875 217.072C39.1378 217.353 38.2466 217.488 37.3518 217.472C34.4524 217.472 32.5002 216.418 31.495 214.309C30.9292 213.157 30.6481 211.457 30.6516 209.212V197.414H35.8863Z" fill="white"/>
<path d="M61.7536 205.105C62.4539 205.046 63.1433 204.896 63.8043 204.657C64.1209 204.564 64.3994 204.372 64.5987 204.11C64.798 203.847 64.9076 203.527 64.9113 203.197C64.9444 202.867 64.882 202.535 64.7315 202.239C64.581 201.944 64.3488 201.698 64.0626 201.531C63.2797 201.182 62.4249 201.025 61.5691 201.072C60.3409 201.072 59.4605 201.373 58.9334 201.974C58.5341 202.499 58.2829 203.121 58.2059 203.777H53.2506C53.2968 202.257 53.8022 200.786 54.7003 199.559C56.0604 197.83 58.4009 196.966 61.722 196.966C63.7138 196.928 65.6856 197.368 67.4732 198.247C69.1496 199.101 69.9878 200.71 69.9878 203.076V212.09C69.9878 212.712 69.9878 213.471 70.0247 214.357C70.0105 214.832 70.1157 215.303 70.3304 215.727C70.5262 215.99 70.7882 216.195 71.0896 216.323V217.082H65.5017C65.3579 216.721 65.2502 216.347 65.1801 215.964C65.1169 215.617 65.0695 215.216 65.0326 214.773C64.3138 215.547 63.4841 216.209 62.5707 216.739C61.4203 217.384 60.1201 217.713 58.8016 217.694C57.186 217.753 55.6058 217.21 54.3682 216.17C53.2032 215.153 52.618 213.719 52.618 211.853C52.618 209.438 53.5564 207.692 55.4331 206.613C56.8523 205.908 58.3925 205.478 59.9719 205.348L61.7536 205.105ZM64.9166 207.504C64.6034 207.701 64.2714 207.867 63.9255 207.999C63.4756 208.154 63.0136 208.273 62.5444 208.352L61.3741 208.569C60.5559 208.673 59.76 208.91 59.0177 209.27C58.6297 209.482 58.3095 209.799 58.094 210.185C57.8786 210.571 57.7766 211.01 57.8 211.452C57.7675 211.804 57.8178 212.159 57.9469 212.489C58.0759 212.818 58.2801 213.113 58.5433 213.35C59.0589 213.747 59.6957 213.953 60.3461 213.935C61.4549 213.94 62.5379 213.601 63.4458 212.965C64.3894 212.317 64.8849 211.13 64.9166 209.412V207.504Z" fill="white"/>
<path d="M75.9342 220.82L76.5826 220.857C77.0648 220.88 77.5482 220.861 78.027 220.799C78.4391 220.756 78.8349 220.615 79.1815 220.387C79.5734 220.046 79.8634 219.602 80.0196 219.106C80.2099 218.738 80.323 218.334 80.3518 217.92L73.135 197.414H78.8441L83.1351 211.9L87.1889 197.414H92.6502L85.9132 216.729C84.6094 220.451 83.5814 222.76 82.8294 223.656C82.0773 224.552 80.5608 225 78.28 225H77.1836C76.9024 225 76.486 224.979 75.9342 224.937V220.82Z" fill="white"/>
<path d="M104.126 205.105C104.827 205.046 105.516 204.896 106.177 204.657C106.494 204.564 106.772 204.372 106.972 204.11C107.171 203.847 107.28 203.527 107.284 203.197C107.317 202.867 107.255 202.535 107.104 202.239C106.954 201.944 106.722 201.698 106.435 201.531C105.653 201.181 104.798 201.024 103.942 201.072C102.712 201.072 101.833 201.373 101.306 201.974C100.905 202.498 100.652 203.121 100.573 203.777H95.6181C95.6643 202.257 96.1697 200.786 97.0678 199.559C98.4279 197.83 100.768 196.966 104.089 196.966C106.081 196.928 108.053 197.368 109.841 198.247C111.517 199.101 112.355 200.71 112.355 203.076V212.09C112.355 212.712 112.355 213.471 112.392 214.357C112.378 214.832 112.483 215.303 112.698 215.727C112.894 215.99 113.156 216.195 113.457 216.323V217.082H107.869C107.725 216.721 107.618 216.347 107.548 215.964C107.493 215.554 107.461 215.14 107.453 214.726C106.731 215.498 105.9 216.161 104.986 216.692C103.835 217.336 102.535 217.666 101.217 217.646C99.601 217.705 98.0213 217.162 96.7831 216.123C95.6181 215.105 95.0383 213.671 95.0383 211.805C95.0383 209.391 95.9749 207.644 97.848 206.565C99.2673 205.86 100.807 205.431 102.387 205.3L104.126 205.105ZM107.289 207.504C106.974 207.7 106.64 207.866 106.293 207.999C105.843 208.154 105.381 208.273 104.912 208.352L103.742 208.569C102.924 208.674 102.128 208.911 101.385 209.27C100.998 209.482 100.678 209.799 100.464 210.186C100.249 210.572 100.148 211.011 100.173 211.452C100.14 211.804 100.19 212.158 100.318 212.488C100.446 212.817 100.649 213.112 100.911 213.35C101.425 213.745 102.06 213.952 102.708 213.935C103.817 213.94 104.9 213.601 105.808 212.965C106.757 212.315 107.249 211.13 107.284 209.412L107.289 207.504Z" fill="white"/>
<path d="M128.539 198.099C129.273 198.734 129.884 199.499 130.342 200.355V197.451H135.297V224.837H130.215V214.62C129.76 215.488 129.079 216.216 128.244 216.729C127.091 217.403 125.766 217.725 124.432 217.657C123.324 217.662 122.228 217.421 121.225 216.949C120.222 216.478 119.337 215.788 118.634 214.931C117.031 213.118 116.232 210.696 116.235 207.667C116.235 204.392 117.036 201.775 118.639 199.818C119.333 198.901 120.232 198.158 121.263 197.648C122.294 197.138 123.43 196.876 124.58 196.882C126.001 196.817 127.4 197.248 128.539 198.099ZM129.641 210.993C130.16 209.801 130.407 208.508 130.363 207.208C130.382 206.1 130.172 205 129.746 203.977C129.461 203.192 128.932 202.52 128.237 202.059C127.541 201.597 126.716 201.372 125.882 201.415C125.279 201.397 124.68 201.524 124.135 201.784C123.59 202.045 123.116 202.431 122.751 202.912C121.964 203.907 121.57 205.423 121.57 207.461C121.529 208.597 121.708 209.73 122.097 210.798C122.37 211.563 122.885 212.217 123.563 212.663C124.241 213.109 125.046 213.323 125.856 213.271C126.64 213.316 127.421 213.123 128.094 212.717C128.766 212.31 129.3 211.709 129.625 210.993H129.641Z" fill="white"/>
<path d="M145.856 197.414V209.254C145.812 210.112 145.946 210.97 146.251 211.774C146.715 212.77 147.632 213.271 148.992 213.271C150.75 213.271 151.944 212.568 152.577 211.162C152.958 210.195 153.137 209.16 153.104 208.121V197.414H158.307V217.056H153.315V214.278C153.268 214.341 153.146 214.52 152.957 214.805C152.767 215.1 152.536 215.366 152.271 215.596C151.601 216.235 150.811 216.737 149.947 217.072C149.097 217.353 148.206 217.488 147.311 217.472C144.411 217.472 142.459 216.418 141.454 214.309C140.888 213.157 140.607 211.457 140.611 209.212V197.414H145.856Z" fill="white"/>
<path d="M169.225 195.073H164.016V190.329H169.225V195.073ZM164.016 197.414H169.225V217.056H164.016V197.414Z" fill="white"/>
<path d="M180.105 217.056H174.971V190.477H180.105V217.056Z" fill="white"/>
</svg>
